<svg width="98" height="71" viewBox="0 0 98 71" fill="none" xmlns="http://www.w3.org/2000/svg">
<path d="M41.9375 62.6406V70H7.8125V62.6406H41.9375ZM9.59375 1.75V70H0.546875V1.75H9.59375ZM88.6719 52.75C88.6719 51.1562 88.4219 49.75 87.9219 48.5312C87.4531 47.2812 86.6094 46.1562 85.3906 45.1562C84.2031 44.1562 82.5469 43.2031 80.4219 42.2969C78.3281 41.3906 75.6719 40.4688 72.4531 39.5312C69.0781 38.5312 66.0312 37.4219 63.3125 36.2031C60.5938 34.9531 58.2656 33.5312 56.3281 31.9375C54.3906 30.3438 52.9062 28.5156 51.875 26.4531C50.8438 24.3906 50.3281 22.0312 50.3281 19.375C50.3281 16.7188 50.875 14.2656 51.9688 12.0156C53.0625 9.76562 54.625 7.8125 56.6562 6.15625C58.7188 4.46875 61.1719 3.15625 64.0156 2.21875C66.8594 1.28125 70.0312 0.8125 73.5312 0.8125C78.6562 0.8125 83 1.79688 86.5625 3.76562C90.1562 5.70312 92.8906 8.25 94.7656 11.4062C96.6406 14.5312 97.5781 17.875 97.5781 21.4375H88.5781C88.5781 18.875 88.0312 16.6094 86.9375 14.6406C85.8438 12.6406 84.1875 11.0781 81.9688 9.95312C79.75 8.79688 76.9375 8.21875 73.5312 8.21875C70.3125 8.21875 67.6562 8.70312 65.5625 9.67188C63.4688 10.6406 61.9062 11.9531 60.875 13.6094C59.875 15.2656 59.375 17.1562 59.375 19.2812C59.375 20.7188 59.6719 22.0312 60.2656 23.2188C60.8906 24.375 61.8438 25.4531 63.125 26.4531C64.4375 27.4531 66.0938 28.375 68.0938 29.2188C70.125 30.0625 72.5469 30.875 75.3594 31.6562C79.2344 32.75 82.5781 33.9688 85.3906 35.3125C88.2031 36.6562 90.5156 38.1719 92.3281 39.8594C94.1719 41.5156 95.5312 43.4062 96.4062 45.5312C97.3125 47.625 97.7656 50 97.7656 52.6562C97.7656 55.4375 97.2031 57.9531 96.0781 60.2031C94.9531 62.4531 93.3438 64.375 91.25 65.9688C89.1562 67.5625 86.6406 68.7969 83.7031 69.6719C80.7969 70.5156 77.5469 70.9375 73.9531 70.9375C70.7969 70.9375 67.6875 70.5 64.625 69.625C61.5938 68.75 58.8281 67.4375 56.3281 65.6875C53.8594 63.9375 51.875 61.7812 50.375 59.2188C48.9062 56.625 48.1719 53.625 48.1719 50.2188H57.1719C57.1719 52.5625 57.625 54.5781 58.5312 56.2656C59.4375 57.9219 60.6719 59.2969 62.2344 60.3906C63.8281 61.4844 65.625 62.2969 67.625 62.8281C69.6562 63.3281 71.7656 63.5781 73.9531 63.5781C77.1094 63.5781 79.7812 63.1406 81.9688 62.2656C84.1562 61.3906 85.8125 60.1406 86.9375 58.5156C88.0938 56.8906 88.6719 54.9688 88.6719 52.75Z" fill="url(#paint0_linear_1798_3254)"/>
<defs>
<linearGradient id="paint0_linear_1798_3254" x1="5.27273" y1="90.0179" x2="100.267" y2="-6.57221" gradientUnits="userSpaceOnUse">
<stop stop-color="#00A983"/>
<stop offset="0.494792" stop-color="white"/>
<stop offset="1" stop-color="#3162AC"/>
</linearGradient>
</defs>
</svg>
