<svg width="70" height="80" viewBox="0 0 70 80" fill="none" xmlns="http://www.w3.org/2000/svg">
<path d="M38.2249 3.57043L65.2249 18.999C67.2501 20.1563 68.5 22.31 68.5 24.6426V55.3574C68.5 57.69 67.2501 59.8437 65.2249 61.001L38.2249 76.4296C36.2266 77.5715 33.7734 77.5715 31.7751 76.4296L4.7751 61.001C2.74986 59.8437 1.5 57.69 1.5 55.3574V24.6426C1.5 22.31 2.74986 20.1563 4.7751 18.999L31.7751 3.57043C33.7734 2.42854 36.2266 2.42854 38.2249 3.57043Z" fill="white" stroke="url(#paint0_linear_8_104)" stroke-width="3"/>
<g clip-path="url(#clip0_8_104)">
<path d="M39.6947 31.3147H45.0732V36.8129H47.793C49.0645 36.8068 50.3267 36.5951 51.5306 36.1861C52.1166 35.9874 52.7714 35.7122 53.3473 35.3657C52.588 34.3746 52.2007 33.1236 52.0733 31.8879C51.9179 30.2102 52.2568 28.0254 53.3931 26.712L53.9587 26.0585L54.6339 26.5999C56.3308 27.963 57.7576 29.8675 58.0098 32.0395C60.0519 31.4382 62.4507 31.5809 64.252 32.6204L64.9909 33.0472L64.6023 33.8065C63.0902 36.7747 59.9054 37.6957 56.7932 37.5327C52.1358 49.1317 41.9966 54.6236 29.7033 54.6236C23.3516 54.6236 17.5247 52.249 14.2074 46.6144C14.0125 46.2641 13.8469 45.8985 13.6698 45.5392C12.5488 43.0589 12.1755 40.3417 12.4277 37.6409L12.5042 36.8282H17.0903V31.3185H22.4688V25.94H33.227V20.5615H39.6819V31.3198" fill="#394D54"/>
<path d="M34.1369 16.0715H38.7989V20.7333H34.1369V16.0715Z" fill="#00ACD3"/>
<path d="M34.1369 21.453H38.7989V26.115H34.1369V21.453Z" fill="#20C2EF"/>
<path d="M34.709 20.3475V16.462V20.3475ZM35.4081 20.3472V16.462V20.3472ZM36.1143 20.3472V16.462V20.3472ZM36.8207 20.3472V16.462V20.3472ZM37.5272 20.3472V16.462V20.3472ZM38.2258 20.3472V16.462V20.3472Z" fill="black"/>
<path d="M38.2258 20.3472V16.462M34.709 20.3475V16.462V20.3475ZM35.4081 20.3472V16.462V20.3472ZM36.1143 20.3472V16.462V20.3472ZM36.8207 20.3472V16.462V20.3472ZM37.5272 20.3472V16.462V20.3472Z" stroke="#394D54" stroke-width="0.39144"/>
<path d="M57.1222 33.349C57.4829 30.5461 55.3852 28.3443 54.0843 27.2991C52.5851 29.0324 52.3523 33.5749 54.7042 35.4871C53.3915 36.653 50.6258 37.7097 47.7938 37.7097H12.9982C12.7229 40.6659 12.9982 54.9017 12.9982 54.9017H64.0454L63.8132 33.3951C61.6019 32.1192 58.7593 32.5262 57.1222 33.3488" fill="#17B5EB"/>
<path d="M12.9982 41.493V54.9017H64.0453V41.493" fill="black" fill-opacity="0.17"/>
<path d="M31.1674 53.702C27.9823 52.1906 26.234 50.1358 25.2613 47.893L15.5858 48.315L20.5259 54.9017L31.1674 53.702Z" fill="#D4EDF1"/>
<path d="M57.341 33.2451V33.2521C52.4339 39.5801 45.3948 45.1036 37.8381 48.0064C31.0973 50.596 25.2203 50.6082 21.1655 48.5287C20.7289 48.2821 20.3007 48.0083 19.8717 47.7495C16.8989 45.6719 15.2247 42.2355 15.3654 37.7078H12.9982V54.9018H64.0453V32.3187H58.1643L57.341 33.2451Z" fill="black" fill-opacity="0.085"/>
<path d="M15.7335 48.0871C19.066 48.2693 22.6215 48.3037 25.7235 47.3304" stroke="#394D54" stroke-width="0.853355" stroke-linecap="round"/>
<path d="M29.0344 45.7176C29.0341 46.0584 28.8986 46.3851 28.6576 46.6261C28.4166 46.8671 28.0899 47.0026 27.7491 47.003C27.408 47.003 27.081 46.8676 26.8397 46.6266C26.5984 46.3855 26.4627 46.0586 26.4624 45.7176C26.4624 45.3763 26.598 45.0491 26.8393 44.8078C27.0806 44.5665 27.4078 44.4309 27.7491 44.4309C28.0901 44.4313 28.417 44.567 28.658 44.8082C28.8991 45.0495 29.0344 45.3766 29.0344 45.7176Z" fill="#D4EDF1"/>
<path d="M28.0956 44.8604C27.9835 44.9241 27.907 45.0464 27.907 45.1865C27.907 45.3941 28.0752 45.5623 28.2829 45.5623C28.4255 45.5623 28.5376 45.4833 28.6141 45.3661C28.6602 45.478 28.684 45.5979 28.6841 45.719C28.6841 46.2285 28.2714 46.64 27.7631 46.64C27.2548 46.64 26.8421 46.2273 26.8421 45.719C26.8421 45.2107 27.2548 44.7979 27.7631 44.7979C27.8773 44.7978 27.9905 44.819 28.0969 44.8604H28.0956ZM4.99945 41.7647H64.8278C63.5245 41.4335 60.7066 41.0004 61.1716 39.2806C58.8021 42.0221 53.0899 41.1915 51.6491 39.8513C50.0439 42.18 40.6972 41.2947 40.0462 39.4691C38.0334 41.831 31.7976 41.831 29.7848 39.4691C29.1326 41.2832 19.7871 42.1698 18.1921 39.8513C16.7373 41.1915 11.0251 42.0233 8.6556 39.2806C9.12058 40.9877 6.3014 41.4463 4.99945 41.7647Z" fill="#394D54"/>
</g>
<defs>
<linearGradient id="paint0_linear_8_104" x1="35" y1="-3.82524e-07" x2="35" y2="80" gradientUnits="userSpaceOnUse">
<stop stop-color="#30C69D"/>
<stop offset="1" stop-color="#3C69B4"/>
</linearGradient>
<clipPath id="clip0_8_104">
<rect width="60" height="60" fill="white" transform="translate(5 10)"/>
</clipPath>
</defs>
</svg>
