<svg width="70" height="80" viewBox="0 0 70 80" fill="none" xmlns="http://www.w3.org/2000/svg">
<path d="M38.2249 3.57043L65.2249 18.999C67.2501 20.1563 68.5 22.31 68.5 24.6426V55.3574C68.5 57.69 67.2501 59.8437 65.2249 61.001L38.2249 76.4296C36.2266 77.5715 33.7734 77.5715 31.7751 76.4296L4.7751 61.001C2.74986 59.8437 1.5 57.69 1.5 55.3574V24.6426C1.5 22.31 2.74986 20.1563 4.7751 18.999L31.7751 3.57043C33.7734 2.42854 36.2266 2.42854 38.2249 3.57043Z" fill="white" stroke="url(#paint0_linear_8_15)" stroke-width="3"/>
<path d="M10.3975 35.5918C10.284 35.5918 10.2556 35.535 10.3124 35.4499L10.9081 34.6839C10.9649 34.5988 11.1067 34.542 11.2202 34.542H21.3486C21.462 34.542 21.4904 34.6271 21.4337 34.7123L20.9514 35.4499C20.8946 35.535 20.7528 35.6201 20.6677 35.6201L10.3975 35.5918Z" fill="#00ACD7"/>
<path d="M6.11348 38.2018C6 38.2018 5.97163 38.1451 6.02837 38.06L6.62416 37.294C6.6809 37.2089 6.82275 37.1521 6.93623 37.1521H19.8733C19.9868 37.1521 20.0435 37.2372 20.0151 37.3223L19.7882 38.0032C19.7598 38.1167 19.6463 38.1735 19.5328 38.1735L6.11348 38.2018Z" fill="#00ACD7"/>
<path d="M12.9792 40.812C12.8657 40.812 12.8373 40.7268 12.8941 40.6417L13.2913 39.9325C13.348 39.8473 13.4615 39.7622 13.575 39.7622H19.2491C19.3626 39.7622 19.4193 39.8473 19.4193 39.9608L19.3626 40.6417C19.3626 40.7552 19.2491 40.8403 19.164 40.8403L12.9792 40.812Z" fill="#00ACD7"/>
<path d="M42.428 35.0811C40.6407 35.535 39.4207 35.8755 37.6617 36.3294C37.2362 36.4429 37.2078 36.4712 36.839 36.0457C36.4134 35.5634 36.1014 35.2513 35.5056 34.9676C33.7182 34.0881 31.9876 34.3434 30.3705 35.3932C28.4413 36.6415 27.4483 38.4856 27.4767 40.7836C27.505 43.0532 29.0654 44.9257 31.3067 45.2378C33.2359 45.4931 34.853 44.8122 36.1297 43.3653C36.3851 43.0532 36.612 42.7128 36.8957 42.3156C35.8744 42.3156 34.5977 42.3156 31.4202 42.3156C30.8244 42.3156 30.6825 41.9468 30.8811 41.4645C31.25 40.585 31.9309 39.1097 32.328 38.3721C32.4132 38.2019 32.6118 37.9181 33.0373 37.9181C34.4842 37.9181 39.8179 37.9181 43.3643 37.9181C43.3075 38.6842 43.3075 39.4502 43.194 40.2162C42.882 42.2589 42.1159 44.1313 40.8676 45.7768C38.8249 48.4721 36.1581 50.1459 32.782 50.5999C30.0016 50.9687 27.4199 50.4296 25.1503 48.7274C23.0508 47.1386 21.8592 45.0392 21.5472 42.4291C21.1784 39.3367 22.0862 36.5564 23.9587 34.1165C25.973 31.478 28.6399 29.8041 31.9025 29.2083C34.5693 28.726 37.1227 29.0381 39.4207 30.5985C40.9244 31.5915 42.0025 32.9533 42.7117 34.5988C42.882 34.8541 42.7685 34.996 42.428 35.0811Z" fill="#00ACD7"/>
<path d="M51.8188 50.7701C49.237 50.7133 46.8822 49.9757 44.8963 48.2734C43.2224 46.8265 42.1727 44.9824 41.8323 42.7979C41.3216 39.592 42.2011 36.7549 44.1303 34.2299C46.2014 31.5064 48.698 30.0878 52.0741 29.492C54.9679 28.9814 57.6915 29.2651 60.1597 30.9389C62.401 32.471 63.7912 34.542 64.16 37.2656C64.6423 41.0957 63.5359 44.2164 60.8974 46.8833C59.0249 48.7841 56.7269 49.9757 54.0884 50.5147C53.3224 50.6566 52.5564 50.685 51.8188 50.7701ZM58.571 39.3083C58.5426 38.9395 58.5426 38.6558 58.4859 38.3721C57.9752 35.5634 55.3935 33.9746 52.6982 34.5988C50.0598 35.1945 48.3575 36.8684 47.7334 39.5353C47.2227 41.7482 48.3008 43.9895 50.3435 44.8973C51.9039 45.5782 53.4643 45.4931 54.9679 44.7271C57.2092 43.5639 58.4291 41.7482 58.571 39.3083Z" fill="#00ACD7"/>
<defs>
<linearGradient id="paint0_linear_8_15" x1="35" y1="-3.82524e-07" x2="35" y2="80" gradientUnits="userSpaceOnUse">
<stop stop-color="#30C69D"/>
<stop offset="1" stop-color="#3C69B4"/>
</linearGradient>
</defs>
</svg>
