<svg width="70" height="80" viewBox="0 0 70 80" fill="none" xmlns="http://www.w3.org/2000/svg">
<path d="M38.2249 3.57043L65.2249 18.999C67.2501 20.1563 68.5 22.31 68.5 24.6426V55.3574C68.5 57.69 67.2501 59.8437 65.2249 61.001L38.2249 76.4296C36.2266 77.5715 33.7734 77.5715 31.7751 76.4296L4.7751 61.001C2.74986 59.8437 1.5 57.69 1.5 55.3574V24.6426C1.5 22.31 2.74986 20.1563 4.7751 18.999L31.7751 3.57043C33.7734 2.42854 36.2266 2.42854 38.2249 3.57043Z" fill="white" stroke="url(#paint0_linear_8_193)" stroke-width="3"/>
<path d="M14 19H56V61H14V19Z" fill="#F0DB4F"/>
<path d="M52.5625 50.9831C52.2551 49.0667 51.0055 47.4578 47.3045 45.9567C46.019 45.3658 44.5857 44.9426 44.1585 43.9684C44.0068 43.4015 43.9868 43.0821 44.0827 42.7388C44.3581 41.6249 45.6876 41.2776 46.7416 41.597C47.4203 41.8245 48.0631 42.3476 48.4503 43.1819C50.2629 42.0082 50.2589 42.0162 51.5245 41.2097C51.0614 40.4911 50.8138 40.1597 50.5104 39.8523C49.4205 38.6346 47.9353 38.0078 45.5598 38.0557C45.1486 38.1076 44.7335 38.1635 44.3222 38.2154C43.1365 38.5149 42.0066 39.1377 41.3439 39.9721C39.3557 42.2278 39.9226 46.1762 42.342 47.8012C44.7254 49.5898 48.2268 49.997 48.6739 51.6698C49.1091 53.7179 47.1688 54.3806 45.2405 54.1451C43.8192 53.8497 43.0287 53.127 42.1743 51.8135C40.6013 52.7238 40.6013 52.7238 38.9844 53.654C39.3677 54.4924 39.7709 54.8717 40.4137 55.5983C43.4559 58.6845 51.0694 58.5327 52.4348 53.8616C52.4906 53.7019 52.858 52.6319 52.5625 50.9831ZM36.8325 38.3032H32.904C32.904 41.6968 32.888 45.0663 32.888 48.4599C32.888 50.6198 32.9998 52.6 32.6485 53.2068C32.0736 54.4005 30.5844 54.2529 29.9057 54.0213C29.215 53.6819 28.8637 53.1988 28.4565 52.5162C28.3447 52.3205 28.2608 52.1688 28.2329 52.1568C27.1669 52.8076 26.1049 53.4623 25.0389 54.1131C25.57 55.203 26.3524 56.1492 27.3545 56.764C28.8517 57.6623 30.8638 57.9378 32.9679 57.4547C34.3373 57.0555 35.519 56.2291 36.1378 54.9715C37.0321 53.3226 36.8405 51.3264 36.8325 49.1186C36.8524 45.5175 36.8325 41.9163 36.8325 38.3032Z" fill="#323330"/>
<defs>
<linearGradient id="paint0_linear_8_193" x1="35" y1="-3.82524e-07" x2="35" y2="80" gradientUnits="userSpaceOnUse">
<stop stop-color="#30C69D"/>
<stop offset="1" stop-color="#3C69B4"/>
</linearGradient>
</defs>
</svg>
