<svg width="70" height="80" viewBox="0 0 70 80" fill="none" xmlns="http://www.w3.org/2000/svg">
<path d="M38.2249 3.57043L65.2249 18.999C67.2501 20.1563 68.5 22.31 68.5 24.6426V55.3574C68.5 57.69 67.2501 59.8437 65.2249 61.001L38.2249 76.4296C36.2266 77.5715 33.7734 77.5715 31.7751 76.4296L4.7751 61.001C2.74986 59.8437 1.5 57.69 1.5 55.3574V24.6426C1.5 22.31 2.74986 20.1563 4.7751 18.999L31.7751 3.57043C33.7734 2.42854 36.2266 2.42854 38.2249 3.57043Z" fill="white" stroke="url(#paint0_linear_8_87)" stroke-width="3"/>
<g clip-path="url(#clip0_8_87)">
<path d="M34.4524 12.8218C33.9583 12.8509 33.4751 12.9789 33.0314 13.1982L13.7889 22.3766C12.784 22.8549 12.0537 23.7648 11.8033 24.8491L7.09325 45.4487C6.8688 46.4156 7.05009 47.4291 7.61122 48.2578C7.67683 48.358 7.74589 48.4546 7.81841 48.5479L21.1129 65.078C21.8156 65.9413 22.8706 66.4368 23.9825 66.4316H45.3055C46.4209 66.4333 47.4776 65.9136 48.1785 65.0624L61.4662 48.5289C62.1637 47.6656 62.4244 46.5261 62.1568 45.4452L57.4156 24.8284C57.1653 23.7441 56.4315 22.8342 55.4301 22.3559L36.2186 13.2C35.665 12.9269 35.0519 12.7969 34.4351 12.8218H34.4524Z" fill="#326CE5"/>
<path d="M34.6285 19.842C33.9655 19.8887 33.463 20.4567 33.4976 21.1197V21.4443C33.5286 21.8121 33.5839 22.1764 33.6564 22.5372C33.7623 23.2282 33.8005 23.9279 33.7704 24.6264C33.7048 24.856 33.5735 25.0632 33.394 25.222L33.3681 25.7089C32.6688 25.7676 31.9747 25.8747 31.291 26.03C28.4146 26.6792 25.7954 28.171 23.7736 30.3206L23.3592 30.027C23.1313 30.0961 22.8861 30.0702 22.6772 29.958C22.1168 29.5432 21.5981 29.0748 21.1285 28.5595C20.8926 28.2776 20.6407 28.0095 20.374 27.7566L20.1184 27.5529C19.8905 27.3699 19.6108 27.2645 19.319 27.2507C19.1449 27.2415 18.9711 27.2736 18.8117 27.3444C18.6524 27.4152 18.5121 27.5228 18.4022 27.6582C18.012 28.2055 18.1398 28.9635 18.6854 29.3554L18.9237 29.5453C19.2304 29.7494 19.5486 29.9356 19.8767 30.103C20.4879 30.4431 21.0646 30.842 21.5998 31.3116C21.7367 31.5068 21.8163 31.7365 21.8295 31.9746L22.2058 32.3199C20.1737 35.369 19.3398 39.0621 19.8612 42.6896L19.3777 42.8278C19.2517 43.0281 19.0842 43.199 18.8839 43.325C18.2095 43.5051 17.519 43.6191 16.8224 43.6652C16.4527 43.6727 16.0838 43.7015 15.7174 43.7515L15.4118 43.8205H15.3773C15.1652 43.85 14.9655 43.9377 14.8003 44.0739C14.6351 44.2102 14.511 44.3896 14.4417 44.5921C14.3725 44.7947 14.3608 45.0126 14.408 45.2214C14.4552 45.4303 14.5594 45.6219 14.7091 45.775C14.8602 45.9273 15.0506 46.0347 15.2592 46.085C15.4677 46.1353 15.6862 46.1266 15.8901 46.0599H15.9125L16.2233 46.0254C16.5738 45.9218 16.9191 45.794 17.2558 45.649C17.9033 45.39 18.5749 45.1914 19.2621 45.0619C19.5003 45.0758 19.7282 45.1569 19.9216 45.295L20.4396 45.2087C21.5618 48.6912 23.9203 51.6419 27.0696 53.5014L26.8589 53.9417C26.9556 54.1437 26.9919 54.3681 26.9625 54.5908C26.6776 55.2504 26.3289 55.8823 25.9214 56.4762C25.6979 56.7709 25.4915 57.0781 25.3033 57.3965L25.1565 57.7073C25.0501 57.892 24.9967 58.1025 25.0023 58.3157C25.008 58.5288 25.0724 58.7362 25.1885 58.915C25.3047 59.0938 25.4679 59.2371 25.6603 59.3289C25.8527 59.4208 26.0668 59.4577 26.2788 59.4356C26.4914 59.4117 26.6931 59.3293 26.8617 59.1976C27.0302 59.066 27.159 58.8901 27.2336 58.6897L27.3769 58.3962C27.5081 58.0509 27.6186 57.6987 27.7084 57.343C28.014 56.5885 28.1798 55.7787 28.5976 55.278C28.7341 55.1496 28.9062 55.0654 29.0914 55.0363L29.3504 54.5649C32.7642 55.8771 36.5416 55.8863 39.9618 54.5908L40.1915 55.0311C40.4263 55.0656 40.6369 55.1951 40.7785 55.3851C41.1031 56.0032 41.3655 56.6506 41.5658 57.3188C41.6571 57.6766 41.7689 58.0288 41.9007 58.3737L42.0441 58.6673C42.1194 58.8669 42.2485 59.0419 42.4172 59.1727C42.5858 59.3035 42.7873 59.3852 42.9994 59.4086C43.2116 59.432 43.426 59.3963 43.6191 59.3054C43.8122 59.2144 43.9764 59.0719 44.0935 58.8934C44.2094 58.7139 44.2734 58.5058 44.2783 58.2922C44.2831 58.0785 44.2287 57.8677 44.1211 57.6831L43.9709 57.3723C43.7827 57.0551 43.5763 56.749 43.3528 56.4555C42.9557 55.8823 42.6138 55.2711 42.3168 54.6306C42.2891 54.5134 42.2852 54.392 42.3054 54.2733C42.3256 54.1547 42.3694 54.0413 42.4343 53.9399C42.3606 53.7893 42.2966 53.6342 42.2426 53.4755C45.385 51.6022 47.7331 48.6411 48.8433 45.1535L49.3336 45.2398C49.5097 45.0792 49.7411 44.9946 49.9776 45.0015C50.6631 45.1327 51.3347 45.3468 51.9839 45.5885C52.3206 45.7439 52.6659 45.8752 53.0164 45.9857C53.0992 46.0081 53.2201 46.0271 53.3133 46.0495H53.3358C53.5396 46.1154 53.7576 46.1233 53.9656 46.0725C54.1737 46.0217 54.3635 45.9142 54.5141 45.7619C54.6646 45.6095 54.7699 45.4184 54.8182 45.2098C54.8666 45.0012 54.856 44.7832 54.7878 44.5802C54.718 44.3774 54.5932 44.198 54.4274 44.062C54.2615 43.926 54.0611 43.8389 53.8486 43.8102L53.5136 43.7308C53.1472 43.6808 52.7783 43.6519 52.4086 43.6444C51.7111 43.5995 51.0205 43.4856 50.3471 43.3043C50.1399 43.1886 49.9673 43.016 49.8498 42.8071L49.3837 42.6689C49.8807 39.0431 49.0292 35.361 46.9907 32.3216L47.3981 31.9453C47.3809 31.7087 47.4586 31.4739 47.6122 31.2926C48.1423 30.8368 48.7172 30.4345 49.3215 30.0909C49.6496 29.9234 49.9678 29.7372 50.2746 29.5332L50.5267 29.3295C50.7122 29.2143 50.8614 29.0489 50.957 28.8525C51.0525 28.656 51.0904 28.4365 51.0664 28.2194C51.0424 28.0023 50.9574 27.7964 50.8212 27.6256C50.6851 27.4548 50.5033 27.326 50.297 27.2542C50.0909 27.1824 49.8687 27.1705 49.656 27.2197C49.4434 27.2688 49.249 27.3772 49.0953 27.5322L48.8398 27.7359C48.5732 27.9889 48.3212 28.2569 48.0853 28.5387C47.6295 29.0602 47.1253 29.535 46.578 29.9597C46.3571 30.0496 46.1155 30.0759 45.8805 30.0357L45.4437 30.3465C42.9229 27.7048 39.5267 26.0646 35.8871 25.7365C35.8871 25.5639 35.8647 25.3049 35.8612 25.2237C35.6661 25.0891 35.5297 24.8836 35.4848 24.6505C35.4609 23.9533 35.5048 23.2553 35.6161 22.5666C35.6903 22.204 35.7421 21.8414 35.7749 21.4737V21.1283C35.8094 20.4653 35.3087 19.8973 34.644 19.8507L34.6285 19.842ZM33.1885 28.7615L32.8432 34.7924H32.8173C32.8 35.1653 32.5808 35.483 32.2441 35.6625C31.9074 35.8421 31.5086 35.7886 31.2081 35.5693L26.2615 32.0644C27.836 30.5179 29.8112 29.4421 31.9644 28.9583C32.3684 28.872 32.7759 28.8064 33.1851 28.7615H33.1885ZM36.0684 28.7615C38.6669 29.0843 41.0858 30.2515 42.9574 32.0834L38.0574 35.5659C37.7553 35.8076 37.3409 35.8559 36.9904 35.6902C36.6399 35.5244 36.4155 35.1722 36.4103 34.7854L36.0684 28.7615ZM24.4659 34.3331L28.9895 38.3698V38.3957C29.2709 38.6409 29.3935 39.0224 29.3107 39.3867C29.2278 39.751 28.9481 40.0394 28.5907 40.1378V40.1551L22.786 41.8246C22.4987 39.2094 23.0904 36.573 24.4676 34.3314L24.4659 34.3331ZM44.7582 34.3331C46.1326 36.569 46.7403 39.1916 46.4882 41.8039L40.6749 40.1292V40.1067C40.3123 40.0083 40.0361 39.72 39.9549 39.3557C39.8738 38.9914 39.9946 38.6132 40.2761 38.3646L44.7651 34.3469L44.7582 34.3331ZM33.7013 38.684H35.5522L36.6831 40.1205L36.2722 41.9161L34.6095 42.7155L32.9433 41.9161L32.5514 40.1205L33.7013 38.684ZM39.6303 43.584C39.708 43.5754 39.803 43.5754 39.8634 43.584L45.8494 44.594C44.9861 47.0803 43.282 49.204 41.0582 50.6249L38.7446 45.024C38.681 44.8737 38.6544 44.7103 38.6671 44.5477C38.6798 44.385 38.7313 44.2277 38.8175 44.0891C38.9036 43.9506 39.0218 43.8347 39.162 43.7513C39.3023 43.6679 39.4605 43.6194 39.6234 43.6099L39.6303 43.584ZM29.5765 43.6099C29.915 43.6151 30.2275 43.7895 30.4122 44.0726C30.5969 44.3558 30.6263 44.7115 30.4934 45.0222V45.0447L28.1936 50.6008C25.9922 49.1902 24.3209 47.0924 23.4317 44.632L29.3659 43.6254C29.4315 43.6185 29.4988 43.6185 29.5662 43.6254L29.5765 43.6099ZM34.5905 46.0271C34.7791 46.0211 34.9657 46.0677 35.1294 46.1616C35.2931 46.2555 35.4275 46.393 35.5176 46.5589H35.5401L38.4649 51.837L37.296 52.1823C35.1447 52.6744 32.8985 52.5587 30.8076 51.8473L33.7427 46.5692C33.9206 46.2585 34.2486 46.0685 34.606 46.0599L34.5905 46.0271Z" fill="white" stroke="white" stroke-width="0.11"/>
</g>
<defs>
<linearGradient id="paint0_linear_8_87" x1="35" y1="-3.82524e-07" x2="35" y2="80" gradientUnits="userSpaceOnUse">
<stop stop-color="#30C69D"/>
<stop offset="1" stop-color="#3C69B4"/>
</linearGradient>
<clipPath id="clip0_8_87">
<rect width="55.25" height="55.25" fill="white" transform="translate(7 12)"/>
</clipPath>
</defs>
</svg>
