<svg width="70" height="80" viewBox="0 0 70 80" fill="none" xmlns="http://www.w3.org/2000/svg">
<path d="M38.2249 3.57043L65.2249 18.999C67.2501 20.1563 68.5 22.31 68.5 24.6426V55.3574C68.5 57.69 67.2501 59.8437 65.2249 61.001L38.2249 76.4296C36.2266 77.5715 33.7734 77.5715 31.7751 76.4296L4.7751 61.001C2.74986 59.8437 1.5 57.69 1.5 55.3574V24.6426C1.5 22.31 2.74986 20.1563 4.7751 18.999L31.7751 3.57043C33.7734 2.42854 36.2266 2.42854 38.2249 3.57043Z" fill="white" stroke="url(#paint0_linear_8_72)" stroke-width="3"/>
<g clip-path="url(#clip0_8_72)">
<path d="M50.8998 50.4548C48.7795 50.4021 47.1362 50.6133 45.7579 51.1937C45.3603 51.3519 44.7241 51.352 44.6711 51.8534C44.8832 52.0645 44.9097 52.4076 45.0952 52.6977C45.4136 53.2253 45.9698 53.9379 46.4735 54.3075C47.03 54.7295 47.5868 55.1516 48.1697 55.5211C49.2035 56.1544 50.3698 56.5237 51.377 57.1571C51.9603 57.5262 52.543 58.0015 53.1262 58.3972C53.4178 58.608 53.6032 58.9514 53.9744 59.0832V59.0042C53.7887 58.7665 53.7357 58.4236 53.5503 58.1597C53.2855 57.8958 53.0202 57.6583 52.7551 57.3944C51.9865 56.3655 51.0324 55.4683 49.9987 54.7295C49.1506 54.149 47.2951 53.3574 46.9506 52.381C46.9506 52.381 46.924 52.3548 46.8976 52.3284C47.4806 52.2756 48.1697 52.0645 48.7265 51.9062C49.6276 51.6685 50.4492 51.7215 51.377 51.484C51.801 51.3784 52.2251 51.2464 52.6491 51.1145V50.8771C52.1722 50.4021 51.8276 49.7689 51.324 49.3203C49.9722 48.159 48.4878 47.0246 46.9506 46.0747C46.1289 45.547 45.0686 45.2039 44.194 44.7554C43.8762 44.5969 43.3459 44.5179 43.1605 44.254C42.6832 43.6736 42.4181 42.9085 42.0737 42.2224C41.3052 40.7709 40.5629 39.1615 39.9002 37.6312C39.4233 36.602 39.1317 35.5729 38.5486 34.6231C35.8186 30.1374 32.85 27.4196 28.2913 24.7544C27.3105 24.2004 26.1443 23.9629 24.8986 23.6728C24.2362 23.6462 23.5733 23.5936 22.9108 23.5671C22.4867 23.3823 22.0625 22.8811 21.6914 22.6436C20.1809 21.6936 16.2845 19.6357 15.1713 22.3535C14.4556 24.0685 16.2316 25.7571 16.841 26.6281C17.2919 27.2349 17.8748 27.9209 18.1929 28.607C18.3784 29.0553 18.4313 29.5306 18.6168 30.0055C19.0411 31.1661 19.4384 32.4594 19.9952 33.5413C20.2868 34.0954 20.6048 34.6758 20.9759 35.1772C21.1879 35.4673 21.5589 35.5994 21.6386 36.0742C21.2676 36.602 21.241 37.3937 21.0287 38.0533C20.0746 41.035 20.4459 44.729 21.7975 46.9191C22.2214 47.5785 23.2287 49.0302 24.5805 48.4759C25.7733 48.001 25.5083 46.497 25.8526 45.1777C25.9324 44.8607 25.8794 44.6499 26.0383 44.4388V44.4917C26.4094 45.2303 26.7803 45.9429 27.1249 46.6817C27.9467 47.9745 29.3778 49.3203 30.5705 50.2176C31.2068 50.6923 31.7103 51.5103 32.5056 51.8006V51.7213H32.4524C32.2933 51.4838 32.0548 51.3784 31.8429 51.1935C31.3659 50.7188 30.8356 50.1382 30.4646 49.6105C29.3516 48.1327 28.3706 46.4968 27.496 44.8081C27.0721 43.9903 26.7008 43.0931 26.3564 42.2751C26.1972 41.9582 26.1972 41.4835 25.9322 41.3253C25.5346 41.9057 24.9516 42.4071 24.66 43.1194C24.1567 44.254 24.1035 45.6525 23.9179 47.1036C23.8119 47.1303 23.8648 47.1036 23.8118 47.1567C22.9638 46.9453 22.6722 46.0747 22.354 45.3358C21.5587 43.4625 21.4262 40.4544 22.1156 38.2908C22.3011 37.7366 23.0963 35.9952 22.7783 35.4674C22.6192 34.966 22.0889 34.6758 21.7975 34.2801C21.453 33.7787 21.0818 33.1456 20.8433 32.5913C20.2072 31.1137 19.8891 29.4777 19.2 28C18.8819 27.3139 18.3256 26.6017 17.8748 25.9683C17.3713 25.256 16.8146 24.7544 16.417 23.9101C16.2846 23.62 16.0989 23.145 16.311 22.8283C16.364 22.6172 16.4699 22.5382 16.6821 22.4854C17.0267 22.195 18.0075 22.5644 18.3518 22.7228C19.3325 23.1183 20.1541 23.4881 20.9759 24.0421C21.3468 24.306 21.7445 24.8074 22.2214 24.9393H22.7781C23.6264 25.1239 24.5803 24.9921 25.3756 25.2294C26.7805 25.6779 28.0525 26.3376 29.1924 27.0502C32.6646 29.2402 35.5268 32.3538 37.4619 36.0742C37.78 36.6809 37.9124 37.2354 38.204 37.8684C38.7608 39.1615 39.4498 40.4808 40.0062 41.7473C40.5629 42.9873 41.0929 44.254 41.8881 45.2832C42.2857 45.8371 43.8759 46.1275 44.5916 46.4178C45.1217 46.6552 45.9435 46.8664 46.4205 47.1566C47.3216 47.7104 48.2227 48.3441 49.071 48.9507C49.4951 49.2674 50.8202 49.9271 50.8998 50.4548Z" fill="#00546B"/>
<path d="M23.8643 27.5248C23.4138 27.5248 23.0959 27.5779 22.7778 27.6569V27.7097H22.8308C23.043 28.132 23.4138 28.4222 23.6787 28.7915C23.8909 29.2136 24.0763 29.636 24.2886 30.0582C24.3149 30.0317 24.3414 30.0054 24.3414 30.0054C24.7127 29.7414 24.8981 29.3193 24.8981 28.686C24.739 28.5014 24.7125 28.3167 24.58 28.132C24.4211 27.8679 24.0763 27.7361 23.8643 27.5248Z" fill="#00546B"/>
</g>
<defs>
<linearGradient id="paint0_linear_8_72" x1="35" y1="-3.82524e-07" x2="35" y2="80" gradientUnits="userSpaceOnUse">
<stop stop-color="#30C69D"/>
<stop offset="1" stop-color="#3C69B4"/>
</linearGradient>
<clipPath id="clip0_8_72">
<rect width="39" height="38.22" fill="white" transform="translate(15 21)"/>
</clipPath>
</defs>
</svg>
