<svg width="70" height="80" viewBox="0 0 70 80" fill="none" xmlns="http://www.w3.org/2000/svg">
<path d="M38.2249 3.57043L65.2249 18.999C67.2501 20.1563 68.5 22.31 68.5 24.6426V55.3574C68.5 57.69 67.2501 59.8437 65.2249 61.001L38.2249 76.4296C36.2266 77.5715 33.7734 77.5715 31.7751 76.4296L4.7751 61.001C2.74986 59.8437 1.5 57.69 1.5 55.3574V24.6426C1.5 22.31 2.74986 20.1563 4.7751 18.999L31.7751 3.57043C33.7734 2.42854 36.2266 2.42854 38.2249 3.57043Z" fill="white" stroke="url(#paint0_linear_8_145)" stroke-width="3"/>
<path d="M33.274 15.5417C34.5519 14.821 36.2164 14.8178 37.4932 15.5417C43.9166 19.1179 50.3421 22.6884 56.7645 26.2668C57.9724 26.9372 58.7804 28.2617 58.7682 29.6331V51.1486C58.7771 52.5768 57.8893 53.933 56.6149 54.5882C50.2125 58.1446 43.8135 61.7054 37.4122 65.2619C36.1079 65.9967 34.41 65.9401 33.1465 65.145C31.227 64.0487 29.3043 62.9578 27.3847 61.8626C26.9924 61.6322 26.5503 61.4488 26.2733 61.0741C26.5181 60.7489 26.9559 60.7084 27.3116 60.5664C28.1129 60.3154 28.8487 59.9125 29.5848 59.5215C29.7709 59.396 29.9981 59.4441 30.1766 59.5564C31.8179 60.4836 33.4447 61.4378 35.0916 62.3561C35.4429 62.556 35.7986 62.2907 36.0989 62.1257C42.3816 58.6272 48.672 55.1418 54.9535 51.6421C55.1863 51.5318 55.315 51.2884 55.296 51.0372C55.3005 43.9397 55.2971 36.8409 55.2983 29.7434C55.3249 29.4584 55.1575 29.1964 54.8959 29.0797C48.5158 25.5395 42.1389 21.994 35.7599 18.4529C35.6494 18.378 35.5184 18.3379 35.3843 18.3377C35.2502 18.3375 35.1192 18.3773 35.0084 18.4518C28.6294 21.994 22.2536 25.5428 15.8746 29.0828C15.614 29.1996 15.439 29.4573 15.4701 29.7434C15.4712 36.8409 15.4701 43.9397 15.4701 51.0383C15.459 51.1609 15.4863 51.2838 15.5483 51.3906C15.6104 51.4974 15.7041 51.5829 15.817 51.6356C17.5192 52.5867 19.2237 53.5311 20.9271 54.479C21.8867 54.9879 23.065 55.2903 24.1222 54.9004C25.0552 54.5707 25.7092 53.6326 25.6914 52.6565C25.7002 45.6005 25.687 38.5433 25.698 31.4883C25.6747 31.1751 25.9763 30.9163 26.2854 30.9457C27.1033 30.9403 27.9223 30.9349 28.7402 30.9479C29.0817 30.9403 29.3166 31.2776 29.2744 31.5932C29.2711 38.6939 29.2832 45.7949 29.2689 52.8956C29.2711 54.7881 28.482 56.8472 26.7054 57.7732C24.5167 58.8903 21.8115 58.6534 19.6492 57.5822C17.7773 56.6617 15.991 55.5753 14.1523 54.5891C12.8746 53.9375 11.9912 52.5759 12.0002 51.1488V29.6331C11.9868 28.2333 12.8269 26.8847 14.0725 26.2241C20.4737 22.6647 26.8739 19.1027 33.274 15.5417Z" fill="#8CC84B"/>
<path d="M38.8584 30.4457C41.6503 30.2686 44.6391 30.3408 47.1514 31.6959C49.0965 32.7344 50.1749 34.9138 50.2092 37.043C50.1548 37.3302 49.8501 37.4886 49.5719 37.4689C48.7619 37.4678 47.9517 37.4797 47.1416 37.4634C46.798 37.4765 46.5983 37.1643 46.5552 36.865C46.3224 35.8463 45.7586 34.8373 44.7854 34.3459C43.2914 33.609 41.5592 33.646 39.9302 33.6614C38.7409 33.7236 37.4621 33.8251 36.4546 34.5141C35.6811 35.0361 35.4461 36.0897 35.7222 36.9383C35.9825 37.5475 36.6963 37.7441 37.2804 37.9253C40.6449 38.7923 44.2103 38.7061 47.5106 39.8471C48.8769 40.3122 50.2136 41.2165 50.6813 42.626C51.2931 44.5152 51.0249 46.7733 49.6607 48.2899C48.5544 49.538 46.9432 50.2172 45.3362 50.5862C43.1983 51.0559 40.9797 51.0678 38.8087 50.8593C36.7672 50.63 34.6427 50.1015 33.0667 48.731C31.7191 47.5781 31.0609 45.7817 31.1262 44.0479C31.1418 43.7551 31.4377 43.5509 31.7224 43.5749C32.5381 43.5684 33.3538 43.5663 34.1695 43.576C34.4953 43.5531 34.7369 43.8305 34.7536 44.1331C34.9041 45.1037 35.2743 46.1224 36.1334 46.6979C37.7912 47.7517 39.8714 47.6795 41.7698 47.709C43.3424 47.6403 45.1079 47.6195 46.3913 46.5953C47.0684 46.0112 47.269 45.0339 47.086 44.1931C46.8878 43.4833 46.1341 43.1525 45.4869 42.9362C42.1655 41.901 38.5603 42.2766 35.271 41.106C33.9357 40.641 32.6444 39.7619 32.1313 38.4102C31.4155 36.4972 31.7435 34.1309 33.2507 32.6655C34.7202 31.2078 36.8415 30.6464 38.8584 30.4455V30.4457Z" fill="#8CC84B"/>
<defs>
<linearGradient id="paint0_linear_8_145" x1="35" y1="-3.82524e-07" x2="35" y2="80" gradientUnits="userSpaceOnUse">
<stop stop-color="#30C69D"/>
<stop offset="1" stop-color="#3C69B4"/>
</linearGradient>
</defs>
</svg>
