<svg width="70" height="80" viewBox="0 0 70 80" fill="none" xmlns="http://www.w3.org/2000/svg">
<path d="M38.2249 3.57043L65.2249 18.999C67.2501 20.1563 68.5 22.31 68.5 24.6426V55.3574C68.5 57.69 67.2501 59.8437 65.2249 61.001L38.2249 76.4296C36.2266 77.5715 33.7734 77.5715 31.7751 76.4296L4.7751 61.001C2.74986 59.8437 1.5 57.69 1.5 55.3574V24.6426C1.5 22.31 2.74986 20.1563 4.7751 18.999L31.7751 3.57043C33.7734 2.42854 36.2266 2.42854 38.2249 3.57043Z" fill="white" stroke="url(#paint0_linear_8_82)" stroke-width="3"/>
<path d="M47.0762 51.3984C47.3946 48.7481 47.2989 48.3613 49.2715 48.7891L49.7735 48.834C51.291 48.9024 53.2754 48.5899 54.461 48.0488C56.9707 46.8848 58.459 44.9395 55.9844 45.4512C50.3399 46.6152 49.9297 44.7031 49.9297 44.7031C55.8926 35.8555 58.3867 24.625 56.2325 21.877C50.3653 14.377 40.2071 17.9238 40.0371 18.0176L39.9825 18.0273C38.8692 17.793 37.6387 17.6563 36.2129 17.6367C33.6582 17.5977 31.7207 18.3066 30.2481 19.4219C30.2481 19.4219 12.1289 11.957 12.9707 28.8106C13.1504 32.3965 18.1075 55.959 24.0254 48.8301C26.1914 46.2246 28.2813 44.0234 28.2813 44.0234C29.3164 44.7129 30.5606 45.0645 31.8633 44.9375L31.9649 44.8516C31.9348 45.1892 31.9486 45.5292 32.0059 45.8633C30.4825 47.5664 30.9317 47.8652 27.8848 48.4922C24.8028 49.127 26.6153 50.2578 27.795 50.5547C29.2286 50.9141 32.545 51.4219 34.7871 48.2852L34.6973 48.6426C35.295 49.1211 35.2539 52.0801 35.3418 54.1934C35.4297 56.3066 35.5684 58.2813 36 59.4434C36.4317 60.6055 36.9375 63.6035 40.9414 62.7637C44.2871 62.0469 46.8457 61.0137 47.0801 51.416" fill="black"/>
<path d="M47.0762 51.3984C47.3946 48.7481 47.2989 48.3613 49.2715 48.7891L49.7735 48.834C51.291 48.9024 53.2754 48.5899 54.461 48.0488C56.9707 46.8848 58.459 44.9395 55.9844 45.4512C50.3399 46.6152 49.9297 44.7031 49.9297 44.7031C55.8926 35.8555 58.3868 24.625 56.2325 21.877C50.3653 14.377 40.2071 17.9238 40.0371 18.0176L39.9825 18.0273C38.8692 17.793 37.6387 17.6563 36.2129 17.6367C33.6582 17.5977 31.7207 18.3066 30.2481 19.4219C30.2481 19.4219 12.1289 11.957 12.9707 28.8106C13.1504 32.3965 18.1075 55.959 24.0254 48.8301C26.1914 46.2246 28.2813 44.0234 28.2813 44.0234C29.3164 44.7129 30.5606 45.0645 31.8633 44.9375L31.9649 44.8516C31.9348 45.1892 31.9486 45.5292 32.0059 45.8633C30.4825 47.5664 30.9317 47.8652 27.8848 48.4922C24.8028 49.127 26.6153 50.2578 27.795 50.5547C29.2286 50.9141 32.545 51.4219 34.7871 48.2852L34.6973 48.6426C35.295 49.1211 35.2539 52.0801 35.3418 54.1934C35.4297 56.3066 35.5684 58.2813 36 59.4434C36.4317 60.6055 36.9375 63.6035 40.9414 62.7637C44.2871 62.0469 46.8457 61.0137 47.0801 51.416" stroke="black" stroke-width="1.39685"/>
<path d="M55.9669 45.4687C50.3224 46.6328 49.9122 44.7207 49.9122 44.7207C55.8751 35.873 58.3692 24.6426 56.2169 21.8945C50.3497 14.3945 40.1915 17.9434 40.0216 18.0351L39.9669 18.0449C38.7262 17.796 37.4647 17.6645 36.1993 17.6523C33.6446 17.6133 31.7071 18.3223 30.2345 19.4375C30.2345 19.4375 12.1134 11.9727 12.9571 28.8262C13.1368 32.4121 18.0939 55.9746 24.0118 48.8457C26.1915 46.2246 28.2813 44.0234 28.2813 44.0234C29.3165 44.7129 30.5606 45.0644 31.8634 44.9375L31.9649 44.8515C31.9351 45.1891 31.9489 45.5292 32.006 45.8633C30.4825 47.5664 30.9317 47.8652 27.8849 48.4922C24.8028 49.1269 26.6153 50.2578 27.795 50.5547C29.2286 50.914 32.545 51.4219 34.7872 48.2851L34.6974 48.6426C35.295 49.1211 35.713 51.7539 35.6427 54.1406C35.5724 56.5273 35.5255 58.164 35.9942 59.4453C36.463 60.7265 36.9317 63.6054 40.9356 62.7656C44.2813 62.0488 46.0138 60.1875 46.2579 57.0898C46.4298 54.8867 46.8165 55.2109 46.8438 53.2422L47.1563 52.3086C47.5138 49.3203 47.2149 48.3574 49.2755 48.8066L49.7774 48.8515C51.295 48.9199 53.2813 48.6074 54.4454 48.0664C56.9552 46.9023 58.4435 44.957 55.9688 45.4687H55.9669Z" fill="#336791"/>
<path d="M40.0197 17.9434C39.3947 18.1387 50.1056 14.0273 56.1955 21.8066C58.3439 24.5547 55.8537 35.7852 49.8908 44.6328M35.0275 47.1621C34.8712 52.7207 35.0666 58.3184 35.6095 59.6621C36.1525 61.0059 37.3185 63.666 41.3244 62.8105C44.6701 62.0938 45.8888 60.7051 46.4162 57.6406L47.6525 47.8418L35.0275 47.1621ZM30.2267 19.2969C30.2267 19.2969 12.0939 11.8828 12.9376 28.7363C13.1173 32.3223 18.0744 55.8848 23.9923 48.7559C26.1525 46.1523 28.1056 44.1152 28.1056 44.1152L30.2267 19.2969Z" stroke="white" stroke-width="0.4654" stroke-linecap="round" stroke-linejoin="round"/>
<path d="M49.8927 44.6289C49.8927 44.6289 50.2834 46.543 55.9474 45.375C58.422 44.8633 56.9318 46.8086 54.424 47.9727C52.3654 48.9297 47.7482 49.1738 47.672 47.8555C47.4767 44.4473 50.1017 45.4824 49.9123 44.6289C49.7404 43.8594 48.5646 43.1055 47.7912 41.2227C47.1134 39.582 38.4943 26.9844 50.1818 28.8535C50.6115 28.7656 47.1349 17.7207 36.1974 17.5606C25.2599 17.4004 25.6056 31.0078 25.6056 31.0078" stroke="white" stroke-width="0.4654" stroke-linecap="round" stroke-linejoin="bevel"/>
<path d="M31.9669 45.7969C30.4435 47.5 30.8927 47.7988 27.8458 48.4258C24.7638 49.0606 26.5763 50.1914 27.756 50.4883C29.1896 50.8477 32.506 51.3555 34.7482 48.2168C35.4317 47.2598 34.7443 45.7363 33.8067 45.3496C33.3536 45.1621 32.7482 44.9277 31.9708 45.7988L31.9669 45.7969Z" stroke="white" stroke-width="0.4654" stroke-linejoin="round"/>
<path d="M31.8674 45.7676C31.7112 44.7656 32.1955 43.5762 32.7131 42.1817C33.4905 40.0918 35.2834 38.002 33.8498 31.3672C32.7815 26.4258 25.6076 30.3379 25.6076 31.0078C25.6076 31.6777 25.9319 34.4063 25.4904 37.5801C24.9104 41.7246 28.1272 45.2285 31.8303 44.8711" stroke="white" stroke-width="0.4654" stroke-linecap="round" stroke-linejoin="round"/>
<path d="M30.1605 30.9082C30.1273 31.1367 30.5804 31.7481 31.1683 31.8301C31.7562 31.9121 32.2581 31.4356 32.2913 31.2051C32.3245 30.9746 31.8714 30.7246 31.2835 30.6426C30.6956 30.5606 30.1898 30.6817 30.1605 30.9082Z" fill="white" stroke="white" stroke-width="0.15535"/>
<path d="M48.059 30.4414C48.0903 30.6699 47.6391 31.2813 47.0512 31.3633C46.4633 31.4453 45.9575 30.9688 45.9282 30.7383C45.8989 30.5078 46.3481 30.2578 46.936 30.1758C47.5239 30.0938 48.0297 30.2148 48.059 30.4414Z" fill="white" stroke="white" stroke-width="0.07735"/>
<path d="M50.1604 28.8574C50.2581 30.6543 49.7737 31.875 49.7112 33.7871C49.6213 36.5644 51.0354 39.7441 48.9045 42.9277" stroke="white" stroke-width="0.4654" stroke-linecap="round" stroke-linejoin="round"/>
<defs>
<linearGradient id="paint0_linear_8_82" x1="35" y1="-3.82524e-07" x2="35" y2="80" gradientUnits="userSpaceOnUse">
<stop stop-color="#30C69D"/>
<stop offset="1" stop-color="#3C69B4"/>
</linearGradient>
</defs>
</svg>
