<svg width="70" height="80" viewBox="0 0 70 80" fill="none" xmlns="http://www.w3.org/2000/svg">
<g clip-path="url(#clip0_8_2)">
<path d="M38.2248 3.57045L65.2248 18.999C67.25 20.1563 68.4999 22.31 68.4999 24.6426V55.3574C68.4999 57.69 67.25 59.8437 65.2248 61.001L38.2248 76.4296C36.2265 77.5715 33.7733 77.5715 31.775 76.4296L4.77504 61.001C2.7498 59.8437 1.49994 57.69 1.49994 55.3574V24.6426C1.49994 22.31 2.7498 20.1563 4.77504 18.999L31.775 3.57045C33.7733 2.42856 36.2265 2.42856 38.2248 3.57045Z" fill="white" stroke="url(#paint0_linear_8_2)" stroke-width="3"/>
<path d="M35.0816 20C24.8116 20 25.4529 24.4438 25.4529 24.4438L25.4643 29.0476H35.2647V30.4299H21.5717C21.5717 30.4299 14.9999 29.6862 14.9999 40.0255C14.9999 50.3651 20.7359 49.9984 20.7359 49.9984H24.1591V45.2004C24.1591 45.2004 23.9746 39.4772 29.8036 39.4772H39.5239C39.5239 39.4772 44.985 39.5652 44.985 34.2109V25.3578C44.985 25.3578 45.8145 20 35.0816 20ZM29.6776 23.096C29.9092 23.0958 30.1386 23.1412 30.3526 23.2295C30.5666 23.3178 30.761 23.4474 30.9248 23.6108C31.0886 23.7742 31.2184 23.9682 31.3069 24.1817C31.3955 24.3953 31.4409 24.6241 31.4407 24.8552C31.4409 25.0863 31.3955 25.3151 31.3069 25.5286C31.2184 25.7422 31.0886 25.9362 30.9248 26.0996C30.761 26.263 30.5666 26.3925 30.3526 26.4809C30.1386 26.5692 29.9092 26.6146 29.6776 26.6144C29.446 26.6146 29.2167 26.5692 29.0027 26.4809C28.7887 26.3925 28.5942 26.263 28.4305 26.0996C28.2667 25.9362 28.1368 25.7422 28.0483 25.5286C27.9598 25.3151 27.9143 25.0863 27.9145 24.8552C27.9143 24.6241 27.9598 24.3953 28.0483 24.1817C28.1368 23.9682 28.2667 23.7742 28.4305 23.6108C28.5942 23.4474 28.7887 23.3178 29.0027 23.2295C29.2167 23.1412 29.446 23.0958 29.6776 23.096Z" fill="url(#paint1_linear_8_2)"/>
<path d="M34.9184 60C45.1883 60 44.5471 55.5562 44.5471 55.5562L44.5357 50.9525H34.7351V49.5703H48.4281C48.4281 49.5703 54.9999 50.314 54.9999 39.9744C54.9999 29.6349 49.2639 30.0016 49.2639 30.0016H45.8407V34.7994C45.8407 34.7994 46.0252 40.5227 40.1962 40.5227H30.4759C30.4759 40.5227 25.0148 40.4346 25.0148 45.7891V54.6423C25.0148 54.6423 24.1855 60 34.9182 60H34.9184ZM40.3223 56.9043C40.0907 56.9045 39.8614 56.8591 39.6474 56.7708C39.4334 56.6825 39.2389 56.5529 39.0752 56.3895C38.9114 56.2261 38.7815 56.0321 38.693 55.8186C38.6045 55.6051 38.559 55.3762 38.5592 55.1451C38.559 54.914 38.6044 54.6852 38.693 54.4716C38.7815 54.2581 38.9113 54.064 39.0751 53.9006C39.2389 53.7372 39.4333 53.6076 39.6473 53.5193C39.8613 53.431 40.0907 53.3856 40.3223 53.3858C40.5539 53.3856 40.7833 53.4309 40.9973 53.5193C41.2113 53.6076 41.4057 53.7372 41.5695 53.9006C41.7332 54.064 41.8631 54.258 41.9516 54.4715C42.0402 54.685 42.0856 54.9139 42.0854 55.145C42.0856 55.376 42.0402 55.6049 41.9516 55.8184C41.8631 56.0319 41.7332 56.226 41.5695 56.3894C41.4057 56.5527 41.2113 56.6823 40.9973 56.7707C40.7833 56.859 40.5539 56.9043 40.3223 56.9041V56.9043Z" fill="url(#paint2_linear_8_2)"/>
</g>
<defs>
<linearGradient id="paint0_linear_8_2" x1="34.9999" y1="2.25057e-05" x2="34.9999" y2="80" gradientUnits="userSpaceOnUse">
<stop stop-color="#30C69D"/>
<stop offset="1" stop-color="#3C69B4"/>
</linearGradient>
<linearGradient id="paint1_linear_8_2" x1="18.8876" y1="23.6117" x2="38.8916" y2="43.4603" gradientUnits="userSpaceOnUse">
<stop stop-color="#387EB8"/>
<stop offset="1" stop-color="#366994"/>
</linearGradient>
<linearGradient id="paint2_linear_8_2" x1="30.7383" y1="36.1737" x2="52.2225" y2="56.5287" gradientUnits="userSpaceOnUse">
<stop stop-color="#FFE052"/>
<stop offset="1" stop-color="#FFC331"/>
</linearGradient>
<clipPath id="clip0_8_2">
<rect width="70" height="80" fill="white"/>
</clipPath>
</defs>
</svg>
