<svg width="70" height="80" viewBox="0 0 70 80" fill="none" xmlns="http://www.w3.org/2000/svg">
<g clip-path="url(#clip0_8_30)">
<path d="M38.2248 3.57045L65.2248 18.999C67.25 20.1563 68.4999 22.31 68.4999 24.6426V55.3574C68.4999 57.69 67.25 59.8437 65.2248 61.001L38.2248 76.4296C36.2265 77.5715 33.7733 77.5715 31.775 76.4296L4.77504 61.001C2.7498 59.8437 1.49994 57.69 1.49994 55.3574V24.6426C1.49994 22.31 2.7498 20.1563 4.77504 18.999L31.775 3.57045C33.7733 2.42856 36.2265 2.42856 38.2248 3.57045Z" fill="white" stroke="url(#paint0_linear_8_30)" stroke-width="3"/>
<g clip-path="url(#clip1_8_30)">
<path d="M48.3217 30.8116L44.9094 34.2239C50.5965 39.911 50.5965 49.1729 44.9094 54.86C39.2223 60.5471 29.9604 60.5471 24.2733 54.86C18.5861 49.1729 18.5861 39.911 24.2733 34.2239L33.3727 25.1245L34.5101 23.8246V17L20.6985 30.8116C18.8837 32.6081 17.443 34.7466 16.4598 37.1033C15.4766 39.4601 14.9704 41.9883 14.9704 44.542C14.9704 47.0956 15.4766 49.6238 16.4598 51.9806C17.443 54.3373 18.8837 56.4758 20.6985 58.2723C22.495 60.0871 24.6335 61.5278 26.9902 62.511C29.3469 63.4942 31.8752 64.0004 34.4288 64.0004C36.9825 64.0004 39.5107 63.4942 41.8675 62.511C44.2242 61.5278 46.3627 60.0871 48.1592 58.2723C55.9587 50.6353 55.9587 38.2861 48.3217 30.8116Z" fill="#EE4C2C"/>
<path d="M41.4971 29.8367C42.9329 29.8367 44.0969 28.6727 44.0969 27.2368C44.0969 25.801 42.9329 24.637 41.4971 24.637C40.0613 24.637 38.8973 25.801 38.8973 27.2368C38.8973 28.6727 40.0613 29.8367 41.4971 29.8367Z" fill="#EE4C2C"/>
</g>
</g>
<defs>
<linearGradient id="paint0_linear_8_30" x1="34.9999" y1="2.25057e-05" x2="34.9999" y2="80" gradientUnits="userSpaceOnUse">
<stop stop-color="#30C69D"/>
<stop offset="1" stop-color="#3C69B4"/>
</linearGradient>
<clipPath id="clip0_8_30">
<rect width="70" height="80" fill="white"/>
</clipPath>
<clipPath id="clip1_8_30">
<rect width="47" height="47" fill="white" transform="translate(11 17)"/>
</clipPath>
</defs>
</svg>
