<svg width="70" height="80" viewBox="0 0 70 80" fill="none" xmlns="http://www.w3.org/2000/svg">
<g clip-path="url(#clip0_8_25)">
<path d="M38.2248 3.57045L65.2248 18.999C67.25 20.1563 68.4999 22.31 68.4999 24.6426V55.3574C68.4999 57.69 67.25 59.8437 65.2248 61.001L38.2248 76.4296C36.2265 77.5715 33.7733 77.5715 31.775 76.4296L4.77504 61.001C2.7498 59.8437 1.49994 57.69 1.49994 55.3574V24.6426C1.49994 22.31 2.7498 20.1563 4.77504 18.999L31.775 3.57045C33.7733 2.42856 36.2265 2.42856 38.2248 3.57045Z" fill="white" stroke="url(#paint0_linear_8_25)" stroke-width="3"/>
<g clip-path="url(#clip1_8_25)">
<path d="M38.4166 49.5198C28.625 49.5198 20.3034 44.5975 20.3034 38.701C20.3034 32.8045 27.6459 27.8994 37.4375 27.8994C49.8038 27.8994 55.5347 32.6739 55.5347 38.5704C55.5347 44.4668 49.2178 49.5198 38.4166 49.5198ZM34.5 22.0029C21.7709 22.0029 11 28.8821 11 37.7268C11 46.0803 21.7057 53.0151 34.435 53.0151C47.1641 53.0151 58 46.5715 58 37.7268C58 28.8821 47.2291 22.0029 34.5 22.0029Z" fill="url(#paint1_linear_8_25)"/>
<path d="M30.451 31.5525V57.5539H38.28V47.4424C40.2373 47.4424 41.4031 47.0134 42.6837 49.3683C44.641 52.7389 47.0876 57.5539 47.0876 57.5539H56.3844C56.3844 57.5539 50.5127 47.9239 50.0234 47.4424C49.121 46.4792 48.0661 46.4792 46.5983 45.9977C49.5341 45.5163 52.2711 44.2937 53.2227 41.6742C54.0546 39.2667 53.9567 36.2042 52.1737 34.1506C50.6294 32.5256 49.0448 31.5525 45.1303 31.5525H30.451ZM38.28 36.9677H43.4177C44.636 36.9677 45.6195 38.1715 45.6195 39.3751C45.6195 40.5789 44.641 41.7827 43.4177 41.7827H38.28V36.9677Z" fill="#2165B6"/>
</g>
</g>
<defs>
<linearGradient id="paint0_linear_8_25" x1="34.9999" y1="2.25057e-05" x2="34.9999" y2="80" gradientUnits="userSpaceOnUse">
<stop stop-color="#30C69D"/>
<stop offset="1" stop-color="#3C69B4"/>
</linearGradient>
<linearGradient id="paint1_linear_8_25" x1="28.8473" y1="27.2747" x2="43.3749" y2="51.8515" gradientUnits="userSpaceOnUse">
<stop stop-color="#C9CBCE"/>
<stop offset="1" stop-color="#7B7A81"/>
</linearGradient>
<clipPath id="clip0_8_25">
<rect width="70" height="80" fill="white"/>
</clipPath>
<clipPath id="clip1_8_25">
<rect width="47" height="35.5676" fill="white" transform="translate(11 22)"/>
</clipPath>
</defs>
</svg>
