<svg width="70" height="80" viewBox="0 0 70 80" fill="none" xmlns="http://www.w3.org/2000/svg">
<path d="M38.2249 3.57043L65.2249 18.999C67.2501 20.1563 68.5 22.31 68.5 24.6426V55.3574C68.5 57.69 67.2501 59.8437 65.2249 61.001L38.2249 76.4296C36.2266 77.5715 33.7734 77.5715 31.7751 76.4296L4.7751 61.001C2.74986 59.8437 1.5 57.69 1.5 55.3574V24.6426C1.5 22.31 2.74986 20.1563 4.7751 18.999L31.7751 3.57043C33.7734 2.42854 36.2266 2.42854 38.2249 3.57043Z" fill="white" stroke="url(#paint0_linear_8_158)" stroke-width="3"/>
<path d="M60 40.036C60 36.6605 55.7691 33.4615 49.2823 31.4777C50.7793 24.8721 50.1139 19.6167 47.1824 17.9341C46.5067 17.5394 45.7167 17.3525 44.8539 17.3525V19.6686C45.332 19.6686 45.7167 19.7621 46.0389 19.9386C47.4527 20.7488 48.066 23.8335 47.5879 27.801C47.4735 28.7773 47.2864 29.8056 47.0577 30.8546C45.0202 30.356 42.7956 29.9717 40.4566 29.7225C39.0532 27.801 37.5978 26.0561 36.1321 24.5294C39.521 21.3823 42.702 19.6582 44.8643 19.6582V17.3421C42.0055 17.3421 38.2631 19.3778 34.4792 22.9091C30.6953 19.3986 26.9529 17.3836 24.0942 17.3836V19.6998C26.246 19.6998 29.4374 21.4135 32.8263 24.5397C31.371 26.0665 29.9156 27.801 28.533 29.7225C26.1837 29.9717 23.959 30.356 21.9215 30.8649C21.6824 29.8263 21.5057 28.8189 21.381 27.8529C20.8924 23.8854 21.4953 20.8007 22.8987 19.9802C23.2106 19.7932 23.616 19.7101 24.0942 19.7101V17.394C23.221 17.394 22.4309 17.581 21.7448 17.9756C18.8237 19.6582 18.1688 24.9033 19.6761 31.4881C13.2102 33.4823 9 36.6708 9 40.036C9 43.4115 13.2309 46.6105 19.7177 48.5942C18.2207 55.1999 18.8861 60.4553 21.8176 62.1379C22.4933 62.5325 23.2833 62.7195 24.1565 62.7195C27.0153 62.7195 30.7576 60.6838 34.5416 57.1525C38.3255 60.663 42.0679 62.6779 44.9266 62.6779C45.7998 62.6779 46.5899 62.491 47.276 62.0963C50.1971 60.4138 50.852 55.1687 49.3447 48.5838C55.7898 46.6001 60 43.4011 60 40.036ZM46.4651 33.1084C46.0805 34.4482 45.6023 35.8296 45.0618 37.2109C44.6355 36.38 44.1885 35.5491 43.7 34.7182C43.2218 33.8873 42.7124 33.0772 42.203 32.2879C43.6792 32.506 45.1033 32.776 46.4651 33.1084ZM41.704 44.1697C40.8932 45.5718 40.0616 46.9013 39.1987 48.1372C37.6498 48.2723 36.0801 48.345 34.5 48.345C32.9303 48.345 31.3606 48.2723 29.8221 48.1476C28.9592 46.9117 28.1172 45.5926 27.3064 44.2009C26.5163 42.8403 25.799 41.4589 25.1441 40.0671C25.7886 38.6754 26.5163 37.2836 27.296 35.923C28.1068 34.5209 28.9384 33.1915 29.8013 31.9555C31.3502 31.8205 32.9199 31.7478 34.5 31.7478C36.0697 31.7478 37.6394 31.8205 39.1779 31.9451C40.0408 33.1811 40.8828 34.5001 41.6936 35.8919C42.4837 37.2525 43.201 38.6338 43.8559 40.0256C43.201 41.4174 42.4837 42.8091 41.704 44.1697ZM45.0618 42.8195C45.6231 44.2112 46.1013 45.603 46.4963 46.9532C45.1345 47.2856 43.7 47.566 42.2134 47.7841C42.7228 46.9844 43.2322 46.1639 43.7104 45.3226C44.1885 44.4917 44.6355 43.6504 45.0618 42.8195ZM34.5208 53.9016C33.554 52.9045 32.5872 51.7932 31.6309 50.578C32.5665 50.6195 33.5228 50.6507 34.4896 50.6507C35.4668 50.6507 36.4336 50.6299 37.3795 50.578C36.4439 51.7932 35.4772 52.9045 34.5208 53.9016ZM26.7866 47.7841C25.3104 47.566 23.8863 47.296 22.5245 46.9636C22.9091 45.6238 23.3873 44.2424 23.9278 42.861C24.3541 43.6919 24.8011 44.5228 25.2896 45.3537C25.7782 46.1846 26.2772 46.9948 26.7866 47.7841ZM34.4688 26.1704C35.4356 27.1675 36.4024 28.2788 37.3587 29.494C36.4232 29.4524 35.4668 29.4213 34.5 29.4213C33.5228 29.4213 32.5561 29.442 31.6101 29.494C32.5457 28.2788 33.5124 27.1675 34.4688 26.1704ZM26.7762 32.2879C26.2668 33.0876 25.7574 33.9081 25.2792 34.7494C24.8011 35.5803 24.3541 36.4112 23.9278 37.2421C23.3665 35.8503 22.8883 34.4586 22.4933 33.1084C23.8551 32.7864 25.2896 32.506 26.7762 32.2879ZM17.3683 45.2914C13.6883 43.7231 11.3078 41.6666 11.3078 40.036C11.3078 38.4053 13.6883 36.3385 17.3683 34.7806C18.2623 34.3963 19.2395 34.0535 20.2479 33.7315C20.8404 35.7672 21.6201 37.886 22.5868 40.0568C21.6305 42.2171 20.8612 44.3255 20.279 46.3508C19.2499 46.0288 18.2727 45.6757 17.3683 45.2914ZM22.9611 60.1333C21.5473 59.3232 20.934 56.2385 21.4121 52.271C21.5265 51.2946 21.7136 50.2664 21.9423 49.2174C23.9798 49.7159 26.2044 50.1002 28.5434 50.3495C29.9468 52.271 31.4022 54.0158 32.8679 55.5426C29.479 58.6896 26.298 60.4138 24.1358 60.4138C23.668 60.4034 23.2729 60.3099 22.9611 60.1333ZM47.619 52.219C48.1076 56.1866 47.5047 59.2713 46.1013 60.0918C45.7894 60.2787 45.384 60.3618 44.9058 60.3618C42.754 60.3618 39.5626 58.6481 36.1737 55.5218C37.629 53.9951 39.0844 52.2606 40.467 50.3391C42.8163 50.0898 45.041 49.7056 47.0785 49.1966C47.3176 50.2456 47.5047 51.2531 47.619 52.219ZM51.6213 45.2914C50.7273 45.6757 49.7501 46.0184 48.7417 46.3404C48.1492 44.3047 47.3695 42.1859 46.4028 40.0152C47.3592 37.8549 48.1284 35.7465 48.7106 33.7212C49.7397 34.0431 50.7169 34.3963 51.6317 34.7806C55.3117 36.3489 57.6922 38.4053 57.6922 40.036C57.6818 41.6666 55.3013 43.7335 51.6213 45.2914Z" fill="#61DAFB"/>
<path d="M34.4896 44.7825C37.1134 44.7825 39.2403 42.6574 39.2403 40.036C39.2403 37.4146 37.1134 35.2895 34.4896 35.2895C31.8659 35.2895 29.7389 37.4146 29.7389 40.036C29.7389 42.6574 31.8659 44.7825 34.4896 44.7825Z" fill="#61DAFB"/>
<defs>
<linearGradient id="paint0_linear_8_158" x1="35" y1="-3.82524e-07" x2="35" y2="80" gradientUnits="userSpaceOnUse">
<stop stop-color="#30C69D"/>
<stop offset="1" stop-color="#3C69B4"/>
</linearGradient>
</defs>
</svg>
