<svg width="70" height="80" viewBox="0 0 70 80" fill="none" xmlns="http://www.w3.org/2000/svg">
<path d="M38.2249 3.57043L65.2249 18.999C67.2501 20.1563 68.5 22.31 68.5 24.6426V55.3574C68.5 57.69 67.2501 59.8437 65.2249 61.001L38.2249 76.4296C36.2266 77.5715 33.7734 77.5715 31.7751 76.4296L4.7751 61.001C2.74986 59.8437 1.5 57.69 1.5 55.3574V24.6426C1.5 22.31 2.74986 20.1563 4.7751 18.999L31.7751 3.57043C33.7734 2.42854 36.2266 2.42854 38.2249 3.57043Z" fill="white" stroke="url(#paint0_linear_8_139)" stroke-width="3"/>
<g clip-path="url(#clip0_8_139)">
<path d="M57.6789 39.9226L55.7058 38.7012C55.6892 38.5094 55.6704 38.3178 55.6496 38.1265L57.3453 36.5448C57.4301 36.4661 57.4933 36.3669 57.5288 36.2567C57.5643 36.1466 57.571 36.0291 57.5482 35.9157C57.5259 35.8021 57.4749 35.6962 57.4 35.608C57.3251 35.5198 57.2288 35.4523 57.1204 35.4119L54.9527 34.6013C54.8983 34.4141 54.8417 34.2276 54.7829 34.0417L56.1351 32.1637C56.2028 32.0699 56.2454 31.9602 56.2588 31.8452C56.2722 31.7303 56.256 31.6138 56.2118 31.5068C56.1675 31.3998 56.0966 31.306 56.0058 31.2341C55.915 31.1623 55.8074 31.1149 55.6931 31.0963L53.4074 30.7246C53.3185 30.5512 53.226 30.3805 53.1327 30.2112L54.0931 28.103C54.1415 27.9978 54.162 27.882 54.1527 27.7666C54.1435 27.6512 54.1048 27.5401 54.0403 27.4439C53.9763 27.3475 53.8885 27.2691 53.7855 27.2163C53.6825 27.1635 53.5677 27.1381 53.452 27.1425L51.1321 27.2232C51.0123 27.0732 50.8901 26.925 50.7657 26.7788L51.2988 24.5191C51.3255 24.4064 51.3229 24.2887 51.2912 24.1773C51.2595 24.066 51.1998 23.9645 51.1178 23.8827C51.036 23.8009 50.9347 23.7413 50.8233 23.7096C50.712 23.6779 50.5945 23.6752 50.4818 23.7017L48.2227 24.2343C48.0761 24.11 47.9276 23.9878 47.7773 23.8679L47.8585 21.5482C47.8628 21.4325 47.8374 21.3177 47.7847 21.2147C47.732 21.1117 47.6537 21.0239 47.5574 20.9598C47.4612 20.8954 47.3501 20.8567 47.2348 20.8473C47.1194 20.838 47.0035 20.8584 46.8983 20.9065L44.7906 21.8674C44.6206 21.7736 44.4495 21.6818 44.2773 21.592L43.9046 19.3059C43.8859 19.1918 43.8384 19.0843 43.7666 18.9936C43.6948 18.903 43.601 18.8322 43.4941 18.7879C43.3872 18.7436 43.2708 18.7274 43.1559 18.7407C43.041 18.754 42.9314 18.7965 42.8375 18.864L40.9583 20.2162C40.7734 20.1574 40.5874 20.1007 40.3998 20.0469L39.5892 17.8789C39.5489 17.7702 39.4814 17.6738 39.3932 17.5987C39.3049 17.5236 39.1989 17.4724 39.0853 17.45C38.9719 17.4277 38.8546 17.4346 38.7447 17.4701C38.6347 17.5057 38.5355 17.5686 38.4566 17.653L36.875 19.35C36.6837 19.3286 36.4921 19.3098 36.3003 19.2938L35.0789 17.3202C35.018 17.2218 34.933 17.1407 34.832 17.0844C34.731 17.0281 34.6172 16.9986 34.5016 16.9986C34.3859 16.9986 34.2722 17.0281 34.1711 17.0844C34.0701 17.1407 33.9851 17.2218 33.9242 17.3202L32.7028 19.2938C32.5108 19.3098 32.3191 19.3285 32.1276 19.35L30.5456 17.653C30.4667 17.5683 30.3675 17.5051 30.2574 17.4696C30.1472 17.434 30.0298 17.4272 29.9163 17.4498C29.8027 17.4725 29.6969 17.5238 29.6088 17.5989C29.5207 17.674 29.4533 17.7704 29.413 17.8789L28.6026 20.0469C28.4148 20.1007 28.229 20.1578 28.0436 20.2162L26.1647 18.864C26.0708 18.7962 25.9611 18.7535 25.8461 18.7402C25.731 18.7269 25.6145 18.7433 25.5076 18.7878C25.4008 18.8322 25.3071 18.903 25.2353 18.9937C25.1635 19.0844 25.116 19.1918 25.0972 19.3059L24.7246 21.592C24.552 21.6815 24.3814 21.7734 24.2112 21.8674L22.1034 20.9063C21.9982 20.8582 21.8824 20.8378 21.767 20.8472C21.6517 20.8565 21.5407 20.8953 21.4446 20.9598C21.3482 21.0238 21.2699 21.1116 21.2171 21.2146C21.1643 21.3176 21.1389 21.4325 21.1432 21.5482L21.224 23.8679C21.0739 23.988 20.9254 24.1102 20.7786 24.2343L18.5194 23.7019C18.4068 23.6755 18.2892 23.6782 18.1779 23.7099C18.0665 23.7415 17.9651 23.801 17.8831 23.8827C17.8011 23.9645 17.7414 24.066 17.7097 24.1773C17.6781 24.2887 17.6754 24.4064 17.7021 24.5191L18.2343 26.7788C18.1108 26.9251 17.9887 27.0732 17.8688 27.2232L15.5489 27.1425C15.4334 27.1388 15.3188 27.1645 15.2159 27.2172C15.113 27.2699 15.0252 27.3479 14.9607 27.4437C14.8963 27.5399 14.8576 27.651 14.8482 27.7663C14.8389 27.8817 14.8592 27.9975 14.9072 28.1028L15.8682 30.2112C15.7747 30.3805 15.6824 30.5512 15.5928 30.7246L13.3072 31.0963C13.193 31.115 13.0854 31.1624 12.9947 31.2343C12.904 31.3062 12.8332 31.4 12.7889 31.5069C12.7446 31.6139 12.7284 31.7303 12.7418 31.8453C12.7552 31.9602 12.7977 32.0698 12.8653 32.1637L14.2175 34.0419C14.1587 34.2273 14.1016 34.4135 14.0477 34.6013L11.8798 35.4119C11.7715 35.4526 11.6754 35.5202 11.6006 35.6084C11.5258 35.6965 11.4747 35.8024 11.4521 35.9158C11.4296 36.0292 11.4364 36.1465 11.4719 36.2566C11.5074 36.3667 11.5704 36.4659 11.6549 36.5448L13.3507 38.1263C13.3296 38.3173 13.3109 38.5095 13.2947 38.7012L11.3213 39.9226C11.223 39.9835 11.1418 40.0685 11.0856 40.1695C11.0294 40.2706 10.9999 40.3844 11 40.5C11 40.7357 11.1217 40.954 11.3215 41.077L13.2947 42.2985C13.3109 42.4907 13.3296 42.6826 13.3507 42.8733L11.6547 44.4553C11.57 44.5342 11.5069 44.6334 11.4714 44.7435C11.4358 44.8536 11.429 44.9709 11.4515 45.0844C11.4741 45.1979 11.5252 45.3037 11.6002 45.3918C11.6752 45.48 11.7714 45.5475 11.8798 45.5879L14.0477 46.3985C14.1016 46.5861 14.1587 46.7725 14.2175 46.9579L12.8653 48.8363C12.7976 48.9301 12.755 49.0398 12.7415 49.1548C12.7281 49.2698 12.7444 49.3863 12.7887 49.4933C12.8331 49.6002 12.9041 49.694 12.9949 49.7658C13.0858 49.8376 13.1935 49.8849 13.3078 49.9033L15.593 50.2751C15.6824 50.4484 15.774 50.6191 15.8684 50.7892L14.9072 52.8968C14.8591 53.0021 14.8388 53.1179 14.8481 53.2333C14.8575 53.3487 14.8962 53.4598 14.9607 53.5559C15.0248 53.6522 15.1125 53.7305 15.2155 53.7833C15.3185 53.836 15.4333 53.8615 15.5489 53.8572L17.8677 53.776C17.9887 53.9268 18.1104 54.0746 18.2343 54.2214L17.7021 56.4815C17.6754 56.594 17.6781 56.7114 17.7098 56.8226C17.7415 56.9338 17.8012 57.035 17.8831 57.1165C17.9648 57.1986 18.0663 57.2583 18.1777 57.2899C18.2891 57.3215 18.4068 57.3239 18.5194 57.297L20.7786 56.7649C20.9254 56.8898 21.0742 57.011 21.2242 57.1303L21.1434 59.4507C21.1392 59.5664 21.1647 59.6811 21.2174 59.7841C21.2701 59.8871 21.3483 59.9749 21.4445 60.0392C21.5407 60.1034 21.6518 60.142 21.7671 60.1512C21.8824 60.1604 21.9982 60.14 22.1034 60.0918L24.2112 59.1315C24.3809 59.2258 24.5521 59.3175 24.7246 59.4067L25.0972 61.6915C25.1157 61.8058 25.163 61.9135 25.2349 62.0043C25.3067 62.0951 25.4006 62.1659 25.5076 62.2102C25.6145 62.2544 25.731 62.2707 25.846 62.2575C25.9609 62.2442 26.0706 62.2018 26.1647 62.1343L28.0426 60.7812C28.2281 60.84 28.4144 60.8975 28.6021 60.9514L29.4126 63.1186C29.453 63.227 29.5205 63.3233 29.6087 63.3983C29.6969 63.4732 29.8028 63.5242 29.9164 63.5465C30.0298 63.5694 30.1472 63.5628 30.2573 63.5272C30.3675 63.4916 30.4666 63.4284 30.5452 63.3435L32.1272 61.6474C32.3182 61.6695 32.5102 61.6878 32.7024 61.7049L33.9239 63.6782C33.9848 63.7764 34.0698 63.8574 34.1708 63.9136C34.2717 63.9698 34.3854 63.9994 34.5009 63.9995C34.6165 63.9994 34.7302 63.9699 34.8313 63.9137C34.9323 63.8575 35.0173 63.7764 35.0783 63.6782L36.2998 61.7049C36.492 61.6878 36.6838 61.6695 36.8746 61.6474L38.4563 63.3435C38.5349 63.4283 38.634 63.4915 38.7441 63.5271C38.8541 63.5626 38.9715 63.5693 39.0849 63.5465C39.1984 63.5242 39.3043 63.4731 39.3925 63.3982C39.4807 63.3232 39.5482 63.227 39.5887 63.1186L40.3992 60.9514C40.5869 60.8975 40.7734 60.84 40.9588 60.7812L42.8372 62.1343C42.9311 62.2019 43.0408 62.2443 43.1558 62.2576C43.2707 62.2709 43.3872 62.2545 43.4941 62.2102C43.6009 62.1658 43.6947 62.0949 43.7665 62.0041C43.8383 61.9133 43.8857 61.8057 43.9042 61.6915L44.2769 59.4067C44.4493 59.3173 44.6199 59.2244 44.7901 59.1313L46.8979 60.0918C47.0031 60.1402 47.1189 60.1607 47.2343 60.1516C47.3497 60.1424 47.4609 60.1038 47.5571 60.0396C47.6534 59.9753 47.7316 59.8874 47.7843 59.7843C47.837 59.6813 47.8624 59.5664 47.8581 59.4507L47.7773 57.1305C47.9275 57.011 48.0758 56.8891 48.2222 56.7649L50.4815 57.297C50.711 57.351 50.9515 57.2841 51.1173 57.1165C51.1992 57.035 51.2589 56.9338 51.2906 56.8226C51.3223 56.7114 51.3249 56.594 51.2983 56.4815L50.7662 54.2214C50.8901 54.0746 51.0122 53.9268 51.1316 53.776L53.4515 53.8572C53.5671 53.8616 53.6819 53.8362 53.7849 53.7834C53.8879 53.7307 53.9756 53.6524 54.0397 53.5561C54.1043 53.4599 54.143 53.3488 54.1523 53.2333C54.1616 53.1178 54.1411 53.0019 54.0928 52.8966L53.1322 50.7893C53.226 50.6191 53.3182 50.4484 53.407 50.2753L55.6928 49.9033C55.8071 49.885 55.9147 49.8376 56.0054 49.7657C56.0961 49.6938 56.1669 49.5999 56.2109 49.4928C56.2552 49.3859 56.2715 49.2695 56.2581 49.1546C56.2448 49.0397 56.2023 48.9301 56.1347 48.8363L54.7825 46.9581C54.8409 46.7725 54.898 46.5861 54.9523 46.3985L57.1199 45.5879C57.2283 45.5476 57.3247 45.4801 57.3996 45.3918C57.4745 45.3036 57.5256 45.1976 57.5478 45.084C57.5707 44.9706 57.564 44.8532 57.5284 44.7431C57.4929 44.633 57.4296 44.534 57.3448 44.4553L55.6493 42.8733C55.6698 42.6824 55.6887 42.4903 55.7053 42.2987L57.6785 41.077C57.7769 41.0163 57.8581 40.9314 57.9144 40.8304C57.9706 40.7294 58.0001 40.6156 58 40.5C58 40.2648 57.8788 40.0462 57.6789 39.9226ZM44.4726 56.2911C43.7192 56.1286 43.24 55.386 43.4017 54.6301C43.5629 53.8752 44.305 53.3947 45.0583 53.5572C45.8118 53.7186 46.2917 54.4625 46.1301 55.2169C45.9686 55.9715 45.2257 56.4525 44.4726 56.2911ZM43.8021 51.7565C43.6386 51.7214 43.4698 51.719 43.3054 51.7492C43.1409 51.7794 42.984 51.8418 42.8437 51.9327C42.7034 52.0236 42.5823 52.1413 42.4875 52.2791C42.3927 52.4168 42.326 52.5719 42.2912 52.7354L41.5906 56.0047C39.4288 56.9858 37.0283 57.5309 34.5 57.5309C31.9139 57.5309 29.4611 56.9588 27.2609 55.9358L26.5607 52.6668C26.4134 51.9788 25.7371 51.5406 25.0501 51.6882L22.164 52.308C21.6276 51.756 21.129 51.1683 20.6717 50.5492H34.7148C34.8736 50.5492 34.9795 50.5204 34.9795 50.3757V45.4082C34.9795 45.2637 34.8736 45.2349 34.7146 45.2349H30.6078V42.0863H35.0499C35.4552 42.0863 37.2179 42.2019 37.7814 44.455C37.958 45.1479 38.3454 47.4017 38.6105 48.1232C38.8745 48.9325 39.9494 50.549 41.0951 50.549H48.0927C48.1722 50.549 48.257 50.54 48.3465 50.5239C47.8609 51.1832 47.3291 51.8072 46.7549 52.391L43.8023 51.7565H43.8021ZM24.3798 56.2228C23.6261 56.3855 22.8842 55.905 22.7221 55.1501C22.5609 54.3938 23.0401 53.6516 23.7935 53.4891C24.5472 53.3279 25.2895 53.8083 25.451 54.5631C25.6122 55.3177 25.1327 56.0612 24.3796 56.2228H24.3798ZM19.0524 34.6211C19.3651 35.3265 19.0469 36.1532 18.3425 36.4653C17.638 36.7784 16.8135 36.4598 16.501 35.7539C16.1884 35.048 16.5063 34.2227 17.211 33.9097C17.3786 33.8354 17.5592 33.7948 17.7425 33.7903C17.9257 33.7859 18.1081 33.8176 18.2791 33.8836C18.4502 33.9497 18.6065 34.0488 18.7392 34.1753C18.8719 34.3018 18.9783 34.4533 19.0524 34.621V34.6211ZM17.4151 38.5023L20.4217 37.1663C20.7303 37.029 20.9718 36.7748 21.0931 36.4595C21.2144 36.1443 21.2056 35.7937 21.0686 35.485L20.4496 34.0849H22.8848V45.0616H17.9716C17.5361 43.5284 17.3158 41.9422 17.3169 40.3484C17.3169 39.7245 17.3505 39.108 17.4151 38.5021V38.5023ZM30.6085 37.4362V34.2007H36.4075C36.7072 34.2007 38.5225 34.547 38.5225 35.9045C38.5225 37.0315 37.1302 37.4356 35.9851 37.4356H30.6085V37.4362ZM51.6836 40.3484C51.6836 40.7776 51.6679 41.2024 51.6365 41.624H49.8734C49.697 41.624 49.6259 41.74 49.6259 41.9128V42.7224C49.6259 44.6281 48.5513 45.0427 47.6097 45.1482C46.713 45.2492 45.7187 44.7728 45.5962 44.224C45.0671 41.2487 44.1857 40.6133 42.7937 39.5152C44.5213 38.4182 46.3187 36.7999 46.3187 34.6334C46.3187 32.2945 44.7152 30.8211 43.622 30.0987C42.0887 29.0878 40.3908 28.8851 39.9327 28.8851H21.6997C24.1721 26.1257 27.5231 24.171 31.313 23.4597L33.4621 25.7143C33.5774 25.8353 33.7155 25.9324 33.8684 26C34.0212 26.0676 34.1859 26.1044 34.3531 26.1082C34.5202 26.1121 34.6864 26.0829 34.8422 26.0224C34.9981 25.962 35.1404 25.8713 35.2612 25.7558L37.6659 23.4557C42.7046 24.3939 46.9708 27.5304 49.4293 31.8336L47.783 35.552C47.4988 36.1955 47.7889 36.948 48.4305 37.2331L51.6001 38.6409C51.6548 39.2036 51.6836 39.7721 51.6836 40.3484ZM33.4631 21.5417C34.0199 21.0084 34.9032 21.0295 35.4363 21.5871C35.9684 22.1463 35.9482 23.0305 35.3901 23.5635C34.8332 24.097 33.95 24.0763 33.4168 23.5176C33.1613 23.2492 33.0227 22.8905 33.0314 22.5201C33.0401 22.1497 33.1953 21.7978 33.4631 21.5417ZM49.7998 34.6889C49.8739 34.5212 49.9803 34.3698 50.1129 34.2433C50.2456 34.1168 50.4019 34.0177 50.5729 33.9517C50.7439 33.8856 50.9263 33.854 51.1095 33.8585C51.2928 33.863 51.4733 33.9036 51.6409 33.978C52.3455 34.2905 52.6635 35.1168 52.3508 35.8222C52.2768 35.99 52.1704 36.1415 52.0377 36.2681C51.905 36.3946 51.7487 36.4938 51.5777 36.5599C51.4066 36.626 51.2242 36.6577 51.0409 36.6532C50.8576 36.6487 50.677 36.608 50.5094 36.5336C49.8057 36.221 49.4877 35.3954 49.7998 34.6889Z" fill="black"/>
</g>
<defs>
<linearGradient id="paint0_linear_8_139" x1="35" y1="-3.82524e-07" x2="35" y2="80" gradientUnits="userSpaceOnUse">
<stop stop-color="#30C69D"/>
<stop offset="1" stop-color="#3C69B4"/>
</linearGradient>
<clipPath id="clip0_8_139">
<rect width="47" height="47" fill="white" transform="translate(11 17)"/>
</clipPath>
</defs>
</svg>
