<svg width="70" height="80" viewBox="0 0 70 80" fill="none" xmlns="http://www.w3.org/2000/svg">
<g clip-path="url(#clip0_8_35)">
<path d="M38.2248 3.57045L65.2248 18.999C67.25 20.1563 68.4999 22.31 68.4999 24.6426V55.3574C68.4999 57.69 67.25 59.8437 65.2248 61.001L38.2248 76.4296C36.2265 77.5715 33.7733 77.5715 31.775 76.4296L4.77504 61.001C2.7498 59.8437 1.49994 57.69 1.49994 55.3574V24.6426C1.49994 22.31 2.7498 20.1563 4.77504 18.999L31.775 3.57045C33.7733 2.42856 36.2265 2.42856 38.2248 3.57045Z" fill="white" stroke="url(#paint0_linear_8_35)" stroke-width="3"/>
<g clip-path="url(#clip1_8_35)">
<path d="M37.8574 25.4613V31.9225L49.2869 38.3838V31.9225L37.8574 25.4613ZM15 31.9225V38.3838L20.7148 41.6145V35.1532L15 31.9225ZM32.1426 35.1532L26.4278 38.3838V57.7677L32.1426 61V48.0774L37.8574 51.3081V44.8468L32.1426 41.6161V35.1532Z" fill="#E55B2D"/>
<path d="M37.8574 25.4613L20.7148 35.1532V41.6145L32.1443 35.1532V41.6145L37.8591 38.3838V25.4613H37.8574ZM55 28.6919L49.2852 31.9225V38.3838L55 35.1532V28.6919ZM43.5722 41.6161L37.8574 44.8468V51.3081L43.5722 48.0774V41.6161ZM37.8574 51.3081L32.1426 48.0774V61L37.8574 57.7693V51.3081Z" fill="#ED8E24"/>
<path d="M37.8574 19L15 31.9226L20.7148 35.1532L37.8574 25.4613L49.2869 31.9226L55.0017 28.6919L37.8574 19ZM37.8574 38.3838L32.1426 41.6145L37.8574 44.8451L43.5722 41.6145L37.8574 38.3838Z" fill="#F8BF3C"/>
</g>
</g>
<defs>
<linearGradient id="paint0_linear_8_35" x1="34.9999" y1="2.25057e-05" x2="34.9999" y2="80" gradientUnits="userSpaceOnUse">
<stop stop-color="#30C69D"/>
<stop offset="1" stop-color="#3C69B4"/>
</linearGradient>
<clipPath id="clip0_8_35">
<rect width="70" height="80" fill="white"/>
</clipPath>
<clipPath id="clip1_8_35">
<rect width="40" height="42" fill="white" transform="translate(15 19)"/>
</clipPath>
</defs>
</svg>
