<svg width="70" height="80" viewBox="0 0 70 80" fill="none" xmlns="http://www.w3.org/2000/svg">
<path d="M38.2249 3.57043L65.2249 18.999C67.2501 20.1563 68.5 22.31 68.5 24.6426V55.3574C68.5 57.69 67.2501 59.8437 65.2249 61.001L38.2249 76.4296C36.2266 77.5715 33.7734 77.5715 31.7751 76.4296L4.7751 61.001C2.74986 59.8437 1.5 57.69 1.5 55.3574V24.6426C1.5 22.31 2.74986 20.1563 4.7751 18.999L31.7751 3.57043C33.7734 2.42854 36.2266 2.42854 38.2249 3.57043Z" fill="white" stroke="url(#paint0_linear_8_164)" stroke-width="3"/>
<path d="M14 40V19H56V61H14" fill="#007ACC"/>
<path d="M23.2085 40.0735V41.785H28.6685V57.325H32.543V41.785H38.003V40.105C38.003 39.16 38.003 38.3935 37.961 38.3725C37.961 38.341 34.6325 38.3305 30.59 38.3305L23.24 38.362V40.084L23.2085 40.0735ZM47.747 38.32C48.818 38.572 49.637 39.055 50.372 39.8215C50.7605 40.2415 51.338 40.9765 51.38 41.1655C51.38 41.2285 49.5635 42.457 48.461 43.1395C48.419 43.171 48.251 42.9925 48.083 42.7195C47.537 41.9425 46.9805 41.6065 46.109 41.5435C44.849 41.4595 44.009 42.121 44.009 43.2235C44.009 43.5595 44.072 43.7485 44.198 44.0215C44.4815 44.599 45.0065 44.9455 46.634 45.6595C49.637 46.951 50.939 47.8015 51.7265 49.0195C52.619 50.3845 52.8185 52.5265 52.22 54.133C51.548 55.8865 49.91 57.073 47.5685 57.4614C46.8335 57.5875 45.1535 57.5665 44.366 57.43C42.686 57.115 41.0795 56.275 40.0925 55.1935C39.704 54.7735 38.9585 53.65 39.0005 53.5765L39.3995 53.3245L40.9745 52.411L42.161 51.718L42.434 52.0855C42.7805 52.6315 43.5575 53.3665 44.009 53.6185C45.374 54.322 47.201 54.2275 48.104 53.4085C48.4925 53.0515 48.6605 52.6735 48.6605 52.1485C48.6605 51.6655 48.587 51.445 48.3455 51.0775C48.0095 50.6155 47.3375 50.2375 45.4475 49.3975C43.274 48.4735 42.35 47.8855 41.489 46.9825C40.9955 46.4365 40.544 45.586 40.334 44.8825C40.1765 44.2735 40.124 42.7825 40.271 42.184C40.7225 40.084 42.308 38.614 44.576 38.194C45.311 38.047 47.0435 38.11 47.768 38.299L47.747 38.32Z" fill="white"/>
<defs>
<linearGradient id="paint0_linear_8_164" x1="35" y1="-3.82524e-07" x2="35" y2="80" gradientUnits="userSpaceOnUse">
<stop stop-color="#30C69D"/>
<stop offset="1" stop-color="#3C69B4"/>
</linearGradient>
</defs>
</svg>
