<svg width="70" height="80" viewBox="0 0 70 80" fill="none" xmlns="http://www.w3.org/2000/svg">
<g clip-path="url(#clip0_8_40)">
<path d="M38.2248 3.57045L65.2248 18.999C67.25 20.1563 68.4999 22.31 68.4999 24.6426V55.3574C68.4999 57.69 67.25 59.8437 65.2248 61.001L38.2248 76.4296C36.2265 77.5715 33.7733 77.5715 31.775 76.4296L4.77504 61.001C2.7498 59.8437 1.49994 57.69 1.49994 55.3574V24.6426C1.49994 22.31 2.7498 20.1563 4.77504 18.999L31.775 3.57045C33.7733 2.42856 36.2265 2.42856 38.2248 3.57045Z" fill="white" stroke="url(#paint0_linear_8_40)" stroke-width="3"/>
<path d="M39.8037 19V19.2264C39.8034 20.5035 39.2959 21.7281 38.3929 22.6311C37.4899 23.5342 36.2652 24.0416 34.9882 24.042C33.7111 24.0416 32.4865 23.5342 31.5835 22.6311C30.6804 21.7281 30.173 20.5035 30.1726 19.2264V19H14V61H56V19H39.8037ZM34.0432 56.5047L31.9983 46.3853H31.9629L29.75 56.5047H26.9321L23.7388 41.636H26.5212L28.4257 51.7554H28.4611L30.756 41.636H33.3594L35.42 51.8735H35.4554L37.6289 41.636H40.3609L36.8145 56.5047H34.0432ZM49.3647 56.5047L48.4164 53.1952H43.4092L42.6794 56.5047H39.8969L43.4952 41.636H47.892L52.2659 56.5047H49.3647ZM46.3413 45.2999H45.1706L43.9565 50.7559H47.7345L46.3413 45.2999Z" fill="#654FF0"/>
</g>
<defs>
<linearGradient id="paint0_linear_8_40" x1="34.9999" y1="2.25057e-05" x2="34.9999" y2="80" gradientUnits="userSpaceOnUse">
<stop stop-color="#30C69D"/>
<stop offset="1" stop-color="#3C69B4"/>
</linearGradient>
<clipPath id="clip0_8_40">
<rect width="70" height="80" fill="white"/>
</clipPath>
</defs>
</svg>
