<svg width="180" height="71" viewBox="0 0 180 71" fill="none" xmlns="http://www.w3.org/2000/svg">
<path d="M43.6875 48.2969H52.6875C52.2188 52.6094 50.9844 56.4688 48.9844 59.875C46.9844 63.2812 44.1562 65.9844 40.5 67.9844C36.8438 69.9531 32.2812 70.9375 26.8125 70.9375C22.8125 70.9375 19.1719 70.1875 15.8906 68.6875C12.6406 67.1875 9.84375 65.0625 7.5 62.3125C5.15625 59.5312 3.34375 56.2031 2.0625 52.3281C0.8125 48.4219 0.1875 44.0781 0.1875 39.2969V32.5C0.1875 27.7188 0.8125 23.3906 2.0625 19.5156C3.34375 15.6094 5.17188 12.2656 7.54688 9.48438C9.95312 6.70312 12.8438 4.5625 16.2188 3.0625C19.5938 1.5625 23.3906 0.8125 27.6094 0.8125C32.7656 0.8125 37.125 1.78125 40.6875 3.71875C44.25 5.65625 47.0156 8.34375 48.9844 11.7812C50.9844 15.1875 52.2188 19.1406 52.6875 23.6406H43.6875C43.25 20.4531 42.4375 17.7188 41.25 15.4375C40.0625 13.125 38.375 11.3438 36.1875 10.0938C34 8.84375 31.1406 8.21875 27.6094 8.21875C24.5781 8.21875 21.9062 8.79688 19.5938 9.95312C17.3125 11.1094 15.3906 12.75 13.8281 14.875C12.2969 17 11.1406 19.5469 10.3594 22.5156C9.57812 25.4844 9.1875 28.7812 9.1875 32.4062V39.2969C9.1875 42.6406 9.53125 45.7812 10.2188 48.7188C10.9375 51.6562 12.0156 54.2344 13.4531 56.4531C14.8906 58.6719 16.7188 60.4219 18.9375 61.7031C21.1562 62.9531 23.7812 63.5781 26.8125 63.5781C30.6562 63.5781 33.7188 62.9688 36 61.75C38.2812 60.5312 40 58.7812 41.1562 56.5C42.3438 54.2188 43.1875 51.4844 43.6875 48.2969ZM117.516 1.75V70H108.422L74.0625 17.3594V70H65.0156V1.75H74.0625L108.562 54.5312V1.75H117.516ZM157.875 38.0781H140.578L140.484 30.8125H156.188C158.781 30.8125 161.047 30.375 162.984 29.5C164.922 28.625 166.422 27.375 167.484 25.75C168.578 24.0938 169.125 22.125 169.125 19.8438C169.125 17.3438 168.641 15.3125 167.672 13.75C166.734 12.1562 165.281 11 163.312 10.2812C161.375 9.53125 158.906 9.15625 155.906 9.15625H142.594V70H133.547V1.75H155.906C159.406 1.75 162.531 2.10938 165.281 2.82812C168.031 3.51562 170.359 4.60938 172.266 6.10938C174.203 7.57812 175.672 9.45312 176.672 11.7344C177.672 14.0156 178.172 16.75 178.172 19.9375C178.172 22.75 177.453 25.2969 176.016 27.5781C174.578 29.8281 172.578 31.6719 170.016 33.1094C167.484 34.5469 164.516 35.4688 161.109 35.875L157.875 38.0781ZM157.453 70H137.016L142.125 62.6406H157.453C160.328 62.6406 162.766 62.1406 164.766 61.1406C166.797 60.1406 168.344 58.7344 169.406 56.9219C170.469 55.0781 171 52.9062 171 50.4062C171 47.875 170.547 45.6875 169.641 43.8438C168.734 42 167.312 40.5781 165.375 39.5781C163.438 38.5781 160.938 38.0781 157.875 38.0781H144.984L145.078 30.8125H162.703L164.625 33.4375C167.906 33.7188 170.688 34.6562 172.969 36.25C175.25 37.8125 176.984 39.8125 178.172 42.25C179.391 44.6875 180 47.375 180 50.3125C180 54.5625 179.062 58.1562 177.188 61.0938C175.344 64 172.734 66.2188 169.359 67.75C165.984 69.25 162.016 70 157.453 70Z" fill="url(#paint0_linear_2292_7868)"/>
<defs>
<linearGradient id="paint0_linear_2292_7868" x1="48.2727" y1="90.0179" x2="143.267" y2="-6.57221" gradientUnits="userSpaceOnUse">
<stop stop-color="#00A983"/>
<stop offset="0.494792" stop-color="white"/>
<stop offset="1" stop-color="#3162AC"/>
</linearGradient>
</defs>
</svg>
