<svg width="14" height="14" viewBox="0 0 14 14" fill="none" xmlns="http://www.w3.org/2000/svg">
<path d="M8.58978 6.9864L13.2088 2.37973L13.2225 2.36609L13.2351 2.35144C13.4155 2.14135 13.5099 1.87087 13.4992 1.59403C13.4885 1.31719 13.3734 1.05484 13.1773 0.859318C12.9813 0.663839 12.7189 0.549545 12.4424 0.538895C12.166 0.528246 11.8955 0.622004 11.685 0.801766L11.6703 0.814306L11.6566 0.827941L7.03594 5.43629L2.41502 0.822169L2.41481 0.821957C2.20795 0.615657 1.92768 0.5 1.63573 0.5C1.34377 0.5 1.0635 0.615657 0.856646 0.821957C0.649749 1.0283 0.533271 1.30845 0.533271 1.60084C0.533271 1.89324 0.649749 2.17339 0.856646 2.37973L0.85686 2.37994L5.48124 6.9864L0.868386 11.5814C0.760789 11.6771 0.672962 11.793 0.610029 11.9228C0.543885 12.0591 0.506688 12.2077 0.500822 12.3592C0.494956 12.5106 0.520548 12.6616 0.575963 12.8027C0.631376 12.9438 0.715391 13.0718 0.822657 13.1788C0.929921 13.2857 1.05812 13.3694 1.19917 13.4245C1.34021 13.4796 1.49111 13.505 1.6424 13.4992L1.62316 12.9996L1.64241 13.4992C1.7937 13.4934 1.9422 13.4564 2.07859 13.3906L1.86131 12.9403L2.0786 13.3906C2.20826 13.328 2.32436 13.2406 2.4203 13.1334L7.03551 8.53609L11.6566 13.1449L11.6703 13.1585L11.685 13.171C11.8955 13.3508 12.166 13.4446 12.4424 13.4339L12.4232 12.9343L12.4424 13.4339C12.7188 13.4233 12.9813 13.309 13.1773 13.1135C13.3734 12.918 13.4885 12.6556 13.4992 12.3788C13.5099 12.1019 13.4155 11.8315 13.2351 11.6214L13.2225 11.6067L13.2088 11.5931L8.58978 6.9864Z" fill="white" stroke="white"/>
</svg>
