<svg width="54" height="40" viewBox="0 0 54 40" fill="none" xmlns="http://www.w3.org/2000/svg">
<path d="M22.2831 30.4382C22.2831 33.0943 21.3072 35.3785 19.3554 37.2908C17.512 39.0969 15.1807 40 12.3614 40C8.45783 40 5.42169 38.672 3.25301 36.0159C1.08434 33.2537 0 30.0664 0 26.4542C0 20.9296 1.68072 15.9363 5.04217 11.4741C8.40361 6.90571 12.253 3.08101 16.5904 0L22.1205 5.41832C21.253 6.3745 20.1687 7.49004 18.8675 8.76494C17.5663 9.9336 16.4277 11.2085 15.4518 12.5896C14.5843 13.9708 14.1506 15.3519 14.1506 16.7331C14.1506 18.1142 14.8012 19.336 16.1024 20.3984C17.512 21.4608 18.8675 22.7357 20.1687 24.2231C21.5783 25.7105 22.2831 27.7822 22.2831 30.4382ZM54 30.4382C54 33.0943 53.0241 35.3785 51.0723 37.2908C49.2289 39.0969 46.8976 40 44.0783 40C40.1747 40 37.1386 38.672 34.9699 36.0159C32.8012 33.2537 31.7169 30.0664 31.7169 26.4542C31.7169 20.9296 33.3976 15.9363 36.759 11.4741C40.1205 6.90571 43.9699 3.08101 48.3072 0L53.8373 5.41832C52.9699 6.3745 51.8855 7.49004 50.5843 8.76494C49.2831 9.9336 48.1446 11.2085 47.1687 12.5896C46.3012 13.9708 45.8675 15.3519 45.8675 16.7331C45.8675 18.1142 46.5181 19.336 47.8193 20.3984C49.2289 21.4608 50.5843 22.7357 51.8855 24.2231C53.2952 25.7105 54 27.7822 54 30.4382Z" fill="#30C69D"/>
</svg>
