<svg width="111" height="71" viewBox="0 0 111 71" fill="none" xmlns="http://www.w3.org/2000/svg">
<path d="M53.1094 36.0156V61C52.2656 62.25 50.9219 63.6562 49.0781 65.2188C47.2344 66.75 44.6875 68.0938 41.4375 69.25C38.2188 70.375 34.0625 70.9375 28.9688 70.9375C24.8125 70.9375 20.9844 70.2188 17.4844 68.7812C14.0156 67.3125 11 65.1875 8.4375 62.4062C5.90625 59.5938 3.9375 56.1875 2.53125 52.1875C1.15625 48.1562 0.46875 43.5938 0.46875 38.5V33.2031C0.46875 28.1094 1.0625 23.5625 2.25 19.5625C3.46875 15.5625 5.25 12.1719 7.59375 9.39062C9.9375 6.57812 12.8125 4.45312 16.2188 3.01562C19.625 1.54688 23.5312 0.8125 27.9375 0.8125C33.1562 0.8125 37.5156 1.71875 41.0156 3.53125C44.5469 5.3125 47.2969 7.78125 49.2656 10.9375C51.2656 14.0938 52.5469 17.6875 53.1094 21.7188H44.0625C43.6562 19.25 42.8438 17 41.625 14.9688C40.4375 12.9375 38.7344 11.3125 36.5156 10.0938C34.2969 8.84375 31.4375 8.21875 27.9375 8.21875C24.7812 8.21875 22.0469 8.79688 19.7344 9.95312C17.4219 11.1094 15.5156 12.7656 14.0156 14.9219C12.5156 17.0781 11.3906 19.6875 10.6406 22.75C9.92188 25.8125 9.5625 29.2656 9.5625 33.1094V38.5C9.5625 42.4375 10.0156 45.9531 10.9219 49.0469C11.8594 52.1406 13.1875 54.7812 14.9062 56.9688C16.625 59.125 18.6719 60.7656 21.0469 61.8906C23.4531 63.0156 26.1094 63.5781 29.0156 63.5781C32.2344 63.5781 34.8438 63.3125 36.8438 62.7812C38.8438 62.2188 40.4062 61.5625 41.5312 60.8125C42.6562 60.0312 43.5156 59.2969 44.1094 58.6094V43.3281H28.3125V36.0156H53.1094ZM77.1562 1.75V70H68.1094V1.75H77.1562ZM105.75 32.4531V39.8594H75.1875V32.4531H105.75ZM110.391 1.75V9.15625H75.1875V1.75H110.391Z" fill="url(#paint0_linear_2292_7868)"/>
<defs>
<linearGradient id="paint0_linear_2292_7868" x1="12.2727" y1="90.0179" x2="107.267" y2="-6.57221" gradientUnits="userSpaceOnUse">
<stop stop-color="#00A983"/>
<stop offset="0.494792" stop-color="white"/>
<stop offset="1" stop-color="#3162AC"/>
</linearGradient>
</defs>
</svg>
