<svg version="1.0" xmlns="http://www.w3.org/2000/svg" width="682.6667" height="682.6667" viewBox="0 0 512 512"><path d="M90 145.2c0 31 0 83.5-.1 116.7 0 33.2.1 60.5.3 60.7.7.7 5.8 1.2 5.9.6.1-.4.2-51.8.3-114.2l.1-113.5h327l.3-3.3.3-3.2H90v56.2zM504 116.8c0 5.6-6.7 18.6-12.6 24.6-4.5 4.6-12.5 9.3-19 11.2l-5.9 1.8 3.5.6c7.6 1.4 18 .2 24.4-2.8 5.9-2.9 16.6-12 16.6-14.3 0-.8-.4-.8-1.2-.2-2.1 1.6-9.8 4.4-9.8 3.5 0-.4.7-1.8 1.6-3 .8-1.2 1.2-2.2.8-2.2-.3 0-.1-.7.6-1.5 1.3-1.5 2.8-19.5 1.6-19.5-.3 0-.6.8-.6 1.8z"/><path d="M375.5 120.8c-30.7 2.8-55.9 20.6-62.6 44.2-1 3.4-1.3 18.4-1.5 60.5-.1 30.8-.2 56.4-.3 56.9-.1.7-7.2-8.4-39.4-50.8-4.5-5.9-15.8-20.9-25.2-33.1-9.3-12.3-23.8-31.3-32.2-42.3l-15.2-20-24.3.1-24.3.2v106.9l3.6 8.5c11.1 26.3 24.9 50.8 43.7 77.6l3.5 5-4.4-4.5c-11.8-11.9-31-35.7-41.8-51.8-2.3-3.4-4.3-6.2-4.4-6.2-.1 0-.2 11.6-.2 25.7.1 14.2-.3 27.1-.8 28.8-1.2 3.7-5.4 8.4-8.7 9.7-1.4.6-7 1.1-12.5 1.3-17.9.4-26.9 2.8-39.1 10.6-10.6 6.7-16.5 8.3-27.3 7.6-4.8-.3-9.7-.9-11-1.3l-2.5-.7 2.6 4.4c7.5 13.1 7.4 12.8 5.2 14.3-1.8 1.4-1.8 1.6 1.4 4.3 6 5.1 15.5 10.3 23.7 13 7.4 2.5 9.3 2.7 26 2.7 24.6.1 37.2-1.6 53.5-7.1 22-7.5 35.1-19.3 39.6-36 1.7-6.2 1.9-11.6 1.9-66 0-32.6.1-59.3.2-59.3s2.2 2.6 4.5 5.7c2.4 3.2 4.8 6.3 5.3 7 .6.6 4.7 6 9.2 12 4.5 5.9 13.1 17.2 19 24.9 6 7.8 11.8 15.4 13 17 8.3 11 47.3 62.2 55.2 72.6l9.6 12.6 22.5-.1 22.4-.2.1-53.5c0-29.4-.3-54.2-.7-55-.4-.8-2.1-4.9-3.9-9-4.8-11.3-15.4-32.3-21.7-43-3.1-5.2-6.1-10.3-6.7-11.3-.5-1-4.7-7.3-9.3-14-4.6-6.7-6.8-10.6-5-8.6 17.2 18.6 31.1 35.7 41.2 50.6 2.7 4 5.2 7.3 5.5 7.3.4 0 .6-11.1.5-24.8 0-13.6.3-26.3.7-28.2.9-4 7.7-10.9 10.9-11.1 1.1-.1 2.6-.2 3.3-.3.6-.1 4.9.4 9.4 1 18.6 2.4 38.4.2 51.3-5.7 5.2-2.5 15-9 16.9-11.3 1.2-1.4 1.1-1.9-.5-3.1-1.7-1.2-1.7-1.7-.6-3.6.8-1.2 3-5.1 5-8.7 2.9-5.4 3.2-6.3 1.6-5.8-8.2 2.6-20.1 2.7-26.9.3-2.2-.8-7.8-3.8-12.5-6.6-12.4-7.6-18.7-9.2-40-10.4-1.9-.1-4.8-.1-6.5.1zm31.5 11.9c2.7 1.6 5 3.1 5 3.6 0 1.4-5.1 2.7-8.1 2.2-3.5-.6-8.9-4.3-8.9-6 0-3.5 5.5-3.3 12 .2zM117 348.5c0 1.6-5.6 6.5-7.6 6.6-3.8.3-5.1.2-7.1-.5-3.3-1.1-2.8-2.3 2-4.7 7.3-3.8 12.7-4.4 12.7-1.4z"/><path d="M417.9 198c-.1.3-.3 49.3-.4 109-.2 59.7-.3 108.7-.4 109 0 .3-73.7.5-163.6.5H90v6.5h334V197.5h-3c-1.6-.1-3.1.2-3.1.5zM7.1 340.3c.4 5 1.5 10.2 2.7 13 2.4 5.3 1.9 5.6-4.6 2.7-2.3-1-4.2-1.5-4.2-1.1 0 1.6 11.7 11.7 15.6 13.6 4.8 2.3 12.8 4.1 17.4 3.9 1.9-.1 5-.2 6.8-.3 4.5-.1 3.3-1.5-3-3.6-7.1-2.2-14-6.8-18.9-12.3-4.4-5.1-9.4-14.7-10.4-20.5-1.3-6.6-2.1-3.9-1.4 4.6z"/></svg>