<svg width="110" height="109" viewBox="0 0 110 109" fill="none" xmlns="http://www.w3.org/2000/svg">
<g opacity="0.6">
<path d="M90.9457 22.1493C90.7493 22.1493 90.5529 22.3457 90.3564 22.3457V29.81L91.1422 30.2028C93.1064 31.185 94.285 33.1493 94.285 35.5064V43.7564L108.821 36.4886C109.41 36.0957 109.999 35.5064 109.999 34.7207V12.7207L90.9457 22.1493Z" fill="#FFFFFF"/>
<path d="M89.1783 18.6116L107.446 9.37947L89.1783 0.147321C88.589 -0.0491071 87.9997 -0.0491071 87.4104 0.147321L69.1426 9.37947L87.4104 18.6116C87.9997 19.0045 88.7854 19.0045 89.1783 18.6116Z" fill="#FFFFFF"/>
<path d="M86.429 22.5402C86.2326 22.5402 86.0361 22.3437 85.8397 22.3437L66.7861 12.7188V17.433L86.429 27.8437V22.5402Z" fill="#FFFFFF"/>
<path d="M55.9831 16.2546C55.3938 15.8617 54.8045 15.8617 54.2153 16.2546L22.001 33.1475L54.2153 50.0403C54.8045 50.4332 55.3938 50.4332 55.9831 50.0403L88.1974 33.1475L55.9831 16.2546Z" fill="#FFFFFF"/>
<path d="M23.5713 22.5402V27.8437L43.2141 17.433V12.7188L24.1606 22.1473C23.9641 22.3437 23.7677 22.3437 23.5713 22.5402Z" fill="#FFFFFF"/>
<path d="M22.3931 18.6116L40.661 9.37947L22.3931 0.147321C21.8039 -0.0491071 21.2146 -0.0491071 20.6253 0.147321L2.35742 9.57589L20.6253 18.808C21.2146 19.0045 22.0003 19.0045 22.3931 18.6116Z" fill="#FFFFFF"/>
<path d="M1.17857 36.2921L15.7143 43.56V35.31C15.7143 33.1493 16.8929 31.185 18.8571 30.0064L19.6429 29.6136V22.1493C19.4464 22.1493 19.25 21.9528 19.0536 21.9528L0 12.7207V34.5243C0 35.31 0.392857 36.0957 1.17857 36.2921Z" fill="#FFFFFF"/>
<path d="M29.4644 66.738V72.4344H25.5359V64.7737L22.393 63.2023C22.1966 63.0059 21.8037 63.0059 21.6073 63.0059C21.2144 63.0059 21.018 63.0059 20.8216 63.2023L2.55371 72.4344L21.8037 82.0594L41.0537 72.4344L29.4644 66.738Z" fill="#FFFFFF"/>
<path d="M0 97.3809C0 98.1666 0.392857 98.7559 1.17857 99.1487L19.6429 108.381V85.3976L0 75.5762V97.3809Z" fill="#FFFFFF"/>
<path d="M23.5713 108.578L42.0356 99.346C42.6249 98.9531 43.2141 98.3638 43.2141 97.5781V75.5781L23.5713 85.3996V108.578Z" fill="#FFFFFF"/>
<path d="M19.6426 36.292V59.4706C21.214 58.8813 22.7854 59.0777 24.1604 59.667L25.5354 60.2563V58.4884C25.5354 56.3277 26.714 54.3634 28.6783 53.1848L36.339 49.0598L38.1069 52.5956L30.4461 56.7206C29.8569 57.1134 29.464 57.7027 29.464 58.4884V62.2206L43.8033 69.4884C45.7676 70.4706 47.1426 72.4348 47.1426 74.792V89.5241L53.0354 92.667V53.7741C52.839 53.7741 52.4461 53.5777 52.2497 53.3813L19.6426 36.292Z" fill="#FFFFFF"/>
<path d="M80.5353 58.4874C80.5353 57.7017 80.1424 57.1124 79.5532 56.7196L71.8924 52.5946L73.6603 49.0589L81.321 53.1839C83.2853 54.166 84.4639 56.1303 84.4639 58.4874V60.2553L85.8389 59.666C87.2139 58.8803 88.9817 58.8803 90.3567 59.4696V36.291L57.7496 53.3803C57.5532 53.5767 57.1603 53.5767 56.9639 53.7732V92.666L62.8567 89.5232V74.791C62.8567 72.6303 64.0353 70.4696 66.196 69.4874L80.5353 62.2196V58.4874Z" fill="#FFFFFF"/>
<path d="M89.1783 63.2023C88.9819 63.0059 88.589 63.0059 88.3926 63.0059C87.9997 63.0059 87.8033 63.0059 87.6069 63.2023L84.464 64.7737V72.4344H80.5354V66.738L69.1426 72.4344L88.3926 82.0594L107.643 72.4344L89.1783 63.2023Z" fill="#FFFFFF"/>
<path d="M66.7861 97.3809C66.7861 98.1666 67.179 98.7559 67.9647 99.1487L86.429 108.381V85.3976L66.7861 75.5762V97.3809Z" fill="#FFFFFF"/>
<path d="M90.3574 108.578L108.822 99.346C109.411 98.9531 110 98.3638 110 97.5781V75.5781L90.3574 85.3996V108.578Z" fill="#FFFFFF"/>
</g>
</svg>
