<svg width="110" height="93" viewBox="0 0 110 93" fill="none" xmlns="http://www.w3.org/2000/svg">
<g opacity="0.6">
<path d="M40.298 38.3871C39.9297 38.7529 39.4302 38.9584 38.9093 38.9585C38.77 38.9469 38.6324 38.9207 38.4987 38.8805L38.3789 39.2413L42.4607 43.2937L47.1062 33.1529C47.2121 32.9117 47.2677 32.6518 47.2698 32.3887C47.2718 32.1256 47.2202 31.8648 47.118 31.6221L40.298 38.3871Z" fill="#FFFFFF"/>
<path d="M55.5679 9.43474C55.2929 9.16172 54.1536 8.81069 51.6 9.27873C48.1575 9.93014 44.9978 11.6109 42.5446 14.0956L30.5625 25.972L33.3518 28.7412L41.6804 20.4531L44.4696 23.2223L36.1214 31.4909L38.9107 34.2601L50.8732 22.3642C53.3759 19.9287 55.0689 16.7918 55.725 13.374C56.1768 10.8388 55.8429 9.70776 55.5679 9.43474ZM49.5375 19.6925L48.4571 16.4943L45.2357 15.4217L46.4732 11.7164L50.6375 13.101C50.9262 13.1954 51.1886 13.3557 51.4035 13.5691C51.6184 13.7825 51.7799 14.043 51.875 14.3296L53.2696 18.4639L49.5375 19.6925Z" fill="#FFFFFF"/>
<path d="M30.1875 33.8673L30.5686 34.2456L30.5745 34.2515L30.5784 34.2554L30.9614 34.6357L32.8138 33.7171L31.1127 32.0283L30.1875 33.8673Z" fill="#FFFFFF"/>
<path d="M26.4078 36.439C26.1495 36.4388 25.8937 36.4891 25.6551 36.5872C25.4165 36.6852 25.1997 36.829 25.0171 37.0104C23.6871 38.5588 22.7723 40.4155 22.3574 42.4084C24.3653 41.9963 26.236 41.0881 27.7965 39.7679C28.0712 39.4951 28.2582 39.1477 28.3339 38.7695C28.4097 38.3912 28.3708 37.9992 28.2221 37.6429C28.0735 37.2866 27.8218 36.9821 27.4989 36.7678C27.1759 36.5535 26.7962 36.439 26.4078 36.439Z" fill="#FFFFFF"/>
<path d="M25.91 26.382C25.834 26.0668 25.8397 25.7377 25.9266 25.4253C26.0135 25.1129 26.1788 24.8275 26.407 24.5957L33.2289 17.8228C32.9841 17.7206 32.7209 17.6693 32.4553 17.672C32.1898 17.6747 31.9276 17.7313 31.685 17.8384L21.4707 22.4486L25.5505 26.501L25.91 26.382Z" fill="#FFFFFF"/>
<path d="M72.6786 0.25H5.89286C4.33141 0.25463 2.83525 0.8725 1.73113 1.96867C0.627014 3.06484 0.00466339 4.55023 0 6.10044V45.1034C0.00466339 46.6536 0.627014 48.139 1.73113 49.2351C2.83525 50.3313 4.33141 50.9492 5.89286 50.9538H15.7143C16.0259 50.9552 16.3327 51.0303 16.6094 51.1727C16.8861 51.3151 17.1246 51.5208 17.3054 51.7729L23.5714 60.4705V52.904C23.5714 52.3868 23.7784 51.8907 24.1468 51.525C24.5151 51.1593 25.0148 50.9538 25.5357 50.9538H72.6786C74.24 50.9492 75.7362 50.3313 76.8403 49.2351C77.9444 48.139 78.5668 46.6536 78.5714 45.1034V6.10044C78.5668 4.55023 77.9444 3.06484 76.8403 1.96867C75.7362 0.8725 74.24 0.25463 72.6786 0.25ZM59.5964 14.0765C58.799 18.2703 56.7291 22.1217 53.6643 25.1144L49.9714 28.7806C50.6239 29.6217 51.0343 30.6227 51.1588 31.677C51.2834 32.7314 51.1174 33.7995 50.6786 34.7676L46.0429 44.9084C45.779 45.4834 45.3783 45.9863 44.8753 46.3735C44.3723 46.7608 43.7821 47.0209 43.1554 47.1315C42.9282 47.1695 42.6982 47.1891 42.4679 47.19C41.4253 47.1878 40.4246 46.782 39.6786 46.059L34.7482 41.1446C34.4915 40.889 34.31 40.5686 34.2234 40.218C34.1369 39.8674 34.1485 39.4999 34.2571 39.1554L34.9839 36.9908L32.2929 38.3364C32.3053 39.1132 32.1605 39.8847 31.8669 40.6049C31.5733 41.3252 31.1371 41.9795 30.5839 42.5292H30.5643C28.2355 44.6232 25.3001 45.9336 22.1768 46.2735C21.6805 46.3002 21.1839 46.2258 20.7177 46.0547C20.2515 45.8837 19.8256 45.6196 19.4661 45.2789C16.5982 42.4317 20.625 35.8597 22.2357 34.2606C22.7857 33.7052 23.4437 33.2666 24.1697 32.9716C24.8957 32.6766 25.6746 32.5312 26.4589 32.5444L27.8143 29.8727L25.6339 30.5943C25.4366 30.6551 25.2316 30.688 25.025 30.6918C24.5008 30.686 23.9999 30.4759 23.6304 30.1067L18.6804 25.2119C18.2335 24.764 17.9021 24.2157 17.7143 23.6135C17.5265 23.0113 17.4879 22.373 17.6016 21.7529C17.7154 21.1327 17.9782 20.5489 18.3677 20.0511C18.7573 19.5533 19.2621 19.1561 19.8393 18.8934L30.0536 14.2911C31.0287 13.8554 32.1045 13.6906 33.1665 13.8142C34.2285 13.9379 35.2368 14.3453 36.0839 14.9931L39.7768 11.3268C42.7911 8.2841 46.6705 6.22909 50.8946 5.43739C54.45 4.81334 56.8857 5.20337 58.3589 6.66598C59.8321 8.12859 60.225 10.5468 59.5964 14.0765Z" fill="#FFFFFF"/>
<path d="M104.107 37.3032H82.5003V45.1038C82.5003 47.6899 81.4655 50.17 79.6237 51.9986C77.7818 53.8272 75.2837 54.8545 72.6789 54.8545H35.3574V78.2563C35.3621 79.8065 35.9844 81.2919 37.0886 82.3881C38.1927 83.4842 39.6888 84.1021 41.2503 84.1067H76.6074C77.1284 84.1067 77.628 84.3122 77.9964 84.6779C78.3648 85.0437 78.5717 85.5397 78.5717 86.0569V92.3754L84.9164 84.8088C85.1003 84.5878 85.3314 84.4102 85.593 84.2888C85.8546 84.1674 86.1401 84.1052 86.4289 84.1067H104.107C105.669 84.1021 107.165 83.4842 108.269 82.3881C109.373 81.2919 109.996 79.8065 110 78.2563V43.1537C109.996 41.6035 109.373 40.1181 108.269 39.0219C107.165 37.9257 105.669 37.3079 104.107 37.3032ZM100.179 74.356H45.1789V70.4557H100.179V74.356ZM100.179 62.6551H45.1789V58.7548H100.179V62.6551ZM100.179 50.9543H88.3931V47.054H100.179V50.9543Z" fill="#FFFFFF"/>
</g>
</svg>
