<svg width="110" height="110" viewBox="0 0 110 110" fill="none" xmlns="http://www.w3.org/2000/svg">
<g opacity="0.6">
<path d="M42.9688 47.0938H1.71875C0.6875 47.0938 0 46.4062 0 45.375V44.3438C0 33.3437 8.9375 24.2344 20.1094 24.2344H24.5781C35.5781 24.2344 44.6875 33.1719 44.6875 44.3438V45.375C44.6875 46.4062 43.8281 47.0938 42.9688 47.0938Z" fill="#FFFFFF"/>
<path d="M77.8594 10.3125C77.8594 4.64062 82.3281 0 87.8281 0C93.3281 0 97.7969 4.64062 97.7969 10.3125C97.7969 15.9844 93.3281 20.625 87.8281 20.625C82.1562 20.625 77.8594 15.9844 77.8594 10.3125Z" fill="#FFFFFF"/>
<path d="M27.5 76.8281H15.8125C14.7812 76.8281 14.0938 75.9687 14.0938 75.1094V55.6875C14.0938 54.6562 14.7812 53.9688 15.8125 53.9688C16.6719 53.9688 17.5312 54.6562 17.5312 55.6875V73.3906H27.5L25.4375 71.8437C24.75 71.3281 24.5781 70.125 25.0938 69.4375C25.7812 68.75 26.8125 68.5781 27.5 69.0937L33.3437 73.7344C33.6875 74.0781 34.0312 74.5937 34.0312 75.1094C34.0312 75.625 33.8594 76.1406 33.3437 76.4844L27.5 81.125C26.6406 81.8125 25.6094 81.6406 25.0938 80.7812C24.5781 80.0937 24.5781 78.8906 25.4375 78.375L27.5 76.8281Z" fill="#FFFFFF"/>
<path d="M95.7344 55.6875V75.1094C95.7344 75.9687 95.0469 76.8281 94.0156 76.8281H82.3281L84.3906 78.375C85.0781 78.8906 85.25 80.0937 84.7344 80.7812C84.0469 81.6406 83.0156 81.6406 82.3281 81.125L76.4844 76.4844C75.9687 76.1406 75.625 75.625 75.625 75.1094C75.625 74.5937 75.7969 74.0781 76.3125 73.7344L82.1562 69.0937C82.8437 68.4062 84.0469 68.5781 84.5625 69.4375C85.25 70.125 85.0781 71.3281 84.2188 71.8437L82.1562 73.3906H92.125V55.6875C92.125 54.6562 92.9844 53.9688 93.8437 53.9688C95.0469 53.9688 95.7344 54.6562 95.7344 55.6875Z" fill="#FFFFFF"/>
<path d="M12.375 10.3125C12.375 4.64062 16.8438 0 22.3438 0C27.8438 0 32.1406 4.64062 32.1406 10.3125C32.1406 15.9844 27.6719 20.625 22.3438 20.625C17.0156 20.625 12.375 15.9844 12.375 10.3125Z" fill="#FFFFFF"/>
<path d="M41.5938 59.9844C41.5938 52.5938 47.6094 46.5781 55 46.5781C62.3906 46.5781 68.4062 52.5938 68.4062 59.9844C68.4062 67.375 62.3906 73.3906 55 73.3906C47.6094 73.5625 41.5938 67.5469 41.5938 59.9844Z" fill="#FFFFFF"/>
<path d="M86.4531 104.328V108.281C86.4531 109.312 85.5938 110 84.7344 110H25.2656C24.2344 110 23.5469 109.312 23.5469 108.281V104.328C23.5469 90.9219 34.5469 79.9219 47.9531 79.9219H61.875C75.4531 79.9219 86.4531 90.9219 86.4531 104.328Z" fill="#FFFFFF"/>
<path d="M110 44.3438V45.375C110 46.4062 109.141 47.0938 108.281 47.0938H67.0312C66.1719 47.0938 65.3125 46.4062 65.3125 45.375V44.3438C65.3125 33.3437 74.25 24.2344 85.4219 24.2344H89.8906C101.062 24.2344 110 33.3437 110 44.3438Z" fill="#FFFFFF"/>
</g>
</svg>
