<svg width="110" height="110" viewBox="0 0 110 110" fill="none" xmlns="http://www.w3.org/2000/svg">
<path opacity="0.6" d="M41.2329 44.9717C37.2448 49.5697 35.948 55.9118 37.7997 61.7076L39.5059 67.0316H45.1V54.5698H48.1079V58.8671H61.8579V54.5698H64.8658V67.0303H70.4953L72.2016 61.7063C74.0532 55.9093 72.7564 49.5672 68.7683 44.9704L67.0878 43.032C71.6894 28.5169 68.2306 12.5754 57.8624 1.26622C57.4933 0.862889 57.046 0.543889 56.5559 0.33C56.0658 0.116111 55.5329 0 54.9829 0C53.8866 0 52.8428 0.459556 52.1046 1.26744L52.0874 1.28456C41.7144 12.6023 38.2519 28.5609 42.8707 43.0797L41.2329 44.9717ZM55 37.5027C53.328 37.5027 51.9701 36.1448 51.9701 34.4728C51.9701 32.7971 53.328 31.4429 55 31.4429C56.672 31.4429 58.0299 32.7959 58.0299 34.4728C58.0299 36.1448 56.672 37.5027 55 37.5027ZM55 13.9651C58.4894 13.9651 61.3299 16.8007 61.3299 20.295C61.3299 23.7844 58.4894 26.6249 55 26.6249C51.5106 26.6249 48.6701 23.7844 48.6701 20.295C48.6701 16.8007 51.5106 13.9651 55 13.9651ZM51.678 20.2938C51.678 18.4592 53.1691 16.9718 55 16.9718C56.8309 16.9718 58.322 18.458 58.322 20.2938C58.322 22.1247 56.8309 23.6158 55 23.6158C53.1691 23.6158 51.678 22.1247 51.678 20.2938ZM110 96.25V102.266C110 106.536 106.536 110 102.266 110H7.73422C3.46378 110 0 106.536 0 102.266V96.25H8.59344V51.5631C8.59344 45.8786 13.2208 41.25 18.9066 41.25H39.2431C39.3372 41.6191 39.4326 41.9894 39.5352 42.3586L38.9767 42.999C38.0612 44.0562 37.2619 45.199 36.5921 46.4066H18.9066C16.0624 46.4066 13.75 48.7178 13.75 51.5631V96.25H44.6881V99.6881H65.3131V96.25H96.25V51.5631C96.25 48.719 93.9388 46.4066 91.0934 46.4066H73.4421C72.7723 45.199 71.973 44.0562 71.0576 42.999L70.4562 42.3072C70.5552 41.9552 70.6457 41.602 70.7312 41.25H91.0947C96.7792 41.25 101.408 45.8773 101.408 51.5631V96.25H110ZM53.7106 61.875V85.7438C52.2109 86.2767 51.1329 87.7054 51.1329 89.3848C51.1329 91.5176 52.8672 93.2519 55 93.2519C57.1328 93.2519 58.8671 91.5176 58.8671 89.3848C58.8671 87.7054 57.7879 86.2754 56.2894 85.7438V61.875H53.7106ZM55 90.6754C54.2887 90.6754 53.7106 90.0973 53.7106 89.386C53.7106 88.6747 54.2887 88.0966 55 88.0966C55.7113 88.0966 56.2894 88.6747 56.2894 89.386C56.2894 90.0973 55.7113 90.6754 55 90.6754ZM27.7041 81.2106C27.1712 79.7109 25.7424 78.6329 24.0631 78.6329C21.9303 78.6329 20.196 80.3672 20.196 82.5C20.196 84.6328 21.9303 86.3671 24.0631 86.3671C25.7424 86.3671 27.1724 85.2879 27.7041 83.7894H41.0862L50.7039 74.173V61.875H48.1262V72.1881H37.158C36.6251 70.6884 35.1963 69.6104 33.517 69.6104C31.3842 69.6104 29.6499 71.3448 29.6499 73.4775C29.6499 75.6103 31.3842 77.3447 33.517 77.3447C35.1963 77.3447 36.6263 76.2654 37.158 74.767H46.464L40.0192 81.2118H27.7041V81.2106ZM24.0631 83.7894C23.3518 83.7894 22.7737 83.2113 22.7737 82.5C22.7737 81.7887 23.3518 81.2106 24.0631 81.2106C24.7744 81.2106 25.3526 81.7887 25.3526 82.5C25.3526 83.2113 24.7732 83.7894 24.0631 83.7894ZM33.5158 74.7658C32.8044 74.7658 32.2263 74.1877 32.2263 73.4763C32.2263 72.765 32.8044 72.1869 33.5158 72.1869C34.2271 72.1869 34.8052 72.765 34.8052 73.4763C34.8052 74.1877 34.2259 74.7658 33.5158 74.7658ZM76.4842 77.3434C78.617 77.3434 80.3513 75.6091 80.3513 73.4763C80.3513 71.3436 78.617 69.6092 76.4842 69.6092C74.8049 69.6092 73.3749 70.6884 72.8432 72.1869H61.875V61.8738H59.2973V74.1706L68.915 83.787H82.2971C82.83 85.2867 84.2588 86.3647 85.9381 86.3647C88.0709 86.3647 89.8052 84.6303 89.8052 82.4976C89.8052 80.3648 88.0709 78.6304 85.9381 78.6304C84.2588 78.6304 82.8288 79.7097 82.2971 81.2081H69.982L63.5372 74.7633H72.8432C73.3749 76.2654 74.8049 77.3434 76.4842 77.3434ZM85.9381 81.2106C86.6494 81.2106 87.2275 81.7887 87.2275 82.5C87.2275 83.2113 86.6494 83.7894 85.9381 83.7894C85.2268 83.7894 84.6487 83.2113 84.6487 82.5C84.6487 81.7887 85.2268 81.2106 85.9381 81.2106ZM76.4842 72.1881C77.1956 72.1881 77.7737 72.7662 77.7737 73.4775C77.7737 74.1889 77.1956 74.767 76.4842 74.767C75.7729 74.767 75.1948 74.1889 75.1948 73.4775C75.1948 72.7662 75.7741 72.1881 76.4842 72.1881Z" fill="#FFFFFF"/>
</svg>
