<svg width="110" height="110" viewBox="0 0 110 110" fill="none" xmlns="http://www.w3.org/2000/svg">
<g opacity="0.6">
<path d="M55 73C62.7949 73 67 70.42 67 69.3636V65C64.024 66.6782 59.5017 67.5455 55 67.5455C50.4983 67.5455 45.976 66.6782 43 65V69.3636C43 70.42 47.2051 73 55 73Z" fill="#FFFFFF"/>
<path d="M55 55C62.7949 55 67 52.7425 67 51.8182V48C64.024 49.4684 59.5017 50.2273 55 50.2273C50.4983 50.2273 45.976 49.4684 43 48V51.8182C43 52.7425 47.2051 55 55 55Z" fill="#FFFFFF"/>
<path d="M55 63C62.7949 63 67 60.42 67 59.3636V55C64.024 56.6782 59.5017 57.5455 55 57.5455C50.4983 57.5455 45.976 56.6782 43 55V59.3636C43 60.42 47.2051 63 55 63Z" fill="#FFFFFF"/>
<path d="M55 47C61.6274 47 67 44.9853 67 42.5C67 40.0147 61.6274 38 55 38C48.3726 38 43 40.0147 43 42.5C43 44.9853 48.3726 47 55 47Z" fill="#FFFFFF"/>
<path d="M12.0741 82.4986L3.66661 90.9061V99.3357C1.53814 100.095 0 102.111 0 104.498C0 107.531 2.46763 109.998 5.49991 109.998C8.53219 109.998 10.9998 107.531 10.9998 104.498C10.9998 102.111 9.46168 100.095 7.33321 99.3357V92.4241L13.5921 86.1652H35.8099C37.1409 86.9865 38.5012 87.7547 39.9165 88.3945L40.3327 88.5815V96.4042L34.0738 102.665H30.8288C30.0698 100.536 28.0532 98.9983 25.6662 98.9983C22.634 98.9983 20.1663 101.466 20.1663 104.498C20.1663 107.531 22.634 109.998 25.6662 109.998C28.0532 109.998 30.0698 108.46 30.8288 106.332H35.5917L43.9993 97.924V85.8536L45.2111 84.5593C46.3459 84.9351 47.5045 85.2449 48.6797 85.4869L50.0492 91.3535L51.3563 91.4818C51.9723 91.5423 52.5608 91.5423 53.1658 91.5735V99.3375C51.0373 100.096 49.4992 102.113 49.4992 104.5C49.4992 107.532 51.9668 110 54.9991 110C58.0314 110 60.499 107.532 60.499 104.5C60.499 102.113 58.9608 100.096 56.8324 99.3375V91.5735C57.4374 91.5423 58.0277 91.5423 58.6419 91.4818L59.949 91.3535L61.3185 85.4869C62.4918 85.2449 63.6523 84.9351 64.7853 84.5593L65.9989 85.8554V97.924L74.4064 106.332H79.1693C79.9283 108.46 81.945 109.998 84.3319 109.998C87.3642 109.998 89.8318 107.531 89.8318 104.498C89.8318 101.466 87.3642 98.9983 84.3319 98.9983C81.945 98.9983 79.9283 100.536 79.1693 102.665H75.9244L69.6655 96.4061V88.5834L70.0817 88.3964C71.4951 87.7565 72.8554 86.9902 74.1883 86.1671H96.4061L102.665 92.4241V99.3357C100.536 100.095 98.9983 102.111 98.9983 104.498C98.9983 107.531 101.466 109.998 104.498 109.998C107.531 109.998 109.998 107.531 109.998 104.498C109.998 102.111 108.46 100.095 106.332 99.3357V90.9061L97.924 82.4986H77.0042L75.7209 78.2747C76.6211 77.4735 77.4754 76.6192 78.2747 75.7209L83.9708 77.4534L84.7371 76.3901C85.4484 75.4037 86.1102 74.3808 86.7189 73.3321H93.8358C94.5947 75.4606 96.6114 76.9987 98.9983 76.9987C102.031 76.9987 104.498 74.5311 104.498 71.4988C104.498 68.4665 102.031 65.9989 98.9983 65.9989C96.6114 65.9989 94.5947 67.537 93.8358 69.6655H88.5834L88.9353 68.8864L84.5593 64.7871C84.9351 63.6523 85.2449 62.4936 85.4869 61.3185L91.3535 59.949L91.4818 58.6419C91.5423 58.0259 91.5423 57.4374 91.5735 56.8324H99.3375C100.096 58.9608 102.113 60.499 104.5 60.499C107.532 60.499 110 58.0314 110 54.9991C110 51.9668 107.532 49.4992 104.5 49.4992C102.113 49.4992 100.096 51.0373 99.3375 53.1658H91.5735C91.5423 52.5608 91.5423 51.9705 91.4818 51.3563L91.3535 50.0492L85.4869 48.6797C85.2449 47.5064 84.9351 46.3459 84.5593 45.2129L88.9353 41.1136L88.5834 40.3327H93.8376C94.5966 42.4611 96.6132 43.9993 99.0002 43.9993C102.032 43.9993 104.5 41.5316 104.5 38.4994C104.5 35.4671 102.032 32.9995 99.0002 32.9995C96.6132 32.9995 94.5966 34.5376 93.8376 36.6661H86.7207C86.1121 35.6174 85.4521 34.5963 84.7408 33.6099L83.9744 32.5466L78.2765 34.2773C77.4754 33.3771 76.6211 32.5228 75.7227 31.7235L77.0061 27.4995H97.924L106.332 19.092V10.6625C108.46 9.9035 109.998 7.88687 109.998 5.49991C109.998 2.46763 107.531 0 104.498 0C101.466 0 98.9983 2.46763 98.9983 5.49991C98.9983 7.88687 100.536 9.9035 102.665 10.6625V17.574L96.4061 23.8329H74.1883C72.8573 23.0098 71.4951 22.2435 70.0817 21.6036L69.6655 21.4148V13.5921L75.9244 7.33321H79.1693C79.9283 9.46168 81.945 10.9998 84.3319 10.9998C87.3642 10.9998 89.8318 8.53219 89.8318 5.49991C89.8318 2.46763 87.3642 0 84.3319 0C81.945 0 79.9283 1.53814 79.1693 3.66661H74.4064L65.9989 12.0741V24.1446L64.7871 25.4389C63.6523 25.0631 62.4936 24.7533 61.3185 24.5113L59.949 18.6447L58.6419 18.5164C58.0259 18.4559 57.4337 18.4559 56.8324 18.4265V10.6625C58.9608 9.9035 60.499 7.88687 60.499 5.49991C60.499 2.46763 58.0314 0 54.9991 0C51.9668 0 49.4992 2.46763 49.4992 5.49991C49.4992 7.88687 51.0373 9.9035 53.1658 10.6625V18.4265C52.5645 18.4577 51.9705 18.4559 51.3563 18.5164L50.0492 18.6447L48.6797 24.5113C47.5064 24.7533 46.3459 25.0631 45.2129 25.4389L43.9993 24.1428V12.0741L35.5917 3.66661H30.8288C30.0698 1.53814 28.0532 0 25.6662 0C22.634 0 20.1663 2.46763 20.1663 5.49991C20.1663 8.53219 22.634 10.9998 25.6662 10.9998C28.0532 10.9998 30.0698 9.46168 30.8288 7.33321H34.0738L40.3327 13.5921V21.4148L39.9165 21.6018C38.503 22.2416 37.1427 23.0079 35.8099 23.8311H13.5921L7.33321 17.574V10.6625C9.46168 9.9035 10.9998 7.88687 10.9998 5.49991C10.9998 2.46763 8.53219 0 5.49991 0C2.46763 0 0 2.46763 0 5.49991C0 7.88687 1.53814 9.9035 3.66661 10.6625V19.092L12.0741 27.4995H32.9939L34.2773 31.7235C33.3789 32.5246 32.5228 33.3789 31.7235 34.2773L26.0274 32.5466L25.2611 33.6099C24.5498 34.5944 23.8879 35.6156 23.2774 36.6661H16.1606C15.4034 34.5376 13.3868 32.9995 10.9998 32.9995C7.96753 32.9995 5.49991 35.4671 5.49991 38.4994C5.49991 41.5316 7.96753 43.9993 10.9998 43.9993C13.3868 43.9993 15.4034 42.4611 16.1624 40.3327H21.4148L21.0628 41.1118L25.4389 45.2111C25.0631 46.3459 24.7533 47.5045 24.5113 48.6797L18.6447 50.0492L18.5164 51.3563C18.4559 51.9723 18.4559 52.5608 18.4247 53.1658H10.6625C9.9035 51.0373 7.88687 49.4992 5.49991 49.4992C2.46763 49.4992 0 51.9668 0 54.9991C0 58.0314 2.46763 60.499 5.49991 60.499C7.88687 60.499 9.9035 58.9608 10.6625 56.8324H18.4265C18.4577 57.4374 18.4577 58.0259 18.5182 58.6419L18.6465 59.949L24.5131 61.3185C24.7551 62.4918 25.0649 63.6523 25.4407 64.7853L21.0646 68.8845L21.4148 69.6655H16.1606C15.4034 67.537 13.3868 65.9989 10.9998 65.9989C7.96753 65.9989 5.49991 68.4665 5.49991 71.4988C5.49991 74.5311 7.96753 76.9987 10.9998 76.9987C13.3868 76.9987 15.4034 75.4606 16.1624 73.3321H23.2793C23.8879 74.3808 24.5479 75.4019 25.2592 76.3882L26.0256 77.4515L31.7235 75.7209C32.5246 76.6211 33.3789 77.4754 34.2773 78.2747L32.9921 82.4986H12.0741ZM38.4994 60.499V51.3325V42.166C38.4994 37.3517 46.7987 34.8328 54.9991 34.8328C63.1994 34.8328 71.4988 37.3517 71.4988 42.166V51.3325V60.499V69.6655C71.4988 74.4798 63.1994 76.9987 54.9991 76.9987C46.7987 76.9987 38.4994 74.4798 38.4994 69.6655V60.499Z" fill="#FFFFFF"/>
</g>
</svg>
