<svg width="110" height="111" viewBox="0 0 110 111" fill="none" xmlns="http://www.w3.org/2000/svg">
<g opacity="0.6">
<path d="M74.6251 11.228L69.1121 16.7411C67.2744 15.5925 65.4367 14.9034 63.3693 14.444V6.63379H58.0859V22.7136C64.9773 22.7136 70.4903 28.2266 70.4903 35.118C70.4903 42.0093 64.9773 47.5224 58.0859 47.5224V63.6022H63.3693V56.0217C65.4367 55.5623 67.2744 54.6434 69.1121 53.7246L74.6251 59.008L81.9759 51.6572L76.6926 45.9144C77.8411 44.0767 78.5302 42.239 78.9897 40.1716H86.5701V29.8346H78.9897C78.5302 27.7672 77.6114 25.9295 76.6926 24.0918L81.9759 18.8085L74.6251 11.228Z" fill="#FFFFFF"/>
<path d="M45.9121 35.1183C45.9121 42.0096 51.4252 47.5227 58.3165 47.5227V22.7139C51.4252 22.7139 45.9121 28.2269 45.9121 35.1183Z" fill="#FFFFFF"/>
<path d="M6.40022 62.4539C5.94079 64.5213 3.64368 67.7373 5.71108 72.1018L7.31906 75.7771C8.46762 76.9257 7.31906 77.8445 6.85964 80.8308C6.1705 84.5062 8.69733 87.9518 12.3727 88.4113C29.1416 90.9381 29.8308 90.4787 29.8308 90.2489V108.166L58.0852 105.41V101.735H81.2861L85.1912 106.558H98.7441C99.663 108.626 101.73 110.004 104.027 110.004C107.243 110.004 110 107.477 110 104.032C110 100.816 107.473 98.0591 104.027 98.0591C101.73 98.0591 99.663 99.4374 98.7441 101.505H87.4883L83.5832 96.6809H58.315V89.5598H87.2586C88.1774 91.6272 90.2448 93.0055 92.5419 93.0055C95.7579 93.0055 98.5144 90.4787 98.5144 87.033C98.5144 83.817 95.9876 81.0605 92.5419 81.0605C90.0151 81.0605 87.9477 82.4388 87.2586 84.5062H58.315V78.0743H74.3948L78.2998 73.0206H85.4209C86.3397 75.088 88.4071 76.4663 90.7042 76.4663C93.9202 76.4663 96.6767 73.9395 96.6767 70.4938C96.6767 67.2778 94.1499 64.5213 90.7042 64.5213C88.4071 64.5213 86.3397 65.8996 85.4209 67.967H75.773L72.0976 73.48H58.315V63.6025H53.0316V56.022C50.9642 55.5626 49.1265 54.6437 47.2888 53.7249L42.0055 59.0082L34.425 51.4278L39.7083 46.1444C38.5598 44.3067 37.8707 42.469 37.4112 40.4016H29.8308V29.8349H37.4112C37.8707 27.7675 38.7895 25.9298 39.7083 24.0921L34.425 18.579L41.7757 11.2283L47.0591 16.7414C48.8968 15.5928 50.9642 14.9037 52.8019 14.4442V6.63406H58.0852V1.58041C40.3975 -3.93266 26.1554 6.17464 18.8046 13.5254C15.1292 17.2008 13.2916 22.0247 13.2916 27.0784C12.8321 32.3617 15.359 33.9697 2.95455 49.5901C-5.31506 59.9271 6.40022 62.4539 6.40022 62.4539Z" fill="#FFFFFF"/>
</g>
</svg>
