<svg width="61" height="110" viewBox="0 0 61 110" fill="none" xmlns="http://www.w3.org/2000/svg">
<g opacity="0.6">
<path d="M30.5024 68C29.674 68 29 69.1233 29 70.504C29 71.8802 29.674 73 30.5024 73C31.3281 73 32 71.8802 32 70.504C31.9993 69.1233 31.3281 68 30.5024 68Z" fill="#FFFFFF"/>
<path d="M30.5036 64C26.9179 64 24 66.917 24 70.5036C24 74.0856 26.917 77 30.5036 77C34.0856 77 37 74.0856 37 70.5036C37 66.917 34.0856 64 30.5036 64ZM30.5036 75.008C28.0152 75.008 25.992 72.9875 25.992 70.5027C25.992 68.0143 28.0161 65.9911 30.5036 65.9911C32.9876 65.9911 35.0089 68.0152 35.0089 70.5027C35.008 72.9876 32.9875 75.008 30.5036 75.008Z" fill="#FFFFFF"/>
<path d="M56 58.6218H49.9287C49.2583 58.6218 48.7148 58.0816 48.7148 57.4153C48.7148 56.749 49.2583 56.2088 49.9287 56.2088H56V53.7947H49.9287C49.2583 53.7947 48.7148 53.2545 48.7148 52.5882C48.7148 51.9219 49.2583 51.3817 49.9287 51.3817H56V48.9676H49.9287C49.2583 48.9676 48.7148 48.4274 48.7148 47.7611C48.7148 47.0948 49.2583 46.5545 49.9287 46.5545H56V20H5V46.5523H11.0713C11.7417 46.5523 12.2852 47.0925 12.2852 47.7588C12.2852 48.4251 11.7417 48.9654 11.0713 48.9654H5V51.3794H11.0713C11.7417 51.3794 12.2852 51.9197 12.2852 52.5859C12.2852 53.2523 11.7417 53.7925 11.0713 53.7925H5V56.2065H11.0713C11.7417 56.2065 12.2852 56.7468 12.2852 57.4131C12.2852 58.0794 11.7417 58.6196 11.0713 58.6196H5V90H56V58.6218ZM30.5011 21.2074C38.536 21.2074 45.0732 27.705 45.0732 35.6911C45.0732 43.6771 38.536 50.1747 30.5011 50.1747C22.4663 50.1747 15.9291 43.6771 15.9291 35.6911C15.9291 27.705 22.4663 21.2074 30.5011 21.2074ZM47.9864 71.7613C47.9864 72.3269 47.5917 72.8154 47.0367 72.9389L43.1105 73.8101C42.8392 74.7504 42.4604 75.6575 41.9795 76.5218L44.1359 79.9068C44.4399 80.384 44.3703 81.0066 43.9686 81.4058L41.7654 83.5956C41.3637 83.9949 40.7374 84.064 40.2573 83.762L36.8525 81.6195C35.9874 82.0975 35.0739 82.4731 34.1226 82.7437L33.2461 86.6452C33.1219 87.1968 32.6295 87.589 32.0613 87.589H28.9429C28.3738 87.589 27.8823 87.1968 27.758 86.6452L26.8815 82.7428C25.9354 82.4731 25.0219 82.0966 24.1533 81.6186L20.7476 83.762C20.2675 84.064 19.6411 83.9949 19.2394 83.5956L17.0363 81.4058C16.6346 81.0066 16.565 80.384 16.8689 79.9068L19.0245 76.5227C18.5435 75.6629 18.1656 74.7549 17.8934 73.8094L13.9672 72.9382C13.4122 72.8148 13.0176 72.3253 13.0176 71.7606V68.6611C13.0176 68.0955 13.4122 67.6069 13.9672 67.4834L17.8934 66.6114C18.1647 65.671 18.5435 64.7631 19.0245 63.8997L16.868 60.5146C16.5641 60.0374 16.6337 59.4149 17.0354 59.0156L19.2386 56.8258C19.6402 56.4266 20.2675 56.3583 20.7476 56.6604L24.1515 58.8081C25.0112 58.3327 25.9248 57.9553 26.8806 57.6813L27.758 53.7762C27.8822 53.2246 28.3747 52.8324 28.9429 52.8324H32.0613C32.6303 52.8324 33.1219 53.2246 33.2461 53.7762L34.1235 57.6813C35.0793 57.9553 35.9928 58.3327 36.8526 58.8081L40.2565 56.6604C40.7366 56.3583 41.3639 56.4266 41.7656 56.8258L43.9687 59.0156C44.3704 59.4149 44.44 60.0374 44.1361 60.5146L41.9796 63.8997C42.4606 64.7639 42.8403 65.6718 43.1107 66.6123L47.0369 67.4835C47.5919 67.6069 47.9865 68.0964 47.9865 68.6611L47.9864 71.7613Z" fill="#FFFFFF"/>
<path d="M0 95H61V15H0V95ZM2.44018 18.6355C2.44018 17.9664 2.98627 17.4238 3.65977 17.4238H57.3392C58.0128 17.4238 58.5588 17.9664 58.5588 18.6355V91.3645C58.5588 92.0336 58.0127 92.5762 57.3392 92.5762H3.65977C2.98624 92.5762 2.44018 92.0336 2.44018 91.3645V18.6355Z" fill="#FFFFFF"/>
<path d="M40.3941 68.0956C40.1299 66.8659 39.6595 65.6933 38.996 64.6087C38.7459 64.2007 38.7459 63.6801 38.996 63.2721L41.0224 59.9649L40.1974 59.1125L36.9969 61.2118C36.6002 61.472 36.0929 61.4711 35.6971 61.21C34.6703 60.5326 33.5347 60.0447 32.322 59.76C31.8665 59.653 31.5111 59.2848 31.4093 58.8132L30.5852 55H29.4171L28.5931 58.8132C28.4913 59.2848 28.1358 59.653 27.6804 59.76C26.4675 60.0447 25.3319 60.5326 24.3052 61.21C23.9094 61.472 23.4031 61.472 23.0055 61.2118L19.8049 59.1125L18.98 59.9649L21.0063 63.2721C21.2564 63.6801 21.2564 64.2007 21.0063 64.6087C20.3429 65.6924 19.8725 66.8649 19.6074 68.0956C19.5056 68.5689 19.1484 68.9389 18.6903 69.0441L15 69.8956V71.1026L18.6903 71.9541C19.1485 72.0602 19.5056 72.4293 19.6074 72.9026C19.8742 74.1422 20.3437 75.3149 21.0046 76.3867C21.2565 76.7957 21.2565 77.3171 21.0063 77.7261L18.98 81.0332L19.8058 81.8865L23.0064 79.7927C23.4013 79.5342 23.905 79.5342 24.2999 79.7927C25.3487 80.4782 26.4834 80.9643 27.6744 81.2373C28.1325 81.3425 28.4906 81.7115 28.5933 82.1849L29.4173 86H30.5854L31.4095 82.1868C31.5121 81.7134 31.8693 81.3443 32.3274 81.2391C33.5271 80.9635 34.6619 80.4783 35.6983 79.7964C36.0932 79.5361 36.5987 79.5352 36.9945 79.7946L40.1951 81.8884L41.0209 81.0351L38.9945 77.7279C38.7444 77.3199 38.7444 76.7993 38.9937 76.3913C39.6571 75.3067 40.1275 74.1333 40.3926 72.9044C40.4944 72.4311 40.8516 72.0611 41.3097 71.9559L45 71.1044V69.8974L41.3097 69.0459C40.8533 68.9389 40.4961 68.5689 40.3943 68.0955L40.3941 68.0956ZM30.0051 79.4355C25.2345 79.4355 21.3537 75.4281 21.3537 70.5032C21.3537 65.5738 25.2343 61.5637 30.0051 61.5637C34.7714 61.5637 38.6495 65.5735 38.6495 70.5032C38.6495 75.4291 34.7714 79.4355 30.0051 79.4355Z" fill="#FFFFFF"/>
<path d="M30.5 106C31.8783 106 33 104.878 33 103.5C33 102.122 31.8784 101 30.5 101C29.1216 101 28 102.122 28 103.5C28 104.879 29.1216 106 30.5 106Z" fill="#FFFFFF"/>
<path d="M30.5 48C37.3923 48 43 42.3925 43 35.5C43 28.6074 37.3926 23 30.5 23C23.6075 23 18 28.6074 18 35.5C18 42.3925 23.6075 48 30.5 48ZM34.8063 34.041C34.2314 33.6584 34.0764 32.8822 34.4599 32.3073C34.8426 31.7324 35.6188 31.5773 36.1937 31.9609L39.9432 34.461C40.6822 34.9542 40.6867 36.0451 39.9432 36.5411L36.1937 39.0412C35.6161 39.4266 34.8408 39.2652 34.4599 38.6948C34.0773 38.1208 34.2323 37.3446 34.8063 36.961L36.9962 35.5011L34.8063 34.041ZM26.8139 42.6056L31.8139 27.6058C32.0324 26.9511 32.7415 26.5974 33.3944 26.8151C34.0491 27.0336 34.4028 27.7409 34.1851 28.3965L29.1851 43.3964C28.9684 44.0465 28.2657 44.4065 27.6046 44.1871C26.9499 43.9676 26.5963 43.2603 26.8139 42.6056ZM21.0568 34.461L24.8062 31.9609C25.3811 31.5782 26.1564 31.7333 26.54 32.3073C26.9226 32.8813 26.7676 33.6575 26.1936 34.041L24.0037 35.501L26.1936 36.9609C26.7685 37.3435 26.9235 38.1197 26.54 38.6946C26.1564 39.2705 25.3793 39.4228 24.8062 39.041L21.0568 36.5409C20.3177 36.0477 20.3132 34.9568 21.0568 34.4608V34.461Z" fill="#FFFFFF"/>
<path d="M0 101.52C0 106.196 3.86756 110 8.62123 110H52.3788C57.1322 110 61 106.196 61 101.52V98H0.000452892L0 101.52ZM30.5009 99.2005C33.1914 99.2005 35.381 101.354 35.381 104C35.381 106.647 33.1914 108.8 30.5009 108.8C27.8104 108.8 25.6208 106.647 25.6208 104C25.6208 101.353 27.8095 99.2005 30.5009 99.2005Z" fill="#FFFFFF"/>
<path d="M52.3792 0H8.6213C3.86781 0 0 3.80404 0 8.47965V12H61V8.47965C61 3.80426 57.1324 0 52.3787 0H52.3792ZM35.381 7.20004H25.5401C24.8666 7.20004 24.3205 6.66293 24.3205 6.00049C24.3205 5.33803 24.8666 4.80094 25.5401 4.80094L35.381 4.80007C36.0546 4.80007 36.6006 5.33718 36.6006 5.99962C36.6006 6.66295 36.0545 7.20004 35.381 7.20004V7.20004Z" fill="#FFFFFF"/>
</g>
</svg>
