<svg width="110" height="110" viewBox="0 0 110 110" fill="none" xmlns="http://www.w3.org/2000/svg">
<g opacity="0.6">
<path d="M110 96.2V102.238C110 106.524 106.536 110 102.266 110H7.73422C3.46378 110 0 106.524 0 102.238V96.2H8.59344V51.3506C8.59344 45.6454 13.2208 41 18.9066 41H31.625C31.625 41.69 31.625 41.69 31.625 42.1126V42.7554C31.625 43.76 31.625 45.14 31.625 46.1753H18.9066C16.0624 46.1753 13.75 48.4949 13.75 51.3506V96.2H44.6881V99.6506H65.3131V96.2H96.25V51.3506C96.25 48.4962 93.9388 46.1753 91.0934 46.1753H79.75C79.75 45.14 79.75 45.14 79.75 43.76C79.75 43.76 79.75 43.07 79.75 42.38C79.75 41.69 79.75 41.69 79.75 41H91.0947C96.7792 41 101.408 45.6442 101.408 51.3506V96.2H110Z" fill="#FFFFFF"/>
<path d="M68.9809 9.99991H76L68 1V8.90726C68 9.05197 68.0254 9.19524 68.0749 9.32875C68.1243 9.46226 68.1968 9.58335 68.2881 9.68501C68.3793 9.78666 68.4875 9.86684 68.6065 9.9209C68.7254 9.97495 68.8527 10.0018 68.9809 9.99991Z" fill="#FFFFFF"/>
<path d="M69.0028 13.0848C67.9899 13.0848 67.0182 12.6743 66.3007 11.9434C65.5831 11.2124 65.1782 10.2204 65.1745 9.18478V1.36298e-10H36.2481C35.3891 -7.95145e-06 34.5651 0.347905 33.9564 0.967595C33.3477 1.58729 33.0039 2.42828 33.0003 3.30652V61.637C32.9948 62.0766 33.0747 62.513 33.2355 62.9207C33.3962 63.3285 33.6346 63.6996 33.9367 64.0125C34.2389 64.3253 34.5988 64.5737 34.9956 64.7432C35.3923 64.9128 35.8181 65 36.2481 65H74.7522C75.6112 65 76.4352 64.6521 77.0439 64.0324C77.6526 63.4127 77.9963 62.5717 78 61.6935V13.0848H69.0028ZM39.9105 5.65217H59.6463C60.0128 5.65217 60.3644 5.80105 60.6236 6.06605C60.8827 6.33104 61.0284 6.69045 61.0284 7.06522C61.0284 7.43998 60.8827 7.79939 60.6236 8.06439C60.3644 8.32939 60.0128 8.47826 59.6463 8.47826H39.9105C39.544 8.47826 39.1925 8.32939 38.9333 8.06439C38.6741 7.79939 38.5285 7.43998 38.5285 7.06522C38.5285 6.69045 38.6741 6.33104 38.9333 6.06605C39.1925 5.80105 39.544 5.65217 39.9105 5.65217ZM39.9105 12.1522H59.6463C60.0128 12.1522 60.3644 12.301 60.6236 12.566C60.8827 12.831 61.0284 13.1905 61.0284 13.5652C61.0284 13.94 60.8827 14.2994 60.6236 14.5644C60.3644 14.8294 60.0128 14.9783 59.6463 14.9783H39.9105C39.544 14.9783 39.1925 14.8294 38.9333 14.5644C38.6741 14.2994 38.5285 13.94 38.5285 13.5652C38.5285 13.1905 38.6741 12.831 38.9333 12.566C39.1925 12.301 39.544 12.1522 39.9105 12.1522ZM41.7901 43.2391H39.9105C39.544 43.2391 39.1925 43.0903 38.9333 42.8253C38.6741 42.5603 38.5285 42.2009 38.5285 41.8261C38.5285 41.4513 38.6741 41.0919 38.9333 40.8269C39.1925 40.5619 39.544 40.413 39.9105 40.413H41.7901C42.1567 40.413 42.5082 40.5619 42.7674 40.8269C43.0266 41.0919 43.1722 41.4513 43.1722 41.8261C43.1722 42.2009 43.0266 42.5603 42.7674 42.8253C42.5082 43.0903 42.1567 43.2391 41.7901 43.2391ZM43.5039 29.5609C43.7628 29.2977 44.1131 29.15 44.4782 29.15C44.8434 29.15 45.1936 29.2977 45.4526 29.5609L46.8346 30.9739C47.0921 31.2387 47.2365 31.5968 47.2365 31.9701C47.2365 32.3434 47.0921 32.7016 46.8346 32.9663C46.5757 33.2295 46.2254 33.3772 45.8603 33.3772C45.4952 33.3772 45.1449 33.2295 44.8859 32.9663L43.5039 31.5533C43.368 31.4213 43.2598 31.2624 43.1858 31.0862C43.1119 30.9101 43.0737 30.7205 43.0737 30.5288C43.0737 30.3371 43.1119 30.1475 43.1858 29.9714C43.2598 29.7952 43.368 29.6364 43.5039 29.5043V29.5609ZM46.7794 52.7348L45.3973 54.1478C45.1384 54.411 44.7881 54.5587 44.423 54.5587C44.0578 54.5587 43.7076 54.411 43.4486 54.1478C43.1912 53.8831 43.0467 53.5249 43.0467 53.1516C43.0467 52.7783 43.1912 52.4202 43.4486 52.1554L44.8307 50.7424C45.0951 50.5109 45.4351 50.3899 45.783 50.4037C46.1308 50.4174 46.4608 50.5648 46.7069 50.8165C46.953 51.0681 47.0972 51.4055 47.1107 51.7611C47.1241 52.1168 47.0058 52.4645 46.7794 52.7348ZM59.287 57.9348H51.6995C51.6577 54.1418 50.4488 50.4586 48.2443 47.4076C47.2061 46.0067 46.5775 44.3335 46.4315 42.5822C46.2854 40.8309 46.6279 39.0731 47.4192 37.5126C48.2106 35.9522 49.4183 34.6531 50.9023 33.7659C52.3864 32.8787 54.0861 32.4398 55.8042 32.5C58.2188 32.6388 60.4853 33.7352 62.1216 35.556C63.7579 37.3767 64.635 39.7783 64.5664 42.25C64.493 44.0148 63.9166 45.7191 62.908 47.1533C60.6536 50.2853 59.3901 54.0474 59.287 57.9348ZM54.1181 27.7522V25.8304C54.1181 25.4557 54.2637 25.0963 54.5229 24.8313C54.7821 24.5663 55.1336 24.4174 55.5001 24.4174C55.8667 24.4174 56.2182 24.5663 56.4774 24.8313C56.7366 25.0963 56.8822 25.4557 56.8822 25.8304V27.7522C56.8822 28.1269 56.7366 28.4864 56.4774 28.7513C56.2182 29.0163 55.8667 29.1652 55.5001 29.1652C55.1336 29.1652 54.7821 29.0163 54.5229 28.7513C54.2637 28.4864 54.1181 28.1269 54.1181 27.7522ZM64.2209 30.8609L65.603 29.4478C65.8674 29.2163 66.2074 29.0954 66.5553 29.1091C66.9031 29.1228 67.2331 29.2703 67.4792 29.5219C67.7253 29.7736 67.8695 30.1109 67.883 30.4666C67.8964 30.8222 67.7781 31.1699 67.5517 31.4402L66.1696 32.8533C65.9107 33.1164 65.5604 33.2642 65.1953 33.2642C64.8301 33.2642 64.4799 33.1164 64.2209 32.8533C63.9635 32.5885 63.819 32.2304 63.819 31.8571C63.819 31.4838 63.9635 31.1256 64.2209 30.8609ZM67.4964 54.0348C67.2374 54.298 66.8871 54.4457 66.522 54.4457C66.1569 54.4457 65.8066 54.298 65.5477 54.0348L64.1656 52.6217C63.9392 52.3514 63.8209 52.0037 63.8343 51.6481C63.8478 51.2924 63.992 50.9551 64.2381 50.7034C64.4842 50.4518 64.8142 50.3044 65.162 50.2906C65.5098 50.2769 65.8499 50.3979 66.1143 50.6294L67.4964 52.0424C67.7538 52.3071 67.8983 52.6653 67.8983 53.0386C67.8983 53.4119 67.7538 53.77 67.4964 54.0348ZM71.0897 43.1826H69.2101C68.8436 43.1826 68.4921 43.0337 68.2329 42.7687C67.9737 42.5037 67.8281 42.1443 67.8281 41.7696C67.8281 41.3948 67.9737 41.0354 68.2329 40.7704C68.4921 40.5054 68.8436 40.3565 69.2101 40.3565H71.0897C71.4563 40.3565 71.8078 40.5054 72.067 40.7704C72.3262 41.0354 72.4718 41.3948 72.4718 41.7696C72.4718 42.1443 72.3262 42.5037 72.067 42.7687C71.8078 43.0337 71.4563 43.1826 71.0897 43.1826ZM71.0897 21.4783H39.9105C39.544 21.4783 39.1925 21.3294 38.9333 21.0644C38.6741 20.7994 38.5285 20.44 38.5285 20.0652C38.5285 19.6905 38.6741 19.331 38.9333 19.066C39.1925 18.801 39.544 18.6522 39.9105 18.6522H71.0897C71.4563 18.6522 71.8078 18.801 72.067 19.066C72.3262 19.331 72.4718 19.6905 72.4718 20.0652C72.4718 20.44 72.3262 20.7994 72.067 21.0644C71.8078 21.3294 71.4563 21.4783 71.0897 21.4783Z" fill="#FFFFFF"/>
</g>
</svg>
