<svg width="110" height="110" viewBox="0 0 110 110" fill="none" xmlns="http://www.w3.org/2000/svg">
<g opacity="0.6">
<path d="M0 26.354V98.0832C0 104.729 5.27083 110 11.9167 110H98.0833C104.729 110 110 104.729 110 98.0832V26.354H0ZM86.3958 66.4582C86.3958 66.9165 86.1667 67.3748 85.4792 67.3748L82.5 68.0623C81.8125 73.3332 79.75 78.3748 76.5417 82.2707L78.375 84.7915C78.6042 85.2498 78.6042 85.7082 78.1458 86.1665L76.0833 88.229C75.625 88.6873 75.1667 88.6873 74.7083 88.4582L72.1875 86.6248C68.0625 89.8332 63.25 91.8957 57.9792 92.5832L57.5208 95.7915C57.5208 96.2498 57.0625 96.7082 56.6042 96.7082H53.625C53.1667 96.7082 52.7083 96.479 52.7083 95.7915L52.0208 92.5832C46.5208 91.8957 41.7083 89.8332 37.8125 86.6248L35.2917 88.4582C34.8333 88.6873 34.375 88.6873 33.9167 88.229L31.8542 86.1665C31.3958 85.9373 31.3958 85.2498 31.625 84.7915L33.4583 82.2707C30.25 78.3748 28.1875 73.3332 27.5 68.0623L24.2917 67.604C23.8333 67.604 23.375 67.1457 23.375 66.6873V63.7082C23.375 63.2498 23.8333 62.7915 24.2917 62.7915L27.5 62.104C28.1875 56.8332 30.25 51.7915 33.4583 47.8957L31.625 45.1457C31.3958 44.6873 31.3958 44.229 31.8542 43.7707L33.9167 41.7082C34.375 41.2498 34.8333 41.2498 35.2917 41.479L37.8125 43.3123C41.9375 40.104 46.75 38.0415 52.0208 37.354L52.7083 34.1457C52.7083 33.6873 53.1667 33.229 53.625 33.229H56.6042C57.0625 33.229 57.5208 33.6873 57.5208 34.1457L57.9792 37.354C63.25 38.0415 68.2917 40.104 72.1875 43.3123L74.7083 41.479C75.1667 41.2498 75.625 41.2498 76.0833 41.7082L78.1458 43.7707C78.6042 44.229 78.6042 44.6873 78.375 45.1457L76.5417 47.8957C79.75 51.7915 81.8125 56.8332 82.5 62.104L85.7083 62.7915C86.1667 62.7915 86.625 63.2498 86.625 63.7082V66.4582H86.3958Z" fill="#FFFFFF"/>
<path d="M52.4765 76.3127C52.2474 75.8543 52.0182 75.396 51.3307 75.1668C51.1015 75.1668 50.8724 74.9377 50.6432 74.9377C48.8099 74.021 47.4349 72.8752 46.5182 71.271C46.289 70.8127 45.6015 70.3543 45.1432 70.3543L36.4349 69.896C35.289 69.896 34.1432 71.0418 34.6015 72.1877C36.4349 77.6877 40.3307 82.5002 46.0599 85.2502C48.3515 86.396 50.8724 87.0835 53.164 87.3127C54.3099 87.3127 55.4557 86.1668 54.9974 85.021L52.4765 76.3127Z" fill="#FFFFFF"/>
<path d="M54.9993 58.6665C51.3327 58.6665 48.3535 61.6457 48.3535 65.3123C48.3535 68.979 51.3327 71.729 54.9993 71.729C58.666 71.729 61.416 68.7498 61.416 65.3123C61.416 61.4165 58.666 58.6665 54.9993 58.6665Z" fill="#FFFFFF"/>
<path d="M38.959 55.4582L47.4382 57.5207C47.6673 57.5207 47.6673 57.5207 47.8965 57.5207C49.7298 55.9166 52.2507 54.7707 54.7715 54.7707H55.0007C55.459 54.7707 56.1465 54.5416 56.3757 54.0832L60.959 46.7499C61.6465 45.6041 60.959 44.2291 59.8132 43.9999C54.084 42.8541 47.8965 43.9999 42.8548 47.6666C40.7923 49.0416 38.959 51.1041 37.584 52.9374C37.1257 53.8541 37.584 55.2291 38.959 55.4582Z" fill="#FFFFFF"/>
<path d="M72.416 57.0628L65.7702 62.792C65.541 63.0212 65.3118 63.2503 65.3118 63.7087C65.3118 64.167 65.3118 64.6253 65.3118 65.0837C65.3118 67.3753 64.6243 69.4378 63.4785 71.042C63.4785 71.2712 63.4785 71.7295 63.4785 71.9587L66.6868 80.2087C67.1452 81.3545 68.7493 81.8128 69.666 80.8962C74.0202 77.0003 76.541 71.2712 76.541 65.0837C76.541 62.5628 76.0827 60.042 75.166 57.7503C74.9368 56.6045 73.3327 56.1462 72.416 57.0628Z" fill="#FFFFFF"/>
<path d="M97.8542 24.0625H110L85.9375 0V12.1458C85.9375 18.7917 91.2083 24.0625 97.8542 24.0625Z" fill="#FFFFFF"/>
<path d="M83.6458 12.1458V0H11.9167C5.27083 0 0 5.27083 0 11.9167V24.0625H90.2917C86.1667 21.5417 83.6458 17.1875 83.6458 12.1458ZM21.3125 14.6667C21.3125 15.8125 20.3958 16.5 19.4792 16.5H14.2083C13.0625 16.5 12.375 15.5833 12.375 14.6667V9.39583C12.375 8.25 13.2917 7.5625 14.2083 7.5625H19.4792C20.625 7.5625 21.3125 8.47917 21.3125 9.39583V14.6667ZM36.8958 14.6667C36.8958 15.8125 35.9792 16.5 35.0625 16.5H29.7917C28.6458 16.5 27.9583 15.5833 27.9583 14.6667V9.39583C27.9583 8.25 28.875 7.5625 29.7917 7.5625H35.0625C36.2083 7.5625 36.8958 8.47917 36.8958 9.39583V14.6667ZM52.25 14.6667C52.25 15.8125 51.3333 16.5 50.4167 16.5H45.1458C44 16.5 43.3125 15.5833 43.3125 14.6667V9.39583C43.3125 8.25 44.2292 7.5625 45.1458 7.5625H50.4167C51.5625 7.5625 52.25 8.47917 52.25 9.39583V14.6667Z" fill="#FFFFFF"/>
</g>
</svg>
