<svg width="110" height="92" viewBox="0 0 110 92" fill="none" xmlns="http://www.w3.org/2000/svg">
<path opacity="0.6" d="M51.9764 60.024C52.3738 60.2907 52.8003 60.5212 53.2807 60.6648C55.9485 61.4621 58.78 59.8708 59.604 57.1138C60.4284 54.3554 58.9339 51.4728 56.2661 50.6755C53.5984 49.8782 50.7673 51.4681 49.9429 54.2265C49.7872 54.7473 49.7392 55.2697 49.7412 55.7839L23.0577 73.758L51.9764 60.024Z" fill="#FFFFFF"/>
<path opacity="0.6" d="M54.9993 0C24.6723 0 0 24.4904 0 54.5938C0 67.1708 4.31786 78.7605 11.5456 88L12.5684 84.9037C11.8369 83.8965 11.1295 82.8706 10.4705 81.8114L13.7253 79.9489L12.2462 77.4029L8.97932 79.2707C7.2868 76.1745 5.91239 72.8823 4.87621 69.4477L8.52163 68.4791L7.75657 65.6386L4.11384 66.6085C3.29913 63.2085 2.82399 59.6832 2.72198 56.0633H6.48685V53.1256H2.72198C2.82399 49.5057 3.29913 45.9791 4.11384 42.5791L7.75389 43.5463L8.51894 40.7099L4.87621 39.7413C5.91105 36.3053 7.2868 33.0132 8.98066 29.9142L12.2462 31.7848L13.7253 29.2401L10.4705 27.3762C12.3563 24.3465 14.5521 21.5287 17.0043 18.9534L19.6485 21.578L21.741 19.5009L19.0968 16.8763C21.6913 14.4408 24.53 12.2625 27.5822 10.3906L29.4613 13.6188L32.0249 12.1506L30.1391 8.91178C33.2611 7.23174 36.5776 5.86613 40.0392 4.83893L41.015 8.4548L43.8725 7.69539L42.8981 4.08218C46.322 3.27347 49.8748 2.80317 53.5202 2.70058V6.4337H56.4784V2.70058C60.1252 2.80184 63.678 3.27347 67.1033 4.08218L66.1262 7.69539L68.9864 8.4548L69.9635 4.84026C73.425 5.86747 76.7403 7.23308 79.8623 8.91444L77.9791 12.1519L80.5401 13.6201L82.4165 10.392C85.4686 12.2652 88.3101 14.4448 90.9045 16.8803L88.259 19.5036L90.3515 21.5807L92.997 18.9573C95.4492 21.5327 97.6437 24.3505 99.5295 27.3788L96.2773 29.2414L97.7578 31.7861L101.021 29.9182C102.713 33.0172 104.089 36.3079 105.124 39.744L101.485 40.7112L102.247 43.5477L105.886 42.5804C106.701 45.9805 107.176 49.5057 107.277 53.1256H103.519V56.062H107.277C107.175 59.6819 106.7 63.2085 105.886 66.6072L102.245 65.6413L101.482 68.4804L105.124 69.4463C104.089 72.881 102.713 76.1731 101.021 79.2694L97.7538 77.4015L96.2747 79.9476L99.5282 81.8101C98.8691 82.8693 98.1618 83.8952 97.4303 84.9024L98.4544 87.9987C105.682 78.7578 110 67.1694 110 54.5925C109.999 24.4891 85.3263 0 54.9993 0Z" fill="#FFFFFF"/>
</svg>
