<svg width="136" height="96" viewBox="0 0 136 96" fill="none" xmlns="http://www.w3.org/2000/svg">
<path d="M88 59.2371C85.9456 63.1704 84.7904 67.5371 84.6228 72.0026C84.4551 76.4682 85.2795 80.9142 87.0329 84.9999H19.1115C14.6815 85.0136 10.3901 83.4051 7 80.4602L52.1929 49L59.073 54.8335C60.1057 55.7057 61.3987 56.1822 62.7328 56.1822C64.0669 56.1822 65.36 55.7057 66.3927 54.8335L73.2727 49L88 59.2371Z" fill="#30C69D"/>
<path d="M2.83276 9L48 45.8986L3.20897 76C1.1234 72.9074 0.00650688 69.2664 0.000127786 65.5395V18.975C-0.0128886 15.4508 0.968728 11.9941 2.83276 9Z" fill="#30C69D"/>
<path d="M126 18.9818V47.1383C120.202 44.3761 113.64 43.6496 107.377 45.0765C101.114 46.5034 95.5167 50.0002 91.4931 55L78 45.9237L123.147 9C125.017 11.9938 126.006 15.453 126 18.9818Z" fill="#30C69D"/>
<path d="M120 4.97011L66.6961 48.6758C65.65 49.5321 64.3402 50 62.9889 50C61.6375 50 60.3277 49.5321 59.2816 48.6758L6 4.97011C9.50463 1.76789 14.0798 -0.00514736 18.825 1.12249e-05H107.175C111.92 -0.00514736 116.495 1.76789 120 4.97011Z" fill="#30C69D"/>
<path d="M113.522 50C109.071 49.9956 104.718 51.3408 101.015 53.8654C97.3125 56.39 94.4253 59.9806 92.719 64.1829C91.0127 68.3852 90.564 73.0104 91.4297 77.4735C92.2954 81.9365 94.4366 86.0368 97.5824 89.2556C100.728 92.4744 104.737 94.6672 109.102 95.5564C113.468 96.4457 117.993 95.9915 122.105 94.2514C126.218 92.5112 129.733 89.5632 132.207 85.7804C134.68 81.9976 136 77.5499 136 73C135.994 66.9057 133.625 61.0623 129.411 56.7509C125.198 52.4394 119.484 50.0118 113.522 50ZM128.71 65.6365L110.072 84.7107C109.789 85.0058 109.451 85.2402 109.079 85.4002C108.706 85.5603 108.306 85.6427 107.902 85.6427C107.498 85.6427 107.098 85.5603 106.725 85.4002C106.353 85.2402 106.015 85.0058 105.732 84.7107L98.3554 77.1697C97.7799 76.5815 97.4566 75.7837 97.4566 74.9518C97.4566 74.1199 97.7799 73.3221 98.3554 72.7339C98.9308 72.1456 99.7113 71.8152 100.525 71.8152C101.339 71.8152 102.119 72.1456 102.695 72.7339L107.902 78.0569L124.37 61.2449C124.653 60.9499 124.991 60.7155 125.363 60.5554C125.736 60.3954 126.136 60.313 126.54 60.313C126.944 60.313 127.344 60.3954 127.717 60.5554C128.089 60.7155 128.427 60.9499 128.71 61.2449C128.996 61.537 129.222 61.8844 129.374 62.2669C129.527 62.6493 129.604 63.0591 129.6 63.4722C129.596 63.8853 129.511 64.2934 129.351 64.6727C129.191 65.0519 128.958 65.3947 128.666 65.6808L128.71 65.6365Z" fill="#30C69D"/>
</svg>
