<svg width="139" height="69" viewBox="0 0 139 69" fill="none" xmlns="http://www.w3.org/2000/svg">
<path d="M19.2812 69H5.03125L5.125 61.6406H19.2812C24.1562 61.6406 28.2188 60.625 31.4688 58.5938C34.7188 56.5312 37.1562 53.6562 38.7812 49.9688C40.4375 46.25 41.2656 41.9062 41.2656 36.9375V32.7656C41.2656 28.8594 40.7969 25.3906 39.8594 22.3594C38.9219 19.2969 37.5469 16.7188 35.7344 14.625C33.9219 12.5 31.7031 10.8906 29.0781 9.79688C26.4844 8.70312 23.5 8.15625 20.125 8.15625H4.75V0.75H20.125C24.5938 0.75 28.6719 1.5 32.3594 3C36.0469 4.46875 39.2188 6.60938 41.875 9.42188C44.5625 12.2031 46.625 15.5781 48.0625 19.5469C49.5 23.4844 50.2188 27.9219 50.2188 32.8594V36.9375C50.2188 41.875 49.5 46.3281 48.0625 50.2969C46.625 54.2344 44.5469 57.5938 41.8281 60.375C39.1406 63.1562 35.8906 65.2969 32.0781 66.7969C28.2969 68.2656 24.0312 69 19.2812 69ZM9.85938 0.75V69H0.8125V0.75H9.85938ZM81.7656 48.375L95.3125 0.75H101.875L98.0781 19.2656L83.5 69H76.9844L81.7656 48.375ZM67.75 0.75L78.5312 47.4375L81.7656 69H75.2969L58.75 0.75H67.75ZM119.406 47.3906L129.953 0.75H139L122.5 69H116.031L119.406 47.3906ZM102.859 0.75L116.031 48.375L120.812 69H114.297L100.234 19.2656L96.3906 0.75H102.859Z" fill="url(#paint0_linear_1761_5773)"/>
<defs>
<linearGradient id="paint0_linear_1761_5773" x1="25.2727" y1="89.0179" x2="120.267" y2="-7.57221" gradientUnits="userSpaceOnUse">
<stop stop-color="#00A983"/>
<stop offset="0.494792" stop-color="white"/>
<stop offset="1" stop-color="#3162AC"/>
</linearGradient>
</defs>
</svg>
