<svg width="108" height="69" viewBox="0 0 108 69" fill="none" xmlns="http://www.w3.org/2000/svg">
<path d="M18.6719 69H4.42188L4.51562 61.6406H18.6719C23.5469 61.6406 27.6094 60.625 30.8594 58.5938C34.1094 56.5312 36.5469 53.6562 38.1719 49.9688C39.8281 46.25 40.6562 41.9062 40.6562 36.9375V32.7656C40.6562 28.8594 40.1875 25.3906 39.25 22.3594C38.3125 19.2969 36.9375 16.7188 35.125 14.625C33.3125 12.5 31.0938 10.8906 28.4688 9.79688C25.875 8.70312 22.8906 8.15625 19.5156 8.15625H4.14062V0.75H19.5156C23.9844 0.75 28.0625 1.5 31.75 3C35.4375 4.46875 38.6094 6.60938 41.2656 9.42188C43.9531 12.2031 46.0156 15.5781 47.4531 19.5469C48.8906 23.4844 49.6094 27.9219 49.6094 32.8594V36.9375C49.6094 41.875 48.8906 46.3281 47.4531 50.2969C46.0156 54.2344 43.9375 57.5938 41.2188 60.375C38.5312 63.1562 35.2812 65.2969 31.4688 66.7969C27.6875 68.2656 23.4219 69 18.6719 69ZM9.25 0.75V69H0.203125V0.75H9.25ZM107.875 61.6406V69H61.6562V61.6406H107.875ZM106.375 7.3125L63.8125 69H58.2344V62.25L100.75 0.75H106.375V7.3125ZM102.531 0.75V8.15625H58.8438V0.75H102.531Z" fill="url(#paint0_linear_2292_7868)"/>
<defs>
<linearGradient id="paint0_linear_2292_7868" x1="10.2727" y1="89.0179" x2="105.267" y2="-7.57221" gradientUnits="userSpaceOnUse">
<stop stop-color="#00A983"/>
<stop offset="0.494792" stop-color="white"/>
<stop offset="1" stop-color="#3162AC"/>
</linearGradient>
</defs>
</svg>
