<svg width="82" height="74" viewBox="0 0 82 74" fill="none" xmlns="http://www.w3.org/2000/svg">
<path d="M45.5975 45.9073L45.8849 46.8651L45.5975 45.9073ZM36.4025 45.9073L36.1151 46.8651L36.4025 45.9073ZM6.70122 36.9969L6.98857 36.0391L6.70122 36.9969ZM75.2988 36.9969L75.0114 36.0391L75.2988 36.9969ZM40 35.2872C40 35.8394 40.4477 36.2872 41 36.2872C41.5523 36.2872 42 35.8394 42 35.2872H40ZM9 15.715H73V13.715H9V15.715ZM80 22.7151V29.3342H82V22.7151H80ZM2 29.3342V22.7151H0V29.3342H2ZM75.0114 36.0391L45.3102 44.9495L45.8849 46.8651L75.5861 37.9547L75.0114 36.0391ZM36.6898 44.9495L6.98857 36.0391L6.41388 37.9547L36.1151 46.8651L36.6898 44.9495ZM45.3102 44.9495C42.4986 45.793 39.5014 45.793 36.6898 44.9495L36.1151 46.8651C39.3016 47.8211 42.6984 47.8211 45.8849 46.8651L45.3102 44.9495ZM0 29.3342C0 33.3087 2.60701 36.8127 6.41388 37.9547L6.98857 36.0391C4.02769 35.1508 2 32.4255 2 29.3342H0ZM80 29.3342C80 32.4255 77.9723 35.1508 75.0114 36.0391L75.5861 37.9547C79.393 36.8127 82 33.3087 82 29.3342H80ZM73 15.715C76.866 15.715 80 18.849 80 22.7151H82C82 17.7445 77.9706 13.715 73 13.715V15.715ZM9 13.715C4.02943 13.715 0 17.7445 0 22.7151H2C2 18.849 5.13402 15.715 9 15.715V13.715ZM40 28.43V35.2872H42V28.43H40ZM76.6668 35.2855V56.9998H78.6668V35.2855H76.6668ZM61.6668 72H20.3335V74H61.6668V72ZM5.3335 56.9998V35.2855H3.3335V56.9998H5.3335ZM20.3335 72C12.0492 72 5.3335 65.2842 5.3335 56.9998H3.3335C3.3335 66.3888 10.9447 74 20.3335 74V72ZM76.6668 56.9998C76.6668 65.2842 69.9511 72 61.6668 72V74C71.0557 74 78.6668 66.3888 78.6668 56.9998H76.6668ZM35.6666 2H46.3333V0H35.6666V2ZM53.3333 9.00009V14.7144H55.3333V9.00009H53.3333ZM28.6666 14.7144V9.00009H26.6666V14.7144H28.6666ZM46.3333 2C50.1992 2 53.3333 5.13403 53.3333 9.00009H55.3333C55.3333 4.02949 51.3038 0 46.3333 0V2ZM35.6666 0C30.696 0 26.6666 4.02949 26.6666 9.00009H28.6666C28.6666 5.13404 31.8006 2 35.6666 2V0Z" fill="#30C69D"/>
</svg>
