<svg width="20" height="20" viewBox="0 0 20 20" fill="none" xmlns="http://www.w3.org/2000/svg">
<path fill-rule="evenodd" clip-rule="evenodd" d="M10 0C4.47715 0 0 4.47715 0 10C0 15.5228 4.47715 20 10 20C15.5228 20 20 15.5228 20 10C20 4.47715 15.5228 0 10 0ZM14.7952 7.5122C14.8976 7.46342 14.9488 7.31708 14.9488 7.21952C14.8464 6.63415 14.3343 6.19512 13.6685 6.14634C13.4393 6.13543 13.1844 6.12207 12.9142 6.1079L12.9142 6.1079L12.9142 6.1079C11.9771 6.05878 10.8557 6 9.98121 6C8.85454 6 7.36939 6.04878 6.29393 6.14634C5.62817 6.19512 5.11605 6.68293 5.01362 7.2683C4.96241 7.36586 5.06483 7.46342 5.16726 7.5122L9.67394 9.85367C9.87879 9.95123 10.0836 9.95123 10.2885 9.85367L14.1806 7.80488L14.7952 7.5122ZM15 12.5366V8.29267L14.2318 8.68291L10.6982 10.5366C10.4933 10.6341 10.2373 10.6829 10.0324 10.6829C9.82756 10.6829 9.5715 10.6341 9.36665 10.5366L5.833 8.68291L5.06482 8.29267V12.5366C5.06482 13.2195 5.62815 13.8049 6.34513 13.8537C6.62294 13.8663 6.92809 13.8821 7.24734 13.8987H7.24735H7.24736C8.16397 13.9463 9.19679 14 10.0324 14C11.1591 14 12.6442 13.9512 13.7197 13.8537C14.4367 13.8049 15 13.2195 15 12.5366Z" fill="#30C69D"/>
</svg>
