<svg width="67" height="82" viewBox="0 0 67 82" fill="none" xmlns="http://www.w3.org/2000/svg">
<path d="M33.9799 80.5977L34.4598 81.475L33.9799 80.5977ZM33.0201 80.5977L32.5402 81.475L33.0201 80.5977ZM33.0201 1.12268L32.5402 0.245356L33.0201 1.12268ZM33.9799 1.12268L33.5 2L33.9799 1.12268ZM6.20097 65.9274L6.68088 65.05L6.20097 65.9274ZM60.799 65.9274L60.3191 65.05L60.799 65.9274ZM65.4799 18.3534L65.9598 17.4761L65.4799 18.3534ZM1.5201 18.3534L2 19.2308L1.5201 18.3534ZM31.4687 48.8838L30.7616 49.5909C31.1522 49.9815 31.7853 49.9815 32.1758 49.5909L31.4687 48.8838ZM24.0509 40.0517C23.6603 39.6612 23.0272 39.6612 22.6366 40.0517C22.2461 40.4423 22.2461 41.0754 22.6366 41.466L24.0509 40.0517ZM48.4259 33.341C48.8164 32.9504 48.8164 32.3173 48.4259 31.9267C48.0353 31.5362 47.4022 31.5362 47.0116 31.9267L48.4259 33.341ZM65 19.2308V57.1542H67V19.2308H65ZM2 57.1542V19.2308H0V57.1542H2ZM2 19.2308L33.5 2L32.5402 0.245356L1.04019 17.4761L2 19.2308ZM33.5 2L65 19.2308L65.9598 17.4761L34.4598 0.245357L33.5 2ZM60.3191 65.05L33.5 79.7203L34.4598 81.475L61.2789 66.8047L60.3191 65.05ZM33.5 79.7203L6.68088 65.05L5.72107 66.8047L32.5402 81.475L33.5 79.7203ZM33.5 79.7203H33.5L32.5402 81.475C33.1382 81.8021 33.8617 81.8021 34.4598 81.475L33.5 79.7203ZM33.5 2L33.5 2L34.4598 0.245357C33.8617 -0.081785 33.1382 -0.0817859 32.5402 0.245356L33.5 2ZM0 57.1542C0 61.1748 2.19365 64.8752 5.72107 66.8047L6.68088 65.05C3.79481 63.4713 2 60.4438 2 57.1542H0ZM65 57.1542C65 60.4438 63.2052 63.4713 60.3191 65.05L61.2789 66.8047C64.8063 64.8752 67 61.1748 67 57.1542H65ZM67 19.2308C67 18.4997 66.6012 17.827 65.9598 17.4761L65 19.2308H67ZM2 19.2308L2 19.2308L1.04019 17.4761C0.398848 17.8269 0 18.4997 0 19.2308H2ZM32.1758 48.1767L24.0509 40.0517L22.6366 41.466L30.7616 49.5909L32.1758 48.1767ZM32.1758 49.5909L48.4259 33.341L47.0116 31.9267L30.7616 48.1767L32.1758 49.5909Z" fill="#30C69D"/>
</svg>
