<svg width="80" height="45" viewBox="0 0 80 45" fill="none" xmlns="http://www.w3.org/2000/svg">
<path fill-rule="evenodd" clip-rule="evenodd" d="M22.5879 20.5234V3.76367H29.8861L46.7546 26.8345V10.0017C50.0791 14.6232 52.6405 19.4639 54.5703 24.469V41.2287H47.8335L30.4037 17.4089V34.9906C27.0879 30.3691 24.5177 25.5284 22.5879 20.5234Z" fill="white"/>
<path fill-rule="evenodd" clip-rule="evenodd" d="M76.8772 3.87254C74.9035 6.79521 72.4825 7.19708 69.8772 6.60341C73.3158 5.96408 75.2456 3.67161 75.8597 0C75.8948 1.644 75.886 3.27887 75.0176 4.62147C75.6755 4.51187 76.272 4.19221 76.8772 3.87254ZM54.5702 20.1025V12.1839C54.5702 11.435 54.8597 10.7865 55.4211 10.3115C55.9737 9.83661 56.6404 9.65395 57.3509 9.80008C58.5527 10.0375 59.8158 10.0923 61.0878 10.0923C64.0878 10.0923 66.8071 9.02375 68.7018 7.05094C68.5 6.90481 68.3071 6.75868 68.1141 6.61254C68.6053 5.69921 69.0965 4.79501 69.5965 3.88167C68.2983 4.31094 66.9825 4.42967 65.7106 4.14654C63.1667 3.57114 63.1404 1.3426 57.079 1.3426C51.693 1.3426 46.772 5.35214 46.772 10.0101C49.772 13.1886 52.3597 16.5588 54.5702 20.1025ZM61.9913 3.76294C61.5176 4.14654 61.0176 4.27441 60.4211 4.10087C59.9474 3.96387 59.4649 3.54374 59.2281 3.11447C59.7632 2.14634 61.3685 3.40674 61.9913 3.76294Z" fill="#3162AC"/>
<path fill-rule="evenodd" clip-rule="evenodd" d="M0 37.7484C1.97368 40.6711 4.40351 41.073 7 40.4793C3.5614 39.84 1.63158 37.5475 1.01754 33.8759C0.982456 35.5199 0.982456 37.1548 1.85965 38.4974C1.20175 38.3878 0.605263 38.059 0 37.7484ZM22.5877 24.8887V32.8073C22.5877 33.5562 22.2982 34.2047 21.7368 34.6796C21.1842 35.1546 20.5175 35.3372 19.807 35.1911C13.7456 35.1911 13.7281 37.4196 11.1754 37.995C9.90351 38.2873 8.57895 38.1594 7.28947 37.7302C7.7807 38.6435 8.27193 39.5477 8.77193 40.461C8.57018 40.6072 8.37719 40.7533 8.18421 40.8994C10.0789 42.8722 12.7895 43.9408 15.7982 43.9408C21.4211 43.9408 30.4035 42.6165 30.4035 34.981C27.386 31.8117 24.7982 28.4324 22.5877 24.8887ZM14.886 37.6388C15.5088 37.2826 17.114 36.0222 17.6491 36.9904C17.4123 37.4196 16.9298 37.8489 16.4561 37.9768C15.8509 38.1412 15.3509 38.0133 14.886 37.6388Z" fill="#00A983"/>
</svg>
