<svg width="200" height="45" viewBox="0 0 200 45" fill="none" xmlns="http://www.w3.org/2000/svg">
<path fill-rule="evenodd" clip-rule="evenodd" d="M73.3068 41.2277V19.1798H75.5437L88.8858 36.8528V19.1798H91.2191V41.2368H89.3156L75.6402 23.1528V41.2368H73.3068V41.2277ZM64.2279 44.9998H63.6489V15.4077H64.2279V44.9998ZM108.526 41.2277V35.6472L98.2103 19.1798H101.114L109.772 33.3547L118.482 19.1798H121.263L110.947 35.6198V41.2277H108.526ZM144.052 38.2502C142.017 40.4879 139.421 41.6021 136.272 41.6021C133.123 41.6021 130.544 40.4879 128.526 38.2593C126.509 36.0308 125.5 33.3456 125.5 30.1946C125.5 27.0619 126.517 24.3858 128.552 22.1481C130.588 19.9105 133.184 18.7962 136.333 18.7962C139.482 18.7962 142.061 19.9105 144.079 22.139C146.096 24.3675 147.105 27.0527 147.105 30.2037C147.105 33.3365 146.088 36.0125 144.052 38.2502ZM130.359 36.661C131.947 38.4237 133.938 39.3097 136.333 39.3097C138.737 39.3097 140.719 38.4329 142.28 36.6793C143.842 34.9257 144.623 32.7702 144.623 30.2037C144.623 27.6647 143.833 25.5092 142.245 23.7465C140.658 21.9837 138.666 21.0978 136.272 21.0978C133.868 21.0978 131.886 21.9746 130.324 23.7282C128.763 25.4818 127.982 27.6373 127.982 30.2037C127.982 32.7428 128.772 34.8983 130.359 36.661ZM155.342 41.2277V19.1798H157.737V32.3501L169.895 19.1798H172.982L163.903 28.8246L173.377 41.2368H170.377L162.237 30.5599L157.728 35.3184V41.2368H155.342V41.2277ZM194.947 35.4006L189.202 21.9198L183.421 35.4006L180.912 41.2277H178.465L188.114 19.0154H190.351L200 41.2277H197.43L194.947 35.4006Z" fill="#506E77"/>
<path fill-rule="evenodd" clip-rule="evenodd" d="M22.5879 20.5224V3.7627H29.8861L46.7546 26.8335V10.0008C50.0791 14.6222 52.6405 19.4629 54.5703 24.468V41.2277H47.8335L30.4037 17.4079V34.9896C27.0879 30.3681 24.5177 25.5275 22.5879 20.5224Z" fill="white"/>
<path fill-rule="evenodd" clip-rule="evenodd" d="M76.8772 3.87254C74.9035 6.79521 72.4825 7.19708 69.8772 6.60341C73.3158 5.96408 75.2456 3.67161 75.8597 0C75.8948 1.644 75.886 3.27887 75.0176 4.62147C75.6755 4.51187 76.272 4.19221 76.8772 3.87254ZM54.5702 20.1025V12.1839C54.5702 11.435 54.8597 10.7865 55.4211 10.3115C55.9737 9.83661 56.6404 9.65395 57.3509 9.80008C58.5527 10.0375 59.8158 10.0923 61.0878 10.0923C64.0878 10.0923 66.8071 9.02375 68.7018 7.05094C68.5 6.90481 68.3071 6.75868 68.1141 6.61254C68.6053 5.69921 69.0965 4.79501 69.5965 3.88167C68.2983 4.31094 66.9825 4.42967 65.7106 4.14654C63.1667 3.57114 63.1404 1.3426 57.079 1.3426C51.693 1.3426 46.772 5.35214 46.772 10.0101C49.772 13.1886 52.3597 16.5588 54.5702 20.1025ZM61.9913 3.76294C61.5176 4.14654 61.0176 4.27441 60.4211 4.10087C59.9474 3.96387 59.4649 3.54374 59.2281 3.11447C59.7632 2.14634 61.3685 3.40674 61.9913 3.76294Z" fill="#3162AC"/>
<path fill-rule="evenodd" clip-rule="evenodd" d="M0 37.7479C1.97368 40.6706 4.40351 41.0725 7 40.4788C3.5614 39.8395 1.63158 37.547 1.01754 33.8754C0.982456 35.5194 0.982456 37.1543 1.85965 38.4969C1.20175 38.3873 0.605263 38.0585 0 37.7479ZM22.5877 24.8882V32.8068C22.5877 33.5557 22.2982 34.2042 21.7368 34.6791C21.1842 35.1541 20.5175 35.3367 19.807 35.1906C13.7456 35.1906 13.7281 37.4191 11.1754 37.9945C9.90351 38.2868 8.57895 38.1589 7.28947 37.7297C7.7807 38.643 8.27193 39.5472 8.77193 40.4605C8.57018 40.6067 8.37719 40.7528 8.18421 40.8989C10.0789 42.8717 12.7895 43.9403 15.7982 43.9403C21.4211 43.9403 30.4035 42.616 30.4035 34.9805C27.386 31.8113 24.7982 28.4319 22.5877 24.8882ZM14.886 37.6383C15.5088 37.2821 17.114 36.0217 17.6491 36.9899C17.4123 37.4191 16.9298 37.8484 16.4561 37.9763C15.8509 38.1407 15.3509 38.0128 14.886 37.6383Z" fill="#00A983"/>
</svg>
