<svg width="20" height="20" viewBox="0 0 20 20" fill="none" xmlns="http://www.w3.org/2000/svg">
<path fill-rule="evenodd" clip-rule="evenodd" d="M10 0C4.47715 0 0 4.47715 0 10C0 15.5228 4.47715 20 10 20C15.5228 20 20 15.5228 20 10C20 4.47715 15.5228 0 10 0ZM7.29054 5.16145L6.27751 5.95055C4.94089 9.64464 8.66045 15.0037 12.5585 15L13.6399 14.3096L13.9255 13.9417C14.4003 13.3301 12.4779 11.4803 11.7564 11.8692L10.7682 12.4205C9.86467 12.9077 7.30497 9.21992 8.0679 8.53001L8.9194 7.78172C9.52846 7.23064 8.46289 4.77556 7.73092 5.0166L7.29054 5.16145Z" fill="#30C69D"/>
</svg>
