<svg width="20" height="20" viewBox="0 0 20 20" fill="none" xmlns="http://www.w3.org/2000/svg">
<path fill-rule="evenodd" clip-rule="evenodd" d="M10 0C4.47715 0 0 4.47715 0 10C0 15.5228 4.47715 20 10 20C15.5228 20 20 15.5228 20 10C20 4.47715 15.5228 0 10 0ZM10.0732 6C7.82708 6 6 7.80282 6 10.0344C6 11.4223 6.80938 12.7921 7.66718 13.7892C8.10127 14.2938 8.56201 14.7198 8.96841 15.0228C9.17128 15.174 9.36627 15.2989 9.54228 15.3875C9.70728 15.4706 9.8957 15.5429 10.0732 15.5429C10.2506 15.5429 10.4391 15.4706 10.6041 15.3875C10.7801 15.2989 10.9751 15.174 11.1779 15.0228C11.5843 14.7198 12.0451 14.2938 12.4792 13.7892C13.337 12.7921 14.1463 11.4223 14.1463 10.0344C14.1463 7.80282 12.3193 6 10.0732 6ZM8.67676 9.84037C8.67676 10.6116 9.302 11.2369 10.0733 11.2369C10.8445 11.2369 11.4698 10.6116 11.4698 9.84037C11.4698 9.0691 10.8445 8.44386 10.0733 8.44386C9.302 8.44386 8.67676 9.0691 8.67676 9.84037Z" fill="#30C69D"/>
</svg>
