<svg width="82" height="82" viewBox="0 0 82 82" fill="none" xmlns="http://www.w3.org/2000/svg">
<path d="M67.2165 43.6792L66.4833 42.9992L67.2165 43.6792ZM38.3209 14.7836L39.0009 15.5168L38.3209 14.7836ZM80.9362 8.79481L81.9277 8.92449L80.9362 8.79481ZM73.2052 1.0638L73.3349 2.05536L73.2052 1.0638ZM20.539 51.9034L21.2461 51.1963L20.539 51.9034ZM18.9588 43.0323L19.8567 43.4725L18.9588 43.0323ZM30.0967 61.461L29.3896 62.1682L30.0967 61.461ZM38.9677 63.0413L38.5275 62.1433L38.9677 63.0413ZM24.5803 34.3032C24.1898 33.9127 23.5566 33.9127 23.1661 34.3032C22.7756 34.6937 22.7756 35.3269 23.1661 35.7174L24.5803 34.3032ZM46.2826 58.8339C46.6731 59.2245 47.3063 59.2245 47.6968 58.8339C48.0873 58.4434 48.0873 57.8103 47.6968 57.4197L46.2826 58.8339ZM17.3564 66.0579C17.747 65.6673 17.7469 65.0342 17.3564 64.6436C16.9659 64.2531 16.3327 64.2531 15.9422 64.6436L17.3564 66.0579ZM4.38397 76.2019C3.99345 76.5924 3.99345 77.2256 4.38397 77.6161C4.7745 78.0066 5.40766 78.0066 5.79819 77.6161L4.38397 76.2019ZM8.68775 57.3892C9.07827 56.9986 9.07827 56.3655 8.68775 55.975C8.29722 55.5844 7.66406 55.5844 7.27353 55.975L8.68775 57.3892ZM1.49441 61.7541C1.10389 62.1446 1.10389 62.7778 1.49441 63.1683C1.88494 63.5588 2.5181 63.5588 2.90863 63.1683L1.49441 61.7541ZM26.0251 74.7265C26.4156 74.336 26.4156 73.7029 26.0251 73.3123C25.6346 72.9218 25.0014 72.9218 24.6109 73.3123L26.0251 74.7265ZM18.8318 79.0915C18.4412 79.482 18.4412 80.1152 18.8318 80.5057C19.2223 80.8962 19.8555 80.8962 20.246 80.5057L18.8318 79.0915ZM35.7204 77.4869L36.7104 77.3455L35.7204 77.4869ZM56.8142 63.3281L57.8041 63.1866L56.8142 63.3281ZM15.2044 26.3417L15.9116 27.0488L15.2044 26.3417ZM2.20143 39.3448L1.49433 38.6377L2.20143 39.3448ZM4.51308 46.2797L4.6545 45.2898L4.51308 46.2797ZM18.6719 25.1859L18.8133 24.196L18.6719 25.1859ZM30.8038 60.7539L21.2461 51.1963L19.8319 52.6105L29.3896 62.1682L30.8038 60.7539ZM66.4833 42.9992C58.4655 51.644 45.5968 58.6776 38.5275 62.1433L39.4079 63.9392C46.4979 60.4633 59.6612 53.2958 67.9497 44.3592L66.4833 42.9992ZM19.8567 43.4725C23.3224 36.4032 30.3561 23.5345 39.0009 15.5168L37.6409 14.0504C28.7042 22.3388 21.5368 35.5022 18.0609 42.5921L19.8567 43.4725ZM79.9446 8.66512C78.6965 18.2085 75.3426 33.4469 66.4833 42.9992L67.9497 44.3592C77.2665 34.3137 80.6734 18.5154 81.9277 8.92449L79.9446 8.66512ZM39.0009 15.5168C48.5531 6.65736 63.7916 3.3035 73.3349 2.05536L73.0755 0.0722469C63.4846 1.32661 47.6863 4.73351 37.6409 14.0504L39.0009 15.5168ZM81.9277 8.92449C82.6144 3.67424 78.3258 -0.614419 73.0755 0.0722469L73.3349 2.05536C77.2826 1.53905 80.461 4.71742 79.9446 8.66512L81.9277 8.92449ZM21.2461 51.1963C19.1775 49.1277 18.5926 46.051 19.8567 43.4725L18.0609 42.5921C16.397 45.9862 17.1972 49.9757 19.8319 52.6105L21.2461 51.1963ZM29.3896 62.1682C32.0243 64.8029 36.0139 65.6031 39.4079 63.9392L38.5275 62.1433C35.9491 63.4074 32.8724 62.8226 30.8038 60.7539L29.3896 62.1682ZM23.1661 35.7174L46.2826 58.8339L47.6968 57.4197L24.5803 34.3032L23.1661 35.7174ZM15.9422 64.6436L4.38397 76.2019L5.79819 77.6161L17.3564 66.0579L15.9422 64.6436ZM7.27353 55.975L1.49441 61.7541L2.90863 63.1683L8.68775 57.3892L7.27353 55.975ZM24.6109 73.3123L18.8318 79.0915L20.246 80.5057L26.0251 74.7265L24.6109 73.3123ZM47.7274 21.3002C44.1451 24.8824 44.1451 30.6904 47.7274 34.2727L49.1416 32.8584C46.3404 30.0572 46.3404 25.5156 49.1416 22.7144L47.7274 21.3002ZM47.7274 34.2727C51.3096 37.8549 57.1176 37.8549 60.6998 34.2727L59.2856 32.8584C56.4844 35.6596 51.9428 35.6596 49.1416 32.8584L47.7274 34.2727ZM60.6998 34.2727C64.2821 30.6904 64.2821 24.8824 60.6998 21.3002L59.2856 22.7144C62.0868 25.5156 62.0868 30.0573 59.2856 32.8584L60.6998 34.2727ZM60.6998 21.3002C57.1176 17.7179 51.3096 17.7179 47.7274 21.3002L49.1416 22.7144C51.9428 19.9132 56.4844 19.9132 59.2856 22.7144L60.6998 21.3002ZM54.9513 66.0884L41.9482 79.0915L43.3625 80.5057L56.3655 67.5026L54.9513 66.0884ZM36.7104 77.3455L34.9766 65.2093L32.9967 65.4922L34.7305 77.6283L36.7104 77.3455ZM54.6684 55.3787L55.8242 63.4695L57.8041 63.1866L56.6483 55.0959L54.6684 55.3787ZM41.9482 79.0915C40.1498 80.8899 37.07 79.8633 36.7104 77.3455L34.7305 77.6283C35.3232 81.7777 40.3986 83.4695 43.3625 80.5057L41.9482 79.0915ZM56.3655 67.5026C57.4976 66.3706 58.0306 64.7715 57.8041 63.1866L55.8242 63.4695C55.9616 64.4312 55.6382 65.4015 54.9513 66.0884L56.3655 67.5026ZM14.4973 25.6346L1.49433 38.6377L2.90854 40.0519L15.9116 27.0488L14.4973 25.6346ZM4.37166 47.2697L16.5078 49.0034L16.7906 47.0235L4.6545 45.2898L4.37166 47.2697ZM26.9041 25.3518L18.8133 24.196L18.5305 26.1759L26.6213 27.3317L26.9041 25.3518ZM1.49433 38.6377C-1.46949 41.6015 0.222317 46.6769 4.37166 47.2697L4.6545 45.2898C2.13669 44.9301 1.1101 41.8503 2.90854 40.0519L1.49433 38.6377ZM15.9116 27.0488C16.5985 26.3619 17.5688 26.0385 18.5305 26.1759L18.8133 24.196C17.2284 23.9695 15.6294 24.5026 14.4973 25.6346L15.9116 27.0488Z" fill="#30C69D"/>
</svg>
