<svg width="20" height="20" viewBox="0 0 20 20" fill="none" xmlns="http://www.w3.org/2000/svg">
<path fill-rule="evenodd" clip-rule="evenodd" d="M0 10C0 15.5228 4.47715 20 10 20C15.5228 20 20 15.5228 20 10C20 4.47715 15.5228 0 10 0C4.47715 0 0 4.47715 0 10ZM15.144 10.0554C15.144 10.4251 15.1039 10.785 15.0267 11.1324C15.223 11.5219 15.3334 11.9602 15.3334 12.4245C15.3334 14.0308 14.0126 15.3334 12.3833 15.3334C11.8784 15.3334 11.4043 15.2079 10.9885 14.9878C10.6862 15.0428 10.3751 15.0719 10.0565 15.0719C7.24687 15.0719 4.96904 12.8264 4.96904 10.0554C4.96904 9.71043 5.00479 9.37287 5.07189 9.04767C4.81476 8.61489 4.66675 8.11287 4.66675 7.57623C4.66675 5.96878 5.98754 4.66675 7.61752 4.66675C8.19387 4.66675 8.73197 4.83058 9.18666 5.11312C9.47013 5.0649 9.76051 5.03955 10.0565 5.03955C12.8668 5.03955 15.144 7.28566 15.144 10.0554Z" fill="#6C8E98"/>
<path d="M12.6661 12.4529C12.4309 12.7818 12.0835 13.0415 11.632 13.2257C11.186 13.4087 10.6517 13.5021 10.0427 13.5021C9.3121 13.5021 8.69937 13.3753 8.22085 13.1249C7.87905 12.9432 7.59746 12.6971 7.3836 12.3917C7.16723 12.0851 7.05811 11.7803 7.05811 11.4854C7.05811 11.3023 7.1296 11.1428 7.27008 11.0124C7.40931 10.8826 7.58805 10.8176 7.80129 10.8176C7.97563 10.8176 8.12678 10.869 8.24907 10.971C8.36635 11.0693 8.4667 11.2146 8.5476 11.4006C8.63791 11.6047 8.73575 11.7765 8.83923 11.9107C8.93957 12.0418 9.08319 12.1512 9.26632 12.2371C9.45071 12.3225 9.69969 12.367 10.0051 12.367C10.4259 12.367 10.7709 12.2779 11.0299 12.1036C11.2839 11.9336 11.4068 11.7283 11.4068 11.4773C11.4068 11.2801 11.3422 11.1243 11.2105 11.0019C11.0713 10.8745 10.8888 10.7756 10.6674 10.7064C10.436 10.6359 10.1224 10.5586 9.73418 10.4782C9.20549 10.3669 8.75707 10.2352 8.40085 10.085C8.03584 9.93231 7.74171 9.72025 7.52659 9.45502C7.30834 9.18484 7.19733 8.84666 7.19733 8.44912C7.19733 8.07076 7.31336 7.72886 7.5429 7.43458C7.76993 7.14214 8.10232 6.91339 8.53067 6.75821C8.95274 6.60427 9.45447 6.52637 10.0233 6.52637C10.4774 6.52637 10.8769 6.5783 11.2105 6.68093C11.546 6.78356 11.8283 6.92205 12.0503 7.0933C12.2742 7.26641 12.441 7.45003 12.5451 7.64169C12.6505 7.8352 12.7044 8.02748 12.7044 8.21357C12.7044 8.39286 12.6341 8.55608 12.4955 8.69766C12.3563 8.84109 12.1801 8.91343 11.9731 8.91343C11.785 8.91343 11.637 8.86768 11.5354 8.77865C11.44 8.69519 11.341 8.56536 11.2312 8.37988C11.1045 8.14247 10.9509 7.95514 10.7746 7.82284C10.6034 7.69424 10.3181 7.62994 9.92483 7.62994C9.56108 7.62994 9.26381 7.70166 9.04368 7.84448C8.8317 7.98111 8.72822 8.13876 8.72822 8.32547C8.72822 8.43923 8.76146 8.53506 8.83045 8.61667C8.90194 8.70446 9.00417 8.77989 9.13336 8.84419C9.26695 8.91034 9.40492 8.96351 9.5429 9.0006C9.68401 9.03955 9.92107 9.09705 10.2466 9.17124C10.6586 9.2578 11.0368 9.3561 11.3711 9.46182C11.7103 9.56816 12.0026 9.69923 12.2422 9.85317C12.4855 10.0096 12.678 10.2099 12.8154 10.4498C12.9527 10.6915 13.0224 10.9883 13.0224 11.3339C13.0224 11.7469 12.9019 12.1234 12.6661 12.4529Z" fill="#6C8E98"/>
</svg>
