<svg width="78" height="73" viewBox="0 0 78 73" fill="none" xmlns="http://www.w3.org/2000/svg">
<path d="M37.9718 1.70847C38.4382 0.933482 39.5618 0.933482 40.0282 1.70847L51.9042 21.4424C52.0718 21.7208 52.3451 21.9194 52.6617 21.9927L75.0997 27.1894C75.9809 27.3935 76.3281 28.4621 75.7351 29.1451L60.6369 46.5381C60.4239 46.7835 60.3195 47.1047 60.3476 47.4285L62.339 70.3742C62.4172 71.2753 61.5082 71.9357 60.6754 71.5828L39.4681 62.5983C39.1689 62.4716 38.8311 62.4716 38.5319 62.5983L17.3246 71.5828C16.4918 71.9357 15.5828 71.2753 15.661 70.3742L17.6524 47.4285C17.6805 47.1047 17.5761 46.7835 17.3631 46.5381L2.26487 29.1451C1.67194 28.4621 2.01913 27.3935 2.90031 27.1894L25.3383 21.9927C25.6549 21.9194 25.9282 21.7208 26.0958 21.4424L37.9718 1.70847Z" stroke="#30C69D" stroke-width="2"/>
</svg>
