<svg width="87" height="75" viewBox="0 0 87 75" fill="none" xmlns="http://www.w3.org/2000/svg">
<path d="M27.3566 52.8727C26.8811 52.017 26.8811 50.9828 27.3566 50.127C30.3778 44.689 36.2504 41 42.9999 41C49.7496 41 55.6223 44.6892 58.6434 50.1273C59.1189 50.983 59.1189 52.0172 58.6434 52.873C55.6222 58.311 49.7496 62 43.0001 62C36.2504 62 30.3777 58.3108 27.3566 52.8727Z" stroke="#30C69D" stroke-width="2"/>
<path d="M48.2 51.5C48.2 54.4542 45.8719 56.8491 43 56.8491C40.1281 56.8491 37.8 54.4542 37.8 51.5C37.8 48.5458 40.1281 46.1509 43 46.1509C45.8719 46.1509 48.2 48.5458 48.2 51.5Z" stroke="#30C69D" stroke-width="2"/>
<path d="M42.4352 3.5C42.8201 2.83333 43.7824 2.83333 44.1673 3.5L84.0045 72.5C84.3894 73.1667 83.9082 74 83.1384 74H3.4641C2.6943 74 2.21318 73.1667 2.59808 72.5L42.4352 3.5Z" stroke="#30C69D" stroke-width="2"/>
</svg>
