<svg width="111" height="71" viewBox="0 0 111 71" fill="none" xmlns="http://www.w3.org/2000/svg">
<path d="M43.9219 48.2969H52.9219C52.4531 52.6094 51.2188 56.4688 49.2188 59.875C47.2188 63.2812 44.3906 65.9844 40.7344 67.9844C37.0781 69.9531 32.5156 70.9375 27.0469 70.9375C23.0469 70.9375 19.4062 70.1875 16.125 68.6875C12.875 67.1875 10.0781 65.0625 7.73438 62.3125C5.39062 59.5312 3.57812 56.2031 2.29688 52.3281C1.04688 48.4219 0.421875 44.0781 0.421875 39.2969V32.5C0.421875 27.7188 1.04688 23.3906 2.29688 19.5156C3.57812 15.6094 5.40625 12.2656 7.78125 9.48438C10.1875 6.70312 13.0781 4.5625 16.4531 3.0625C19.8281 1.5625 23.625 0.8125 27.8438 0.8125C33 0.8125 37.3594 1.78125 40.9219 3.71875C44.4844 5.65625 47.25 8.34375 49.2188 11.7812C51.2188 15.1875 52.4531 19.1406 52.9219 23.6406H43.9219C43.4844 20.4531 42.6719 17.7188 41.4844 15.4375C40.2969 13.125 38.6094 11.3438 36.4219 10.0938C34.2344 8.84375 31.375 8.21875 27.8438 8.21875C24.8125 8.21875 22.1406 8.79688 19.8281 9.95312C17.5469 11.1094 15.625 12.75 14.0625 14.875C12.5312 17 11.375 19.5469 10.5938 22.5156C9.8125 25.4844 9.42188 28.7812 9.42188 32.4062V39.2969C9.42188 42.6406 9.76562 45.7812 10.4531 48.7188C11.1719 51.6562 12.25 54.2344 13.6875 56.4531C15.125 58.6719 16.9531 60.4219 19.1719 61.7031C21.3906 62.9531 24.0156 63.5781 27.0469 63.5781C30.8906 63.5781 33.9531 62.9688 36.2344 61.75C38.5156 60.5312 40.2344 58.7812 41.3906 56.5C42.5781 54.2188 43.4219 51.4844 43.9219 48.2969ZM89.0625 1.75V70H80.1562V1.75H89.0625ZM111 1.75V9.15625H58.2656V1.75H111Z" fill="url(#paint0_linear_1761_5769)"/>
<defs>
<linearGradient id="paint0_linear_1761_5769" x1="12.2727" y1="90.0179" x2="107.267" y2="-6.57221" gradientUnits="userSpaceOnUse">
<stop stop-color="#00A983"/>
<stop offset="0.494792" stop-color="white"/>
<stop offset="1" stop-color="#3162AC"/>
</linearGradient>
</defs>
</svg>
