<svg width="114" height="71" viewBox="0 0 114 71" fill="none" xmlns="http://www.w3.org/2000/svg">
<path d="M54.9219 33.7188V38.0312C54.9219 43.1562 54.2812 47.75 53 51.8125C51.7188 55.875 49.875 59.3281 47.4688 62.1719C45.0625 65.0156 42.1719 67.1875 38.7969 68.6875C35.4531 70.1875 31.7031 70.9375 27.5469 70.9375C23.5156 70.9375 19.8125 70.1875 16.4375 68.6875C13.0938 67.1875 10.1875 65.0156 7.71875 62.1719C5.28125 59.3281 3.39062 55.875 2.04688 51.8125C0.703125 47.75 0.03125 43.1562 0.03125 38.0312V33.7188C0.03125 28.5938 0.6875 24.0156 2 19.9844C3.34375 15.9219 5.23438 12.4688 7.67188 9.625C10.1094 6.75 13 4.5625 16.3438 3.0625C19.7188 1.5625 23.4219 0.8125 27.4531 0.8125C31.6094 0.8125 35.3594 1.5625 38.7031 3.0625C42.0781 4.5625 44.9688 6.75 47.375 9.625C49.8125 12.4688 51.6719 15.9219 52.9531 19.9844C54.2656 24.0156 54.9219 28.5938 54.9219 33.7188ZM45.9688 38.0312V33.625C45.9688 29.5625 45.5469 25.9688 44.7031 22.8438C43.8906 19.7188 42.6875 17.0938 41.0938 14.9688C39.5 12.8438 37.5469 11.2344 35.2344 10.1406C32.9531 9.04688 30.3594 8.5 27.4531 8.5C24.6406 8.5 22.0938 9.04688 19.8125 10.1406C17.5625 11.2344 15.625 12.8438 14 14.9688C12.4062 17.0938 11.1719 19.7188 10.2969 22.8438C9.42188 25.9688 8.98438 29.5625 8.98438 33.625V38.0312C8.98438 42.125 9.42188 45.75 10.2969 48.9062C11.1719 52.0312 12.4219 54.6719 14.0469 56.8281C15.7031 58.9531 17.6562 60.5625 19.9062 61.6562C22.1875 62.75 24.7344 63.2969 27.5469 63.2969C30.4844 63.2969 33.0938 62.75 35.375 61.6562C37.6562 60.5625 39.5781 58.9531 41.1406 56.8281C42.7344 54.6719 43.9375 52.0312 44.75 48.9062C45.5625 45.75 45.9688 42.125 45.9688 38.0312ZM104.844 52.75C104.844 51.1562 104.594 49.75 104.094 48.5312C103.625 47.2812 102.781 46.1562 101.562 45.1562C100.375 44.1562 98.7188 43.2031 96.5938 42.2969C94.5 41.3906 91.8438 40.4688 88.625 39.5312C85.25 38.5312 82.2031 37.4219 79.4844 36.2031C76.7656 34.9531 74.4375 33.5312 72.5 31.9375C70.5625 30.3438 69.0781 28.5156 68.0469 26.4531C67.0156 24.3906 66.5 22.0312 66.5 19.375C66.5 16.7188 67.0469 14.2656 68.1406 12.0156C69.2344 9.76562 70.7969 7.8125 72.8281 6.15625C74.8906 4.46875 77.3438 3.15625 80.1875 2.21875C83.0312 1.28125 86.2031 0.8125 89.7031 0.8125C94.8281 0.8125 99.1719 1.79688 102.734 3.76562C106.328 5.70312 109.062 8.25 110.938 11.4062C112.812 14.5312 113.75 17.875 113.75 21.4375H104.75C104.75 18.875 104.203 16.6094 103.109 14.6406C102.016 12.6406 100.359 11.0781 98.1406 9.95312C95.9219 8.79688 93.1094 8.21875 89.7031 8.21875C86.4844 8.21875 83.8281 8.70312 81.7344 9.67188C79.6406 10.6406 78.0781 11.9531 77.0469 13.6094C76.0469 15.2656 75.5469 17.1562 75.5469 19.2812C75.5469 20.7188 75.8438 22.0312 76.4375 23.2188C77.0625 24.375 78.0156 25.4531 79.2969 26.4531C80.6094 27.4531 82.2656 28.375 84.2656 29.2188C86.2969 30.0625 88.7188 30.875 91.5312 31.6562C95.4062 32.75 98.75 33.9688 101.562 35.3125C104.375 36.6562 106.688 38.1719 108.5 39.8594C110.344 41.5156 111.703 43.4062 112.578 45.5312C113.484 47.625 113.938 50 113.938 52.6562C113.938 55.4375 113.375 57.9531 112.25 60.2031C111.125 62.4531 109.516 64.375 107.422 65.9688C105.328 67.5625 102.812 68.7969 99.875 69.6719C96.9688 70.5156 93.7188 70.9375 90.125 70.9375C86.9688 70.9375 83.8594 70.5 80.7969 69.625C77.7656 68.75 75 67.4375 72.5 65.6875C70.0312 63.9375 68.0469 61.7812 66.5469 59.2188C65.0781 56.625 64.3438 53.625 64.3438 50.2188H73.3438C73.3438 52.5625 73.7969 54.5781 74.7031 56.2656C75.6094 57.9219 76.8438 59.2969 78.4062 60.3906C80 61.4844 81.7969 62.2969 83.7969 62.8281C85.8281 63.3281 87.9375 63.5781 90.125 63.5781C93.2812 63.5781 95.9531 63.1406 98.1406 62.2656C100.328 61.3906 101.984 60.1406 103.109 58.5156C104.266 56.8906 104.844 54.9688 104.844 52.75Z" fill="url(#paint0_linear_2292_7868)"/>
<defs>
<linearGradient id="paint0_linear_2292_7868" x1="14.2727" y1="90.0179" x2="109.267" y2="-6.57221" gradientUnits="userSpaceOnUse">
<stop stop-color="#00A983"/>
<stop offset="0.494792" stop-color="white"/>
<stop offset="1" stop-color="#3162AC"/>
</linearGradient>
</defs>
</svg>
