<svg width="108" height="71" viewBox="0 0 108 71" fill="none" xmlns="http://www.w3.org/2000/svg">
<path d="M43.9531 62.6406V70H7.8125V62.6406H43.9531ZM9.64062 1.75V70H0.59375V1.75H9.64062ZM39.1719 31.0938V38.4531H7.8125V31.0938H39.1719ZM43.4844 1.75V9.15625H7.8125V1.75H43.4844ZM107.703 33.7188V38.0312C107.703 43.1562 107.062 47.75 105.781 51.8125C104.5 55.875 102.656 59.3281 100.25 62.1719C97.8438 65.0156 94.9531 67.1875 91.5781 68.6875C88.2344 70.1875 84.4844 70.9375 80.3281 70.9375C76.2969 70.9375 72.5938 70.1875 69.2188 68.6875C65.875 67.1875 62.9688 65.0156 60.5 62.1719C58.0625 59.3281 56.1719 55.875 54.8281 51.8125C53.4844 47.75 52.8125 43.1562 52.8125 38.0312V33.7188C52.8125 28.5938 53.4688 24.0156 54.7812 19.9844C56.125 15.9219 58.0156 12.4688 60.4531 9.625C62.8906 6.75 65.7812 4.5625 69.125 3.0625C72.5 1.5625 76.2031 0.8125 80.2344 0.8125C84.3906 0.8125 88.1406 1.5625 91.4844 3.0625C94.8594 4.5625 97.75 6.75 100.156 9.625C102.594 12.4688 104.453 15.9219 105.734 19.9844C107.047 24.0156 107.703 28.5938 107.703 33.7188ZM98.75 38.0312V33.625C98.75 29.5625 98.3281 25.9688 97.4844 22.8438C96.6719 19.7188 95.4688 17.0938 93.875 14.9688C92.2812 12.8438 90.3281 11.2344 88.0156 10.1406C85.7344 9.04688 83.1406 8.5 80.2344 8.5C77.4219 8.5 74.875 9.04688 72.5938 10.1406C70.3438 11.2344 68.4062 12.8438 66.7812 14.9688C65.1875 17.0938 63.9531 19.7188 63.0781 22.8438C62.2031 25.9688 61.7656 29.5625 61.7656 33.625V38.0312C61.7656 42.125 62.2031 45.75 63.0781 48.9062C63.9531 52.0312 65.2031 54.6719 66.8281 56.8281C68.4844 58.9531 70.4375 60.5625 72.6875 61.6562C74.9688 62.75 77.5156 63.2969 80.3281 63.2969C83.2656 63.2969 85.875 62.75 88.1562 61.6562C90.4375 60.5625 92.3594 58.9531 93.9219 56.8281C95.5156 54.6719 96.7188 52.0312 97.5312 48.9062C98.3438 45.75 98.75 42.125 98.75 38.0312Z" fill="url(#paint0_linear_2292_7868)"/>
<defs>
<linearGradient id="paint0_linear_2292_7868" x1="11.2727" y1="90.0179" x2="106.267" y2="-6.57221" gradientUnits="userSpaceOnUse">
<stop stop-color="#00A983"/>
<stop offset="0.494792" stop-color="white"/>
<stop offset="1" stop-color="#3162AC"/>
</linearGradient>
</defs>
</svg>
